{
.appVersion = "1230";
DisplayStrings = (
"ª"
);
copyright = "Copyright 2019 The Beth Ellen Project Authors (https://github.com/googlefonts/BethEllen)";
customParameters = (
{
name = licenseURL;
value = "http://scripts.sil.org/OFL";
},
{
name = license;
value = "This Font Software is licensed under the SIL Open Font License, Version 1.1. This license is available with a FAQ at: http://scripts.sil.org/OFL";
},
{
name = vendorID;
value = RJST;
},
{
name = panose;
value = (
0,
0,
0,
0,
0,
0,
0,
0,
0,
0
);
},
{
name = unicodeRanges;
value = (
0,
1,
2,
5,
31,
32,
33,
35,
60
);
},
{
name = codePageRanges;
value = (
1252
);
},
{
name = glyphOrder;
value = (
.notdef,
.null,
CR,
space,
LF,
controlCR,
exclam,
quotedbl,
numbersign,
dollar,
percent,
ampersand,
quotesingle,
parenleft,
parenright,
asterisk,
plus,
comma,
hyphen,
period,
slash,
zero,
one,
two,
three,
four,
five,
six,
seven,
eight,
nine,
colon,
semicolon,
less,
equal,
greater,
question,
at,
A,
B,
C,
D,
E,
F,
G,
H,
I,
J,
K,
L,
M,
N,
O,
P,
Q,
R,
S,
T,
U,
V,
W,
X,
Y,
Z,
bracketleft,
backslash,
bracketright,
asciicircum,
underscore,
grave,
a,
b,
c,
d,
e,
f,
g,
h,
i,
j,
k,
l,
m,
n,
o,
p,
q,
r,
s,
t,
u,
v,
w,
x,
y,
z,
braceleft,
bar,
braceright,
asciitilde,
uni00A0,
exclamdown,
cent,
sterling,
currency,
yen,
brokenbar,
section,
dieresis,
copyright,
ordfeminine,
guillemotleft,
logicalnot,
uni00AD,
registered,
macron,
degree,
plusminus,
uni00B2,
uni00B3,
acute,
uni00B5,
paragraph,
periodcentered,
cedilla,
uni00B9,
ordmasculine,
guillemotright,
onequarter,
onehalf,
threequarters,
questiondown,
Agrave,
Aacute,
Acircumflex,
Atilde,
Adieresis,
Aring,
AE,
Ccedilla,
Egrave,
Eacute,
Ecircumflex,
Edieresis,
Igrave,
Iacute,
Icircumflex,
Idieresis,
Eth,
Ntilde,
Ograve,
Oacute,
Ocircumflex,
Otilde,
Odieresis,
multiply,
Oslash,
Ugrave,
Uacute,
Ucircumflex,
Udieresis,
Yacute,
Thorn,
germandbls,
agrave,
aacute,
acircumflex,
atilde,
adieresis,
aring,
ae,
ccedilla,
egrave,
eacute,
ecircumflex,
edieresis,
igrave,
iacute,
icircumflex,

glyphs = (
{
glyphname = .notdef;
lastChange = "2019-05-24 06:26:30 +0000";
layers = (
{
layerId = "B32CFD71-CB6A-495B-AD15-7D36F0D81A51";
paths = (
{
closed = 1;
nodes = (
"28 1560 LINE",
"28 57 LINE",
"793 57 LINE",
"793 1560 LINE"
);
},
{
closed = 1;
nodes = (
"155 1482 LINE",
"660 1482 LINE",
"408 913 LINE"
);
},
{
closed = 1;
nodes = (
"451 816 LINE",
"715 1411 LINE",
"715 223 LINE"
);
},
{
closed = 1;
nodes = (
"366 818 LINE",
"106 231 LINE",
"106 1403 LINE"
);
},
{
closed = 1;
nodes = (
"409 720 LINE",
"664 147 LINE",
"155 147 LINE"
);
}
);
width = 863;
}
);
note = .notdef;
},
{
color = 4;
glyphname = exclam;
lastChange = "2019-05-24 00:43:18 +0000";
layers = (
{
layerId = "B32CFD71-CB6A-495B-AD15-7D36F0D81A51";
paths = (
{
closed = 1;
nodes = (
"462 -196 OFFCURVE",
"582 -130 OFFCURVE",
"582 -68 CURVE SMOOTH",
"582 -9 OFFCURVE",
"493 77 OFFCURVE",
"444 76 CURVE",
"373 76 OFFCURVE",
"356 102 OFFCURVE",
"309 102 CURVE SMOOTH",
"263 102 OFFCURVE",
"234 17 OFFCURVE",
"234 -37 CURVE SMOOTH",
"234 -124 OFFCURVE",
"296 -196 OFFCURVE",
"390 -196 CURVE SMOOTH"
);
},
{
closed = 1;
nodes = (
"803 1673 OFFCURVE",
"617 904 OFFCURVE",
"572 764 CURVE SMOOTH",
"531 634 OFFCURVE",
"544 518 OFFCURVE",
"460 440 CURVE",
"379 376 OFFCURVE",
"487 252 OFFCURVE",
"594 252 CURVE SMOOTH",
"688 252 OFFCURVE",
"704 305 OFFCURVE",
"716 426 CURVE SMOOTH",
"723 503 OFFCURVE",
"753 573 OFFCURVE",
"804 638 CURVE",
"999 906 OFFCURVE",
"918 939 OFFCURVE",
"1042 1178 CURVE",
"1097 1294 OFFCURVE",
"1142 1546 OFFCURVE",
"1198 1638 CURVE SMOOTH",
"1266 1753 OFFCURVE",
"1165 1864 OFFCURVE",
"1030 1864 CURVE SMOOTH",
"982 1864 OFFCURVE",
"948 1910 OFFCURVE",
"932 1910 CURVE SMOOTH",
"872 1910 OFFCURVE",
"831 1879 OFFCURVE",
"820 1810 CURVE"
);
}
);
width = 1311;
}
);
note = exclam;
unicode = 0021;
},
{
glyphname = quotedbl;
lastChange = "2019-05-23 17:57:26 +0000";
layers = (
{
layerId = "B32CFD71-CB6A-495B-AD15-7D36F0D81A51";
paths = (
{
closed = 1;
nodes = (
"421.333 1620 OFFCURVE",
"428 1658 OFFCURVE",
"428 1692 CURVE SMOOTH",
"428 1752 OFFCURVE",
"408 1798.667 OFFCURVE",
"372 1820 CURVE SMOOTH",
"343.333 1836 OFFCURVE",
"320 1844 OFFCURVE",
"302 1844 CURVE SMOOTH",
"267.333 1844 OFFCURVE",
"238 1820 OFFCURVE",
"198 1764 CURVE SMOOTH",
"123.333 1660.667 OFFCURVE",
"86 1553.667 OFFCURVE",
"86 1443 CURVE SMOOTH",
"86 1381.667 OFFCURVE",
"97.333 1320 OFFCURVE",
"120 1258 CURVE",
"133.888 1225.595 OFFCURVE",
"241.755 1160 OFFCURVE",
"282 1160 CURVE",
"376 1230 LINE",
"437.333 1279.333 OFFCURVE",
"464 1311.333 OFFCURVE",
"464 1346 CURVE SMOOTH",
"464 1369.333 OFFCURVE",
"450 1397.333 OFFCURVE",
"422 1430 CURVE SMOOTH",
"399.333 1455.333 OFFCURVE",
"390 1474.333 OFFCURVE",
"390 1497 CURVE SMOOTH",
"390 1514.333 OFFCURVE",
"396 1541.333 OFFCURVE",
"408 1578 CURVE SMOOTH"
);
},
{
closed = 1;
nodes = (
"961.333 1455.333 OFFCURVE",
"952 1474.333 OFFCURVE",
"952 1497 CURVE SMOOTH",
"952 1514.333 OFFCURVE",
"958 1541.333 OFFCURVE",
"970 1578 CURVE SMOOTH",
"983.333 1620 OFFCURVE",
"990 1658 OFFCURVE",
"990 1692 CURVE SMOOTH",
"990 1752 OFFCURVE",
"970 1798.667 OFFCURVE",
"934 1820 CURVE SMOOTH",
"905.333 1836 OFFCURVE",
"882 1844 OFFCURVE",
"864 1844 CURVE SMOOTH",
"829.333 1844 OFFCURVE",
"800 1820 OFFCURVE",
"760 1764 CURVE SMOOTH",
"685.333 1660.667 OFFCURVE",
"648 1553.667 OFFCURVE",
"648 1443 CURVE SMOOTH",
"648 1381.667 OFFCURVE",
"659.333 1320 OFFCURVE",
"682 1258 CURVE SMOOTH",
"692.931 1227.392 OFFCURVE",
"804.487 1160 OFFCURVE",
"842 1160 CURVE",
"936 1230 LINE SMOOTH",
"998.667 1279.333 OFFCURVE",
"1026 1311.333 OFFCURVE",
"1026 1346 CURVE SMOOTH",
"1026 1369.333 OFFCURVE",
"1012 1397.333 OFFCURVE",
"984 1430 CURVE SMOOTH"
);
}
);
width = 1111;
}
);
note = quotedbl;
unicode = 0022;
},
{
glyphname = numbersign;
lastChange = "2019-05-23 17:57:26 +0000";
layers = (
{
layerId = "B32CFD71-CB6A-495B-AD15-7D36F0D81A51";
paths = (
{
closed = 1;
nodes = (
"1279.333 1253.333 OFFCURVE",
"1249.333 1158.667 OFFCURVE",
"1216 1034 CURVE SMOOTH",
"1166 846 LINE",
"1112 844 LINE SMOOTH",
"1025.333 841.333 OFFCURVE",
"919.333 837.333 OFFCURVE",
"794 832 CURVE",
"812 904 LINE",
"823.333 961.333 OFFCURVE",
"846.667 1033.333 OFFCURVE",
"882 1120 CURVE SMOOTH",
"908.667 1187.333 OFFCURVE",
"922 1230.333 OFFCURVE",
"922 1249 CURVE SMOOTH",
"922 1263.667 OFFCURVE",
"916.667 1275.333 OFFCURVE",
"906 1284 CURVE SMOOTH",
"894.667 1293.333 OFFCURVE",
"881 1298 OFFCURVE",
"865 1298 CURVE SMOOTH",
"822.333 1298 OFFCURVE",
"775 1260.333 OFFCURVE",
"743 1203 CURVE SMOOTH",
"727 1174.333 OFFCURVE",
"717.333 1144 OFFCURVE",
"714 1112 CURVE",
"711.333 1061.333 OFFCURVE",
"693.333 1000 OFFCURVE",
"660 928 CURVE SMOOTH",
"612 816 LINE",
"452 800 LINE SMOOTH",
"404 795.333 OFFCURVE",
"362 789.333 OFFCURVE",
"326 782 CURVE SMOOTH",
"213.333 762 OFFCURVE",
"157 734.667 OFFCURVE",
"157 700 CURVE SMOOTH",
"157 684.667 OFFCURVE",
"168.667 667.333 OFFCURVE",
"192 648 CURVE",
"202 637.333 OFFCURVE",
"227 632 OFFCURVE",
"267 632 CURVE SMOOTH",
"300.333 632 OFFCURVE",
"336 634.667 OFFCURVE",
"374 640 CURVE SMOOTH",
"448 651.333 OFFCURVE",
"497 657 OFFCURVE",
"521 657 CURVE SMOOTH",
"531.667 657 OFFCURVE",
"538.667 656 OFFCURVE",
"542 654 CURVE",
"546 651.333 OFFCURVE",
"548 643.667 OFFCURVE",
"548 631 CURVE SMOOTH",
"548 591 OFFCURVE",
"527.333 523.333 OFFCURVE",
"506 502 CURVE",
"487.333 488.667 OFFCURVE",
"443.333 478.667 OFFCURVE",
"374 472 CURVE",
"302 468 OFFCURVE",
"264 452.667 OFFCURVE",
"260 426 CURVE",
"258.667 420.667 OFFCURVE",
"258 416.333 OFFCURVE",
"258 413 CURVE SMOOTH",
"258 398.333 OFFCURVE",
"266 385.333 OFFCURVE",
"282 374 CURVE",
"303.333 360 OFFCURVE",
"342 344.667 OFFCURVE",
"398 328 CURVE SMOOTH",
"416.667 322 OFFCURVE",
"426 311.667 OFFCURVE",
"426 297 CURVE SMOOTH",
"426 281 OFFCURVE",
"418.667 250.667 OFFCURVE",
"404 206 CURVE SMOOTH",
"387.333 152.667 OFFCURVE",
"379.333 108.667 OFFCURVE",
"380 74 CURVE",
"384 44.667 OFFCURVE",
"396 30 OFFCURVE",
"416 30 CURVE SMOOTH",
"418.667 30 OFFCURVE",
"422.667 30.667 OFFCURVE",
"428 32 CURVE",
"450 42.667 OFFCURVE",
"482.667 92.667 OFFCURVE",
"526 182 CURVE SMOOTH",
"564.667 258 OFFCURVE",
"589.833 296 OFFCURVE",
"618.5 316 CURVE SMOOTH",
"632.833 326 OFFCURVE",
"650 333.333 OFFCURVE",
"670 338 CURVE",
"678.667 340.667 OFFCURVE",
"691.333 342.667 OFFCURVE",
"708 344 CURVE",
"728 346.667 OFFCURVE",
"766.667 350 OFFCURVE",
"824 354 CURVE",
"842.667 356.667 OFFCURVE",
"863.333 358 OFFCURVE",
"886 358 CURVE SMOOTH",
"974 358 LINE SMOOTH",
"984.667 358 OFFCURVE",
"990 356.667 OFFCURVE",
"990 354 CURVE",
"986 313.333 OFFCURVE",
"946.667 198 OFFCURVE",
"872 8 CURVE SMOOTH",
"837.333 -77.333 OFFCURVE",
"820 -141 OFFCURVE",
"820 -183 CURVE SMOOTH",
"820 -213.667 OFFCURVE",
"828.667 -234 OFFCURVE",
"846 -244 CURVE SMOOTH",
"849.333 -246 OFFCURVE",
"852.333 -247 OFFCURVE",
"855 -247 CURVE SMOOTH",
"880.333 -247 OFFCURVE",
"915 -195.333 OFFCURVE",
"959 -92 CURVE SMOOTH",
"982.333 -38 OFFCURVE",
"1008.667 32 OFFCURVE",
"1038 118 CURVE SMOOTH",
"1069.333 212 OFFCURVE",
"1092.333 276.167 OFFCURVE",
"1107 310.5 CURVE SMOOTH",
"1121.667 344.833 OFFCURVE",
"1138.5 368.833 OFFCURVE",
"1157.5 382.5 CURVE",
"1136.333 379.167 OFFCURVE",
"1167 403 OFFCURVE",
"1243 403 CURVE SMOOTH",
"1265.667 403 OFFCURVE",
"1301.333 401.333 OFFCURVE",
"1350 398 CURVE",
"1418 398 LINE SMOOTH",
"1507.333 398 OFFCURVE",
"1552 414 OFFCURVE",
"1552 446 CURVE SMOOTH",
"1552 461.333 OFFCURVE",
"1542 480 OFFCURVE",
"1522 502 CURVE SMOOTH",
"1494 532 OFFCURVE",
"1435.333 549.333 OFFCURVE",
"1346 554 CURVE SMOOTH",
"1284.667 558 OFFCURVE",
"1247.333 562.667 OFFCURVE",
"1234 568 CURVE",
"1225.333 572 OFFCURVE",
"1221 582.667 OFFCURVE",
"1221 600 CURVE SMOOTH",
"1221 608.667 OFFCURVE",
"1221.333 615.333 OFFCURVE",
"1222 620 CURVE SMOOTH",
"1226.667 658 OFFCURVE",
"1237 685 OFFCURVE",
"1253 701 CURVE SMOOTH",
"1268.333 716.333 OFFCURVE",
"1354.667 724 OFFCURVE",
"1512 724 CURVE SMOOTH",
"1614 724 OFFCURVE",
"1681.333 727 OFFCURVE",
"1714 733 CURVE SMOOTH",
"1747.333 739 OFFCURVE",
"1770 750.667 OFFCURVE",
"1782 768 CURVE",
"1789.333 780 OFFCURVE",
"1793 791.667 OFFCURVE",
"1793 803 CURVE SMOOTH",
"1793 821.667 OFFCURVE",
"1781.5 836 OFFCURVE",
"1758.5 846 CURVE SMOOTH",
"1735.5 856 OFFCURVE",
"1702.667 860.667 OFFCURVE",
"1660 860 CURVE",
"1546.667 853.333 OFFCURVE",
"1461.667 850 OFFCURVE",
"1405 850 CURVE SMOOTH",
"1385.667 850 OFFCURVE",
"1370 850.667 OFFCURVE",
"1358 852 CURVE",
"1325.333 857.333 OFFCURVE",
"1310.667 872 OFFCURVE",
"1314 896 CURVE SMOOTH",
"1321.333 939.333 OFFCURVE",
"1360.667 1056 OFFCURVE",
"1432 1246 CURVE SMOOTH",
"1496 1420 OFFCURVE",
"1528 1527 OFFCURVE",
"1528 1567 CURVE SMOOTH",
"1528 1571.667 OFFCURVE",
"1527.333 1576 OFFCURVE",
"1526 1580 CURVE",
"1516 1606 OFFCURVE",
"1502.333 1619 OFFCURVE",
"1485 1619 CURVE",
"1465.667 1617.667 OFFCURVE",
"1442 1601.333 OFFCURVE",
"1414 1570 CURVE SMOOTH",
"1367.333 1518.667 OFFCURVE",
"1344 1476 OFFCURVE",
"1344 1442 CURVE SMOOTH",
"1344 1419.333 OFFCURVE",
"1331.333 1378 OFFCURVE",
"1306 1318 CURVE SMOOTH"
);
},
{
closed = 1;
nodes = (
"973.333 507.333 OFFCURVE",
"922.667 503 OFFCURVE",
"848 503 CURVE SMOOTH",
"803.333 503 OFFCURVE",
"763.167 505 OFFCURVE",
"727.5 509 CURVE SMOOTH",
"691.833 513 OFFCURVE",
"671.333 518.667 OFFCURVE",
"666 526 CURVE",
"663.333 532 OFFCURVE",
"662 538.667 OFFCURVE",
"662 546 CURVE SMOOTH",
"662 557.333 OFFCURVE",
"666.667 568.667 OFFCURVE",
"676 580 CURVE",
"694.667 596.667 OFFCURVE",
"704 619.333 OFFCURVE",
"704 648 CURVE SMOOTH",
"704 677.333 OFFCURVE",
"714 694 OFFCURVE",
"734 698 CURVE",
"756 706.667 OFFCURVE",
"809.667 711 OFFCURVE",
"895 711 CURVE SMOOTH",
"944.333 711 OFFCURVE",
"988.833 709.333 OFFCURVE",
"1028.5 706 CURVE SMOOTH",
"1068.167 702.667 OFFCURVE",
"1090 698 OFFCURVE",
"1094 692 CURVE SMOOTH",
"1097.333 687.333 OFFCURVE",
"1099 681.333 OFFCURVE",
"1099 674 CURVE SMOOTH",
"1099 628.652 OFFCURVE",
"1039.281 532.539 OFFCURVE",
"1000 516 CURVE"
);
}
);
width = 1881;
}
);
note = numbersign;
unicode = 0023;
},
{
color = 4;
glyphname = dollar;
lastChange = "2019-05-23 18:00:10 +0000";
layers = (
{
layerId = "B32CFD71-CB6A-495B-AD15-7D36F0D81A51";
paths = (
{
closed = 1;
nodes = (
"1130 1653 OFFCURVE",
"1177 1723 OFFCURVE",
"1223 1723 CURVE SMOOTH",
"1249 1723 OFFCURVE",
"1320 1666 OFFCURVE",
"1320 1634 CURVE SMOOTH",
"1320 1605 OFFCURVE",
"1258 1528 OFFCURVE",
"1258 1505 CURVE SMOOTH",
"1258 1470 OFFCURVE",
"1634 1507 OFFCURVE",
"1634 1617 CURVE SMOOTH",
"1634 1756 OFFCURVE",
"1306 2002 OFFCURVE",
"1314 2032 CURVE",
"1331 2107 OFFCURVE",
"1366 2302 OFFCURVE",
"1366 2368 CURVE SMOOTH",
"1366 2426 OFFCURVE",
"1298 2472 OFFCURVE",
"1241 2472 CURVE SMOOTH",
"1156 2472 OFFCURVE",
"1102 2361 OFFCURVE",
"1084 2226 CURVE",
"1073 2085 OFFCURVE",
"995 1968 OFFCURVE",
"910 1968 CURVE SMOOTH",
"857 1968 OFFCURVE",
"528 1740 OFFCURVE",
"504 1684 CURVE SMOOTH",
"488 1647 OFFCURVE",
"481 1599 OFFCURVE",
"481 1548 CURVE SMOOTH",
"481 1342 OFFCURVE",
"534 1229 OFFCURVE",
"692 1076 CURVE",
"595 764 OFFCURVE",
"577 626 OFFCURVE",
"554 596 CURVE SMOOTH",
"513 555 OFFCURVE",
"458 652 OFFCURVE",
"418 652 CURVE SMOOTH",
"376 652 OFFCURVE",
"292 554 OFFCURVE",
"292 501 CURVE SMOOTH",
"292 435 OFFCURVE",
"334 399 OFFCURVE",
"490 292 CURVE",
"444 -208 LINE",
"564 -247 OFFCURVE",
"583 -254 OFFCURVE",
"612 -254 CURVE SMOOTH",
"665 -254 OFFCURVE",
"678 -211 OFFCURVE",
"682 -92 CURVE SMOOTH",
"687 183 OFFCURVE",
"697 191 OFFCURVE",
"966 204 CURVE SMOOTH",
"1224 215 OFFCURVE",
"1539 284 OFFCURVE",
"1539 488 CURVE SMOOTH",
"1539 655 OFFCURVE",
"1372 895 OFFCURVE",
"1122 1066 CURVE SMOOTH",
"1061 1107 OFFCURVE",
"969 1169 OFFCURVE",
"969 1206 CURVE SMOOTH",
"969 1219 OFFCURVE",
"1044 1262 OFFCURVE",
"1030 1308 CURVE SMOOTH",
"1013 1364 OFFCURVE",
"1130 1528 OFFCURVE",
"1130 1596 CURVE SMOOTH"
);
},
{
closed = 1;
nodes = (
"1252 658 OFFCURVE",
"1274 613 OFFCURVE",
"1274 575 CURVE SMOOTH",
"1274 556 OFFCURVE",
"1269 539 OFFCURVE",
"1258 524 CURVE",
"1190 448 OFFCURVE",
"967 384 OFFCURVE",
"830 384 CURVE SMOOTH",
"793 384 OFFCURVE",
"756 388 OFFCURVE",
"756 416 CURVE SMOOTH",
"756 433 OFFCURVE",
"764 460 OFFCURVE",
"780 496 CURVE",
"802 552 OFFCURVE",
"806 667 OFFCURVE",
"806 720 CURVE SMOOTH",
"806 792 OFFCURVE",
"874 898 OFFCURVE",
"930 898 CURVE",
"947 891 OFFCURVE",
"997 863 OFFCURVE",
"1080 812 CURVE SMOOTH",
"1132 779 OFFCURVE",
"1175 743 OFFCURVE",
"1208 706 CURVE SMOOTH"
);
},
{
closed = 1;
nodes = (
"776 1389 OFFCURVE",
"776 1446 CURVE SMOOTH",
"776 1510 OFFCURVE",
"851 1598 OFFCURVE",
"851 1524 CURVE SMOOTH",
"851 1462 OFFCURVE"
);
}
);
width = 1877;
}
);
note = dollar;
unicode = 0024;
},
{
color = 4;
glyphname = percent;
lastChange = "2019-05-23 22:29:40 +0000";
layers = (
{
layerId = "B32CFD71-CB6A-495B-AD15-7D36F0D81A51";
paths = (
{
closed = 1;
nodes = (
"1388 1485 OFFCURVE",
"1333 1485 CURVE SMOOTH",
"1259 1485 OFFCURVE",
"1196 1451.333 OFFCURVE",
"1144 1384 CURVE SMOOTH",
"744 869 OFFCURVE",
"329 336 OFFCURVE",
"277 278 CURVE SMOOTH",
"247 245 OFFCURVE",
"149 138 OFFCURVE",
"122 108 CURVE",
"168 53 OFFCURVE",
"211 2 OFFCURVE",
"251 2 CURVE SMOOTH",
"327 2 OFFCURVE",
"506 218 OFFCURVE",
"765 599 CURVE",
"999 934 OFFCURVE",
"1197 1196 OFFCURVE",
"1436 1420 CURVE",
"1367 1472 OFFCURVE"
);
},
{
closed = 1;
nodes = (
"611 1013 CURVE SMOOTH",
"654 1091 OFFCURVE",
"687 1159 OFFCURVE",
"687 1214 CURVE SMOOTH",
"687 1295 OFFCURVE",
"665 1339 OFFCURVE",
"596 1404 CURVE",
"492 1429 OFFCURVE",
"387 1423 OFFCURVE",
"326 1346 CURVE SMOOTH",
"227 1222 OFFCURVE",
"86 1025 OFFCURVE",
"86 930 CURVE SMOOTH",
"86 854 OFFCURVE",
"150 802 OFFCURVE",
"239 802 CURVE SMOOTH",
"448 802 OFFCURVE",
"520 838 OFFCURVE"
);
},
{
closed = 1;
nodes = (
"465.333 1103.333 OFFCURVE",
"452.333 1066.333 OFFCURVE",
"433 1039 CURVE SMOOTH",
"393 981 OFFCURVE",
"333 966 OFFCURVE",
"254 968 CURVE",
"285 1041 OFFCURVE",
"292 1094 OFFCURVE",
"334 1130 CURVE SMOOTH",
"360 1154 OFFCURVE",
"379 1153 OFFCURVE",
"472 1150 CURVE"
);
},
{
closed = 1;
nodes = (
"1159 658 OFFCURVE",
"1045 621 OFFCURVE",
"994 547 CURVE SMOOTH",
"966 508 OFFCURVE",
"963 436 OFFCURVE",
"963 359 CURVE SMOOTH",
"963 169 OFFCURVE",
"974 46 OFFCURVE",
"1136 34 CURVE",
"1158 34 OFFCURVE",
"1190 26 OFFCURVE",
"1260 2 CURVE",
"1310 150 OFFCURVE",
"1411 182 OFFCURVE",
"1434 325 CURVE SMOOTH",
"1440 362 OFFCURVE",
"1439 407 OFFCURVE",
"1430 444 CURVE",
"1404 530 OFFCURVE",
"1718 686 OFFCURVE",
"1396 770 CURVE"
);
},
{
closed = 1;
nodes = (
"1073 434 OFFCURVE",
"1094 452 OFFCURVE",
"1300 524 CURVE",
"1221 407 OFFCURVE",
"1279 281 OFFCURVE",
"1138 228 CURVE"
);
}
);
width = 1629;
}
);
note = percent;
unicode = 0025;
},
{
color = 4;
glyphname = ampersand;
lastChange = "2019-05-24 00:35:36 +0000";
layers = (
{
layerId = "B32CFD71-CB6A-495B-AD15-7D36F0D81A51";
paths = (
{
closed = 1;
nodes = (
"542 727 OFFCURVE",
"542 773 CURVE",
"548 831 OFFCURVE",
"561 854 OFFCURVE",
"676 1028 CURVE",
"764 1158 OFFCURVE",
"798 1245 OFFCURVE",
"798 1370 CURVE SMOOTH",
"798 1562 OFFCURVE",
"702 1760 OFFCURVE",
"532 1760 CURVE SMOOTH",
"344 1760 OFFCURVE",
"161 1500 OFFCURVE",
"161 1289 CURVE SMOOTH",
"161 1107 OFFCURVE",
"286 965 OFFCURVE",
"286 829 CURVE SMOOTH",
"286 699 OFFCURVE",
"87 393 OFFCURVE",
"87 225 CURVE SMOOTH",
"87 122 OFFCURVE",
"143 31 OFFCURVE",
"238 -18 CURVE SMOOTH",
"356 -79 OFFCURVE",
"469 -109 OFFCURVE",
"578 -109 CURVE SMOOTH",
"724 -109 OFFCURVE",
"797 -36 OFFCURVE",
"919 -36 CURVE SMOOTH",
"987 -36 OFFCURVE",
"1037 -59 OFFCURVE",
"1136 -112 CURVE SMOOTH",
"1212 -154 OFFCURVE",
"1263 -152 OFFCURVE",
"1334 -172 CURVE",
"1326 -22 OFFCURVE",
"1258 5 OFFCURVE",
"1088 136 CURVE",
"1120 260 OFFCURVE",
"1178 480 OFFCURVE",
"1262 796 CURVE",
"1324 833 OFFCURVE",
"1405 858 OFFCURVE",
"1477 917 CURVE SMOOTH",
"1525 957 OFFCURVE",
"1553 1019 OFFCURVE",
"1558 1102 CURVE",
"1209 869 OFFCURVE",
"1362 930 OFFCURVE",
"950 910 CURVE",
"875 910 OFFCURVE",
"829 848 OFFCURVE",
"848 768 CURVE",
"988 783 OFFCURVE",
"1068 768 OFFCURVE",
"1068 649 CURVE SMOOTH",
"1068 543 OFFCURVE",
"1045 517 OFFCURVE",
"952 258 CURVE",
"591 668 OFFCURVE"
);
},
{
closed = 1;
nodes = (
"675 46 OFFCURVE",
"593 12 OFFCURVE",
"478 48 CURVE SMOOTH",
"217 140 OFFCURVE",
"271 283 OFFCURVE",
"410 594 CURVE",
"514 483.333 OFFCURVE",
"748.667 227.333 OFFCURVE",
"858 106 CURVE"
);
},
{
closed = 1;
nodes = (
"263 1221 OFFCURVE",
"274 1437 OFFCURVE",
"506 1558 CURVE",
"617 1374 OFFCURVE",
"570 1207 OFFCURVE",
"432 1004 CURVE"
);
}
);
width = 1643;
}
);
note = ampersand;
unicode = 0026;
},
{
color = 4;
glyphname = quotesingle;
lastChange = "2019-05-24 00:38:13 +0000";
layers = (
{
layerId = "B32CFD71-CB6A-495B-AD15-7D36F0D81A51";
paths = (
{
closed = 1;
nodes = (
"201 1638 OFFCURVE",
"172 1499 CURVE SMOOTH",
"148 1377 OFFCURVE",
"174 1257 OFFCURVE",
"289 1257 CURVE SMOOTH",
"382 1257 OFFCURVE",
"467 1481 OFFCURVE",
"467 1611 CURVE SMOOTH",
"467 1762 OFFCURVE",
"399 1916 OFFCURVE",
"252 1908 CURVE",
"125 1789 OFFCURVE",
"96 1766 OFFCURVE",
"96 1720 CURVE SMOOTH",
"96 1625 OFFCURVE"
);
}
);
width = 595;
}
);
note = quotesingle;
unicode = 0027;
},
{
glyphname = parenleft;
lastChange = "2019-05-23 17:57:26 +0000";
layers = (
{
layerId = "B32CFD71-CB6A-495B-AD15-7D36F0D81A51";
paths = (
{
closed = 1;
nodes = (
"358.667 1368 OFFCURVE",
"321.333 1299.333 OFFCURVE",
"266 1200 CURVE SMOOTH",
"210 1099.333 OFFCURVE",
"170 1022 OFFCURVE",
"146 968 CURVE SMOOTH",
"106.667 880.667 OFFCURVE",
"87 786 OFFCURVE",
"87 684 CURVE SMOOTH",
"87 522.667 OFFCURVE",
"138.167 361.667 OFFCURVE",
"233.5 227 CURVE SMOOTH",
"281.167 159.667 OFFCURVE",
"338 102.667 OFFCURVE",
"404 56 CURVE SMOOTH",
"456.667 18.667 OFFCURVE",
"509.667 0 OFFCURVE",
"563 0 CURVE SMOOTH",
"617.667 0 OFFCURVE",
"673.333 19.333 OFFCURVE",
"730 58 CURVE",
"724.667 112.667 OFFCURVE",
"699.667 154.667 OFFCURVE",
"655 184 CURVE SMOOTH",
"645 190.667 OFFCURVE",
"627 200.667 OFFCURVE",
"601 214 CURVE",
"579.667 224 OFFCURVE",
"564.667 232 OFFCURVE",
"556 238 CURVE",
"342.667 346.667 OFFCURVE",
"236 481 OFFCURVE",
"236 641 CURVE SMOOTH",
"236 699 OFFCURVE",
"250 759.333 OFFCURVE",
"278 822 CURVE SMOOTH",
"294 858 LINE SMOOTH",
"321.333 919.333 OFFCURVE",
"345.667 973 OFFCURVE",
"367 1019 CURVE SMOOTH",
"414.333 1119.667 OFFCURVE",
"446.667 1183 OFFCURVE",
"464 1209 CURVE",
"466 1211.667 OFFCURVE",
"467.833 1214.5 OFFCURVE",
"469.5 1217.5 CURVE SMOOTH",
"471.167 1220.5 OFFCURVE",
"473.333 1223.667 OFFCURVE",
"476 1227 CURVE",
"525.333 1303.667 OFFCURVE",
"562.333 1355.333 OFFCURVE",
"587 1382 CURVE SMOOTH",
"642.333 1442.667 OFFCURVE",
"696 1491.333 OFFCURVE",
"748 1528 CURVE SMOOTH",
"786 1554 OFFCURVE",
"805 1583.333 OFFCURVE",
"805 1616 CURVE SMOOTH",
"805 1644 OFFCURVE",
"792 1673.333 OFFCURVE",
"766 1704 CURVE",
"576.667 1633.333 OFFCURVE",
"455.333 1555.333 OFFCURVE",
"378 1406 CURVE SMOOTH"
);
}
);
width = 891;
}
);
note = parenleft;
unicode = 0028;
},
{
glyphname = parenright;
lastChange = "2019-05-23 17:57:26 +0000";
layers = (
{
layerId = "B32CFD71-CB6A-495B-AD15-7D36F0D81A51";
paths = (
{
closed = 1;
nodes = (
"535.333 1356.667 OFFCURVE",
"596 1175.333 OFFCURVE",
"596 990 CURVE SMOOTH",
"596 928.667 OFFCURVE",
"589 866.333 OFFCURVE",
"575 803 CURVE SMOOTH",
"546.333 675 OFFCURVE",
"485.333 559.333 OFFCURVE",
"392 456 CURVE SMOOTH",
"334 390.667 OFFCURVE",
"263.333 303.333 OFFCURVE",
"180 194 CURVE SMOOTH",
"170.667 182 OFFCURVE",
"144.667 148 OFFCURVE",
"102 92 CURVE SMOOTH",
"86 72 LINE",
"124 24 OFFCURVE",
"161.333 0 OFFCURVE",
"198 0 CURVE SMOOTH",
"227.333 0 OFFCURVE",
"258 15.333 OFFCURVE",
"290 46 CURVE SMOOTH",
"316 70 OFFCURVE",
"358.667 107 OFFCURVE",
"418 157 CURVE SMOOTH",
"460.667 193 OFFCURVE",
"500 227.333 OFFCURVE",
"536 260 CURVE SMOOTH",
"688.667 396 OFFCURVE",
"784.667 584.667 OFFCURVE",
"824 826 CURVE",
"825.333 838 OFFCURVE",
"826 848 OFFCURVE",
"826 856 CURVE SMOOTH",
"826 896 OFFCURVE",
"816.667 948 OFFCURVE",
"798 1012 CURVE SMOOTH",
"794.667 1024 OFFCURVE",
"776.333 1074.333 OFFCURVE",
"743 1163 CURVE SMOOTH",
"711 1247.667 OFFCURVE",
"692.667 1311.333 OFFCURVE",
"688 1354 CURVE SMOOTH",
"665.333 1535.333 OFFCURVE",
"573.333 1668.667 OFFCURVE",
"408 1790 CURVE SMOOTH",
"358.667 1824.667 OFFCURVE",
"328.667 1841 OFFCURVE",
"302 1841 CURVE SMOOTH",
"282.667 1841 OFFCURVE",
"264 1831.5 OFFCURVE",
"246 1812.5 CURVE SMOOTH",
"228 1793.5 OFFCURVE",
"206 1761.333 OFFCURVE",
"180 1716 CURVE",
"197.333 1703.333 OFFCURVE",
"222.333 1686.333 OFFCURVE",
"255 1665 CURVE SMOOTH",
"304.333 1632.333 OFFCURVE",
"338 1609 OFFCURVE",
"356 1595 CURVE SMOOTH",
"378 1577.667 OFFCURVE",
"397.333 1557.333 OFFCURVE",
"414 1534 CURVE SMOOTH"
);
}
);
width = 911;
}
);
note = parenright;
unicode = 0029;
},
{
glyphname = asterisk;
lastChange = "2019-05-23 17:57:26 +0000";
layers = (
{
layerId = "B32CFD71-CB6A-495B-AD15-7D36F0D81A51";
paths = (
{
closed = 1;
nodes = (
"230 966 LINE",
"436 1048 LINE",
"436 1048 OFFCURVE",
"441 1036.333 OFFCURVE",
"451 1013 CURVE SMOOTH",
"472.333 962.333 OFFCURVE",
"485 933.333 OFFCURVE",
"501 920 CURVE",
"527.667 896 OFFCURVE",
"545.333 889 OFFCURVE",
"576 889 CURVE",
"604 890 LINE",
"613.333 891.333 OFFCURVE",
"621.333 892 OFFCURVE",
"628 892 CURVE",
"639.333 948 OFFCURVE",
"652 1014.667 OFFCURVE",
"666 1092 CURVE",
"706 1076 OFFCURVE",
"842 1031.333 OFFCURVE",
"874 1026 CURVE",
"876 1025.333 OFFCURVE",
"879.333 1025 OFFCURVE",
"884 1025 CURVE SMOOTH",
"909.333 1025 OFFCURVE",
"942 1039.333 OFFCURVE",
"954 1058 CURVE",
"958.667 1066.667 OFFCURVE",
"961 1079 OFFCURVE",
"961 1095 CURVE SMOOTH",
"961 1115.667 OFFCURVE",
"956.667 1132.667 OFFCURVE",
"948 1146 CURVE",
"941.333 1157.333 OFFCURVE",
"926.333 1171.667 OFFCURVE",
"903 1189 CURVE SMOOTH",
"882 1204 LINE",
"864 1218 LINE SMOOTH",
"858.667 1222 OFFCURVE",
"838.333 1240.667 OFFCURVE",
"803 1274 CURVE SMOOTH",
"724 1348 LINE",
"978 1398 LINE",
"1182 1438 LINE",
"1183.333 1452.667 OFFCURVE",
"1184 1469.333 OFFCURVE",
"1184 1488 CURVE",
"1132.667 1485.333 OFFCURVE",
"1070.667 1497 OFFCURVE",
"998 1523 CURVE SMOOTH",
"964.667 1535 OFFCURVE",
"934.333 1544.667 OFFCURVE",
"907 1552 CURVE SMOOTH",
"849.667 1568 OFFCURVE",
"808.667 1576 OFFCURVE",
"762 1576 CURVE SMOOTH",
"746 1576 OFFCURVE",
"729 1575 OFFCURVE",
"711 1573 CURVE SMOOTH",
"673 1567.667 OFFCURVE",
"636.667 1556 OFFCURVE",
"602 1538 CURVE",
"690 1754 LINE",
"662 1771.333 OFFCURVE",
"632.333 1788.667 OFFCURVE",
"601 1806 CURVE SMOOTH",
"520 1852 LINE",
"501.333 1814.667 OFFCURVE",
"470.333 1777.667 OFFCURVE",
"421 1723 CURVE SMOOTH",
"389.667 1687.667 OFFCURVE",
"368 1661.667 OFFCURVE",
"356 1645 CURVE SMOOTH",
"328 1603.667 OFFCURVE",
"314 1564.667 OFFCURVE",
"314 1518 CURVE SMOOTH",
"314 1494.667 OFFCURVE",
"316.667 1472 OFFCURVE",
"322 1450 CURVE",
"217.333 1443.333 OFFCURVE",
"140.667 1438 OFFCURVE",
"92 1434 CURVE",
"88 1417.333 OFFCURVE",
"86 1402.333 OFFCURVE",
"86 1389 CURVE SMOOTH",
"86 1339.667 OFFCURVE",
"109.333 1309 OFFCURVE",
"144 1301 CURVE SMOOTH",
"154 1298.333 OFFCURVE",
"162.667 1296.667 OFFCURVE",
"170 1296 CURVE",
"218 1286.667 OFFCURVE",
"250 1278 OFFCURVE",
"266 1262 CURVE"
);
}
);
width = 1269;
}
);
note = asterisk;
unicode = 002A;
},
{
glyphname = plus;
lastChange = "2019-05-23 17:57:26 +0000";
layers = (
{
layerId = "B32CFD71-CB6A-495B-AD15-7D36F0D81A51";
paths = (
{
closed = 1;
nodes = (
"866.667 956 OFFCURVE",
"868 965 OFFCURVE",
"868 975 CURVE SMOOTH",
"868 997.667 OFFCURVE",
"859.333 1021.333 OFFCURVE",
"842 1046 CURVE",
"839.333 1050.667 OFFCURVE",
"831.333 1053 OFFCURVE",
"818 1053 CURVE SMOOTH",
"796.667 1053 OFFCURVE",
"770 1045.333 OFFCURVE",
"758 1036 CURVE",
"690.667 968.667 OFFCURVE",
"642.667 911.333 OFFCURVE",
"614 864 CURVE SMOOTH",
"588.667 820 OFFCURVE",
"564.667 752.667 OFFCURVE",
"530 650 CURVE SMOOTH",
"500.667 571.333 OFFCURVE",
"456.667 536 OFFCURVE",
"374 536 CURVE SMOOTH",
"324 537.333 OFFCURVE",
"256 524 OFFCURVE",
"170 496 CURVE",
"162.667 494.667 OFFCURVE",
"154.667 489.167 OFFCURVE",
"146 479.5 CURVE SMOOTH",
"137.333 469.833 OFFCURVE",
"126.333 456 OFFCURVE",
"113 438 CURVE SMOOTH",
"99 420 OFFCURVE",
"90 408.667 OFFCURVE",
"86 404 CURVE",
"448 404 LINE",
"425.333 256.667 OFFCURVE",
"413.333 176.667 OFFCURVE",
"412 164 CURVE SMOOTH",
"410.667 148 OFFCURVE",
"410 136.667 OFFCURVE",
"410 130 CURVE SMOOTH",
"410 51.333 OFFCURVE",
"440.667 8 OFFCURVE",
"502 0 CURVE",
"578.383 -4.129 OFFCURVE",
"597.311 43.705 OFFCURVE",
"612 130 CURVE",
"621.333 171.333 OFFCURVE",
"637 231 OFFCURVE",
"659 309 CURVE SMOOTH",
"665 332 LINE SMOOTH",
"677 376.667 OFFCURVE",
"684.667 407.333 OFFCURVE",
"688 424 CURVE",
"748 434 OFFCURVE",
"789.333 441.333 OFFCURVE",
"812 446 CURVE",
"1008 470 LINE SMOOTH",
"1033.333 473.333 OFFCURVE",
"1062.667 478 OFFCURVE",
"1096 484 CURVE",
"1120 489.333 OFFCURVE",
"1153.333 522.667 OFFCURVE",
"1156 544 CURVE",
"1156 565.333 OFFCURVE",
"1124 600.667 OFFCURVE",
"1100 606 CURVE",
"1080 612.667 OFFCURVE",
"1053 616 OFFCURVE",
"1019 616 CURVE SMOOTH",
"1010.333 616 OFFCURVE",
"994.667 615.333 OFFCURVE",
"972 614 CURVE",
"960.667 614 OFFCURVE",
"886.667 606 OFFCURVE",
"750 590 CURVE",
"816.667 795.333 OFFCURVE",
"854.667 914.667 OFFCURVE",
"864 948 CURVE"
);
}
);
width = 1241;
}
);
note = plus;
unicode = 002B;
},
{
glyphname = comma;
lastChange = "2019-05-23 17:57:26 +0000";
layers = (
{
layerId = "B32CFD71-CB6A-495B-AD15-7D36F0D81A51";
paths = (
{
closed = 1;
nodes = (
"337.333 85.333 OFFCURVE",
"347 67.667 OFFCURVE",
"347 41 CURVE SMOOTH",
"347 25 OFFCURVE",
"342 -0.667 OFFCURVE",
"332 -36 CURVE",
"322.667 -74.667 OFFCURVE",
"318 -108.333 OFFCURVE",
"318 -137 CURVE SMOOTH",
"318 -203.667 OFFCURVE",
"340 -252.667 OFFCURVE",
"380 -274 CURVE SMOOTH",
"407.333 -288 OFFCURVE",
"430 -295 OFFCURVE",
"448 -295 CURVE SMOOTH",
"484 -295 OFFCURVE",
"513.333 -270 OFFCURVE",
"552 -210 CURVE SMOOTH",
"616.667 -111.333 OFFCURVE",
"649 -10.667 OFFCURVE",
"649 92 CURVE SMOOTH",
"649 161.333 OFFCURVE",
"634.667 230 OFFCURVE",
"606 298 CURVE SMOOTH",
"591.994 328.347 OFFCURVE",
"479.755 388 OFFCURVE",
"440 388 CURVE",
"350 314 LINE SMOOTH",
"291.333 263.333 OFFCURVE",
"266 230.333 OFFCURVE",
"266 197 CURVE SMOOTH",
"266 171.667 OFFCURVE",
"280 145.333 OFFCURVE",
"312 112 CURVE SMOOTH"
);
}
);
width = 735;
}
);
note = comma;
unicode = 002C;
},
{
glyphname = hyphen;
lastChange = "2019-05-23 17:57:26 +0000";
layers = (
{
layerId = "B32CFD71-CB6A-495B-AD15-7D36F0D81A51";
paths = (
{
closed = 1;
nodes = (
"530 529.333 OFFCURVE",
"764 520 OFFCURVE",
"948 516 CURVE SMOOTH",
"972 516 OFFCURVE",
"989.667 522.333 OFFCURVE",
"1019 537 CURVE SMOOTH",
"1039 546.333 OFFCURVE",
"1054.667 552.667 OFFCURVE",
"1066 556 CURVE",
"1042 610.667 OFFCURVE",
"1011.667 638.333 OFFCURVE",
"969 645 CURVE",
"882 652 LINE",
"824 654 OFFCURVE",
"742.667 655.667 OFFCURVE",
"638 657 CURVE SMOOTH",
"524 660 LINE",
"86 684 LINE",
"106 585.333 OFFCURVE",
"155.333 549.333 OFFCURVE",
"246 544 CURVE SMOOTH"
);
}
);
width = 1149;
}
);
note = hyphen;
unicode = 002D;
},
{
glyphname = period;
lastChange = "2019-05-23 17:57:26 +0000";
layers = (
{
layerId = "B32CFD71-CB6A-495B-AD15-7D36F0D81A51";
paths = (
{
closed = 1;
nodes = (
"254.667 93.333 OFFCURVE",
"264 74.667 OFFCURVE",
"264 46 CURVE SMOOTH",
"264 14.667 OFFCURVE",
"305.333 -1 OFFCURVE",
"388 -1 CURVE SMOOTH",
"452 -1 OFFCURVE",
"488.833 13.833 OFFCURVE",
"517.5 50.5 CURVE SMOOTH",
"531.833 68.833 OFFCURVE",
"547.333 96 OFFCURVE",
"564 132 CURVE",
"574 157.333 OFFCURVE",
"581 176.5 OFFCURVE",
"585 189.5 CURVE SMOOTH",
"589 202.5 OFFCURVE",
"591 213.333 OFFCURVE",
"591 222 CURVE SMOOTH",
"591 235.333 OFFCURVE",
"586.167 246.333 OFFCURVE",
"576.5 255 CURVE SMOOTH",
"566.833 263.667 OFFCURVE",
"548.667 275.333 OFFCURVE",
"522 290 CURVE",
"478 311.333 OFFCURVE",
"426.667 324 OFFCURVE",
"380 324 CURVE SMOOTH",
"337.333 324 OFFCURVE",
"305.333 314.667 OFFCURVE",
"284 296 CURVE",
"250.667 272 OFFCURVE",
"224 195.667 OFFCURVE",
"224 141 CURVE SMOOTH",
"224 120.333 OFFCURVE",
"228 107.333 OFFCURVE",
"236 102 CURVE"
);
}
);
width = 741;
}
);
note = period;
unicode = 002E;
},
{
glyphname = slash;
lastChange = "2019-05-23 17:57:26 +0000";
layers = (
{
layerId = "B32CFD71-CB6A-495B-AD15-7D36F0D81A51";
paths = (
{
closed = 1;
nodes = (
"1387.333 2018 OFFCURVE",
"1366.667 2009.667 OFFCURVE",
"1352 1993 CURVE SMOOTH",
"1336.667 1975 OFFCURVE",
"1316.667 1939.333 OFFCURVE",
"1292 1886 CURVE SMOOTH",
"1272 1841.333 OFFCURVE",
"1253 1808.167 OFFCURVE",
"1235 1786.5 CURVE SMOOTH",
"1217 1764.833 OFFCURVE",
"1198.667 1754 OFFCURVE",
"1180 1754 CURVE SMOOTH",
"1161.333 1754 OFFCURVE",
"1140.667 1764.667 OFFCURVE",
"1118 1786 CURVE SMOOTH",
"1109.333 1794 OFFCURVE",
"1104 1798 OFFCURVE",
"1102 1798 CURVE SMOOTH",
"1101.333 1798 OFFCURVE",
"1101 1797.667 OFFCURVE",
"1101 1797 CURVE SMOOTH",
"1101 1791 OFFCURVE",
"1105.333 1774.667 OFFCURVE",
"1114 1748 CURVE",
"1128.667 1708 OFFCURVE",
"1136 1678 OFFCURVE",
"1136 1658 CURVE SMOOTH",
"1136 1624.667 OFFCURVE",
"1121.333 1593.333 OFFCURVE",
"1080 1532 CURVE SMOOTH",
"1040 1476 OFFCURVE",
"1020 1423.333 OFFCURVE",
"1020 1374 CURVE SMOOTH",
"1020 1351.333 OFFCURVE",
"1012 1319.333 OFFCURVE",
"996 1278 CURVE SMOOTH",
"978.667 1233.333 OFFCURVE",
"949.333 1171.667 OFFCURVE",
"908 1093 CURVE",
"952 1179 LINE",
"908 1093 LINE SMOOTH",
"848.667 979 OFFCURVE",
"781.333 852 OFFCURVE",
"706 712 CURVE SMOOTH",
"680 660 OFFCURVE",
"604 537.333 OFFCURVE",
"478 344 CURVE SMOOTH",
"284 48 OFFCURVE",
"161.333 -191.333 OFFCURVE",
"110 -374 CURVE SMOOTH",
"94 -428.667 OFFCURVE",
"87 -455.667 OFFCURVE",
"87 -477 CURVE SMOOTH",
"87 -503.667 OFFCURVE",
"96 -518.667 OFFCURVE",
"124 -556 CURVE SMOOTH",
"156 -596 OFFCURVE",
"185 -616 OFFCURVE",
"211 -616 CURVE SMOOTH",
"251 -616 OFFCURVE",
"278.667 -570.667 OFFCURVE",
"292 -484 CURVE SMOOTH",
"309.333 -384 OFFCURVE",
"381.5 -211.667 OFFCURVE",
"483.5 -25 CURVE SMOOTH",
"534.5 68.333 OFFCURVE",
"588.667 157.333 OFFCURVE",
"646 242 CURVE SMOOTH",
"735.333 376.667 OFFCURVE",
"880.667 616.167 OFFCURVE",
"974 783.5 CURVE",
"872.167 605.5 OFFCURVE",
"927.333 699.833 OFFCURVE",
"974 783.5 CURVE SMOOTH",
"1020.667 867.167 OFFCURVE",
"1044 914 OFFCURVE",
"1044 924 CURVE SMOOTH",
"1044 934 OFFCURVE",
"1088.667 1022.667 OFFCURVE",
"1178 1190 CURVE SMOOTH",
"1246 1309.333 OFFCURVE",
"1301.333 1411.333 OFFCURVE",
"1344 1496 CURVE SMOOTH",
"1368 1540 OFFCURVE",
"1394.667 1574.667 OFFCURVE",
"1424 1600 CURVE SMOOTH",
"1456 1629.333 OFFCURVE",
"1472 1654 OFFCURVE",
"1472 1674 CURVE SMOOTH",
"1472 1686.667 OFFCURVE",
"1495.333 1726.333 OFFCURVE",
"1542 1793 CURVE SMOOTH",
"1588.667 1859.667 OFFCURVE",
"1612 1900 OFFCURVE",
"1612 1914 CURVE SMOOTH",
"1612 1939.333 OFFCURVE",
"1560.667 1977.167 OFFCURVE",
"1498 2000.5 CURVE SMOOTH",
"1466.667 2012.167 OFFCURVE",
"1438.667 2018 OFFCURVE",
"1414 2018 CURVE SMOOTH"
);
}
);
width = 1697;
}
);
note = slash;
unicode = 002F;
},
{
glyphname = zero;
lastChange = "2019-05-23 17:57:26 +0000";
layers = (
{
layerId = "B32CFD71-CB6A-495B-AD15-7D36F0D81A51";
paths = (
{
closed = 1;
nodes = (
"523.333 1472 OFFCURVE",
"504 1439.333 OFFCURVE",
"478 1404 CURVE",
"447.333 1365.333 OFFCURVE",
"432 1340 OFFCURVE",
"432 1328 CURVE SMOOTH",
"432 1318 OFFCURVE",
"412.667 1286.667 OFFCURVE",
"374 1234 CURVE SMOOTH",
"334.667 1182.667 OFFCURVE",
"310.667 1137.333 OFFCURVE",
"302 1098 CURVE",
"297.333 1064.667 OFFCURVE",
"288.667 1038 OFFCURVE",
"276 1018 CURVE",
"267.333 1008.667 OFFCURVE",
"252.667 968 OFFCURVE",
"232 896 CURVE SMOOTH",
"210.667 824.667 OFFCURVE",
"194.667 764.667 OFFCURVE",
"184 716 CURVE",
"180 685.333 OFFCURVE",
"172 656 OFFCURVE",
"160 628 CURVE SMOOTH",
"117.333 528 OFFCURVE",
"87 316.667 OFFCURVE",
"87 154 CURVE SMOOTH",
"87 94 OFFCURVE",
"90.667 49.333 OFFCURVE",
"98 20 CURVE SMOOTH",
"123.333 -72 OFFCURVE",
"190.667 -118 OFFCURVE",
"300 -118 CURVE SMOOTH",
"321.333 -118 OFFCURVE",
"341.333 -116.667 OFFCURVE",
"360 -114 CURVE SMOOTH",
"430 -105.333 OFFCURVE",
"474.667 -91.333 OFFCURVE",
"494 -72 CURVE",
"506.667 -53.333 OFFCURVE",
"521.333 -44 OFFCURVE",
"538 -44 CURVE SMOOTH",
"563.333 -44 OFFCURVE",
"601 -5 OFFCURVE",
"651 73 CURVE SMOOTH",
"700.333 149.667 OFFCURVE",
"744.667 238.667 OFFCURVE",
"784 340 CURVE",
"798.667 382.667 OFFCURVE",
"820 402 OFFCURVE",
"848 398 CURVE",
"876 397.333 OFFCURVE",
"891.333 408.667 OFFCURVE",
"894 432 CURVE",
"896 439.333 OFFCURVE",
"897 444.667 OFFCURVE",
"897 448 CURVE SMOOTH",
"897 456.667 OFFCURVE",
"893 461 OFFCURVE",
"885 461 CURVE SMOOTH",
"881 461 OFFCURVE",
"873.333 459.333 OFFCURVE",
"862 456 CURVE",
"859.333 455.333 OFFCURVE",
"855 455 OFFCURVE",
"849 455 CURVE SMOOTH",
"815.667 455 OFFCURVE",
"791 485.333 OFFCURVE",
"791 524 CURVE SMOOTH",
"791 532.667 OFFCURVE",
"792.667 542.667 OFFCURVE",
"796 554 CURVE SMOOTH",
"818.667 624.667 OFFCURVE",
"903.333 845.333 OFFCURVE",
"922 876 CURVE",
"930.667 893.333 OFFCURVE",
"939.333 923.333 OFFCURVE",
"948 966 CURVE SMOOTH",
"957.333 1014 OFFCURVE",
"965.333 1063.333 OFFCURVE",
"972 1114 CURVE SMOOTH",
"980.667 1172 OFFCURVE",
"985.333 1218 OFFCURVE",
"986 1252 CURVE",
"990 1317.333 OFFCURVE",
"1000 1383.333 OFFCURVE",
"1016 1450 CURVE SMOOTH",
"1026.667 1491.333 OFFCURVE",
"1032 1523 OFFCURVE",
"1032 1545 CURVE SMOOTH",
"1032 1590.333 OFFCURVE",
"1012.667 1614.667 OFFCURVE",
"966 1632 CURVE SMOOTH",
"938 1642 OFFCURVE",
"910.333 1647 OFFCURVE",
"883 1647 CURVE SMOOTH",
"820.333 1647 OFFCURVE",
"749.333 1629.333 OFFCURVE",
"670 1594 CURVE",
"590 1554 OFFCURVE",
"545.333 1523.333 OFFCURVE",
"536 1502 CURVE SMOOTH"
);
},
{
closed = 1;
nodes = (
"758 1290 OFFCURVE",
"764 1276 OFFCURVE",
"768 1264 CURVE",
"770.667 1254 OFFCURVE",
"772 1240 OFFCURVE",
"772 1222 CURVE SMOOTH",
"772 1203.333 OFFCURVE",
"768.667 1184 OFFCURVE",
"762 1164 CURVE",
"748.667 1114 OFFCURVE",
"742 1066 OFFCURVE",
"742 1020 CURVE SMOOTH",
"742 972 OFFCURVE",
"727.333 891.333 OFFCURVE",
"698 778 CURVE SMOOTH",
"685.333 730.667 OFFCURVE",
"662.667 644.667 OFFCURVE",
"630 520 CURVE SMOOTH",
"618 472 LINE SMOOTH",
"586 334.667 OFFCURVE",
"509.333 195.333 OFFCURVE",
"424 114 CURVE SMOOTH",
"398.667 89.333 OFFCURVE",
"368.333 77 OFFCURVE",
"333 77 CURVE SMOOTH",
"325 77 OFFCURVE",
"318.667 77.333 OFFCURVE",
"314 78 CURVE",
"248 82 LINE",
"254 200 LINE SMOOTH",
"261.333 340.667 OFFCURVE",
"307.333 555.333 OFFCURVE",
"392 844 CURVE SMOOTH",
"418.667 930.667 OFFCURVE",
"432 982 OFFCURVE",
"432 998 CURVE SMOOTH",
"432 1008.667 OFFCURVE",
"470 1064 OFFCURVE",
"546 1164 CURVE SMOOTH",
"620.667 1258 OFFCURVE",
"662 1318 OFFCURVE",
"670 1344 CURVE",
"678 1366.667 OFFCURVE",
"689.333 1378 OFFCURVE",
"704 1378 CURVE SMOOTH",
"718.667 1378 OFFCURVE",
"730 1366.667 OFFCURVE",
"738 1344 CURVE",
"739.333 1334.667 OFFCURVE",
"743.333 1322 OFFCURVE",
"750 1306 CURVE"
);
}
);
width = 1117;
}
);
note = zero;
unicode = 0030;
},
{
glyphname = one;
lastChange = "2019-05-23 17:57:26 +0000";
layers = (
{
layerId = "B32CFD71-CB6A-495B-AD15-7D36F0D81A51";
paths = (
{
closed = 1;
nodes = (
"352 1568 LINE",
"354 1557.333 OFFCURVE",
"355 1547.667 OFFCURVE",
"355 1539 CURVE SMOOTH",
"355 1505.667 OFFCURVE",
"342.333 1490.333 OFFCURVE",
"313 1465 CURVE SMOOTH",
"291.667 1446.333 OFFCURVE",
"277.333 1432 OFFCURVE",
"264 1408 CURVE SMOOTH",
"256.667 1395.333 OFFCURVE",
"253 1378 OFFCURVE",
"253 1356 CURVE SMOOTH",
"253 1335.333 OFFCURVE",
"256.667 1308 OFFCURVE",
"264 1274 CURVE",
"268 1272 OFFCURVE",
"272 1271 OFFCURVE",
"276 1271 CURVE SMOOTH",
"288.667 1271 OFFCURVE",
"305.333 1277.667 OFFCURVE",
"326 1291 CURVE SMOOTH",
"354 1309 OFFCURVE",
"372.667 1318 OFFCURVE",
"382 1318 CURVE SMOOTH",
"404.667 1318.667 OFFCURVE",
"478 1345.333 OFFCURVE",
"602 1398 CURVE",
"564.667 1270.667 OFFCURVE",
"494.333 1066.667 OFFCURVE",
"391 786 CURVE SMOOTH",
"285.667 500.667 OFFCURVE",
"214.667 294.667 OFFCURVE",
"178 168 CURVE SMOOTH",
"151.333 85.333 OFFCURVE",
"112.667 -41.333 OFFCURVE",
"86 -136 CURVE",
"117 -145 LINE SMOOTH",
"173 -162.333 OFFCURVE",
"208.333 -172 OFFCURVE",
"243 -172 CURVE SMOOTH",
"281 -172 OFFCURVE",
"304.667 -158 OFFCURVE",
"314 -130 CURVE",
"321.333 -112.667 OFFCURVE",
"335.333 -70 OFFCURVE",
"356 -2 CURVE SMOOTH",
"398.667 127.333 OFFCURVE",
"432.667 228 OFFCURVE",
"458 300 CURVE SMOOTH",
"462.667 313.333 OFFCURVE",
"476 347.333 OFFCURVE",
"498 402 CURVE",
"502.667 399.333 OFFCURVE",
"507.667 398 OFFCURVE",
"513 398 CURVE SMOOTH",
"521.667 398 OFFCURVE",
"528.667 401.667 OFFCURVE",
"534 409 CURVE",
"538 415 OFFCURVE",
"542 423.667 OFFCURVE",
"546 435 CURVE",
"550 452.333 OFFCURVE",
"554.667 480 OFFCURVE",
"556 496 CURVE",
"564 545.333 OFFCURVE",
"585.667 617.333 OFFCURVE",
"621 712 CURVE SMOOTH",
"633 744.667 OFFCURVE",
"639.333 762 OFFCURVE",
"640 764 CURVE",
"664.667 827.333 OFFCURVE",
"678.667 864.667 OFFCURVE",
"682 876 CURVE SMOOTH",
"722 1002 LINE SMOOTH",
"753.333 1098.667 OFFCURVE",
"773 1160 OFFCURVE",
"781 1186 CURVE SMOOTH",
"809 1278 OFFCURVE",
"836 1420.667 OFFCURVE",
"836 1498 CURVE",
"833.333 1546 OFFCURVE",
"824 1598.667 OFFCURVE",
"816 1644 CURVE SMOOTH",
"811.333 1669.333 OFFCURVE",
"808.667 1694.667 OFFCURVE",
"808 1720 CURVE",
"728.667 1686.667 OFFCURVE",
"608 1646 OFFCURVE",
"446 1598 CURVE SMOOTH"
);
}
);
width = 921;
}
);
note = one;
unicode = 0031;
},
{
glyphname = two;
lastChange = "2019-05-23 17:57:26 +0000";
layers = (
{
layerId = "B32CFD71-CB6A-495B-AD15-7D36F0D81A51";
paths = (
{
closed = 1;
nodes = (
"1002 1575.333 OFFCURVE",
"932 1534.667 OFFCURVE",
"882 1498 CURVE SMOOTH",
"826 1456 OFFCURVE",
"759.333 1395.333 OFFCURVE",
"682 1316 CURVE SMOOTH",
"544 1168 LINE",
"586 1124 LINE SMOOTH",
"612.667 1095.333 OFFCURVE",
"637.333 1081 OFFCURVE",
"660 1081 CURVE SMOOTH",
"678 1081 OFFCURVE",
"697.833 1088.833 OFFCURVE",
"719.5 1104.5 CURVE SMOOTH",
"741.167 1120.167 OFFCURVE",
"768.667 1146 OFFCURVE",
"802 1182 CURVE SMOOTH",
"858 1246 OFFCURVE",
"889.167 1275.333 OFFCURVE",
"928.5 1294 CURVE SMOOTH",
"948.167 1303.333 OFFCURVE",
"974 1312 OFFCURVE",
"1006 1320 CURVE SMOOTH",
"1074.667 1338.667 OFFCURVE",
"1126 1348 OFFCURVE",
"1160 1348 CURVE SMOOTH",
"1198 1348 OFFCURVE",
"1221.333 1332.667 OFFCURVE",
"1230 1302 CURVE SMOOTH",
"1233.333 1289.333 OFFCURVE",
"1235 1273 OFFCURVE",
"1235 1253 CURVE SMOOTH",
"1231.667 1129 OFFCURVE",
"1129.333 936.667 OFFCURVE",
"928 676 CURVE SMOOTH",
"840.667 562.667 OFFCURVE",
"785.333 489.333 OFFCURVE",
"762 456 CURVE SMOOTH",
"676.667 333.333 OFFCURVE",
"555.333 210 OFFCURVE",
"478 170 CURVE SMOOTH",
"433.333 146 OFFCURVE",
"369.333 135.333 OFFCURVE",
"286 138 CURVE SMOOTH",
"253 139 LINE SMOOTH",
"185 139 OFFCURVE",
"156 130.667 OFFCURVE",
"128 104 CURVE SMOOTH",
"100 76 OFFCURVE",
"86 49.333 OFFCURVE",
"86 24 CURVE SMOOTH",
"86 -11.333 OFFCURVE",
"114 -44 OFFCURVE",
"170 -74 CURVE SMOOTH",
"212.667 -95.333 OFFCURVE",
"259 -106 OFFCURVE",
"309 -106 CURVE SMOOTH",
"371.667 -106 OFFCURVE",
"443.333 -88.667 OFFCURVE",
"524 -54 CURVE SMOOTH",
"574 -32 OFFCURVE",
"617.667 -21 OFFCURVE",
"655 -21 CURVE SMOOTH",
"667.667 -21 OFFCURVE",
"679.333 -22 OFFCURVE",
"690 -24 CURVE",
"700.667 -24.667 OFFCURVE",
"719.333 -27.333 OFFCURVE",
"746 -32 CURVE SMOOTH",
"802 -40 LINE",
"814 -40.667 OFFCURVE",
"829.333 -43.333 OFFCURVE",
"848 -48 CURVE SMOOTH",
"890.667 -57.333 OFFCURVE",
"922 -68.667 OFFCURVE",
"942 -82 CURVE",
"968 -98 OFFCURVE",
"999 -106 OFFCURVE",
"1035 -106 CURVE SMOOTH",
"1053.667 -106 OFFCURVE",
"1073.333 -104 OFFCURVE",
"1094 -100 CURVE",
"1128.667 -94.667 OFFCURVE",
"1172.667 -92.333 OFFCURVE",
"1210 -91 CURVE SMOOTH",
"1290 -88.333 OFFCURVE",
"1324 -85 OFFCURVE",
"1352 -65 CURVE SMOOTH",
"1380 -44.333 OFFCURVE",
"1394 -20 OFFCURVE",
"1394 8 CURVE SMOOTH",
"1394 58.529 OFFCURVE",
"1306.247 110 OFFCURVE",
"1240 110 CURVE SMOOTH",
"1214.667 110 OFFCURVE",
"1156 108 OFFCURVE",
"1064 104 CURVE SMOOTH",
"1002 103 LINE SMOOTH",
"964 103 OFFCURVE",
"932 104 OFFCURVE",
"906 106 CURVE",
"834.667 114 OFFCURVE",
"799 131.333 OFFCURVE",
"799 158 CURVE SMOOTH",
"799 172 OFFCURVE",
"808 188 OFFCURVE",
"826 206 CURVE",
"854 238 OFFCURVE",
"868 258.667 OFFCURVE",
"868 268 CURVE SMOOTH",
"868 288 OFFCURVE",
"940 378 OFFCURVE",
"1084 538 CURVE SMOOTH",
"1171.333 638.667 OFFCURVE",
"1263.333 773.333 OFFCURVE",
"1360 942 CURVE SMOOTH",
"1392 999.333 OFFCURVE",
"1425.333 1040 OFFCURVE",
"1460 1064 CURVE",
"1488 1081.333 OFFCURVE",
"1497 1094.333 OFFCURVE",
"1497 1117 CURVE SMOOTH",
"1497 1125.667 OFFCURVE",
"1495.333 1139.333 OFFCURVE",
"1492 1158 CURVE",
"1482 1195.333 OFFCURVE",
"1477 1238.333 OFFCURVE",
"1477 1287 CURVE SMOOTH",
"1478 1320 LINE",
"1478.667 1329.333 OFFCURVE",
"1479 1343.333 OFFCURVE",
"1479 1362 CURVE SMOOTH",
"1479 1486 OFFCURVE",
"1441 1585.833 OFFCURVE",
"1377 1638.5 CURVE SMOOTH",
"1345 1664.833 OFFCURVE",
"1308.667 1678 OFFCURVE",
"1268 1678 CURVE SMOOTH",
"1245.333 1678 OFFCURVE",
"1222.667 1674 OFFCURVE",
"1200 1666 CURVE",
"1188.667 1662.667 OFFCURVE",
"1152.667 1647.333 OFFCURVE",
"1092 1620 CURVE"
);
}
);
width = 1583;
}
);
note = two;
unicode = 0032;
},
{
glyphname = three;
lastChange = "2019-05-23 17:57:26 +0000";
layers = (
{
layerId = "B32CFD71-CB6A-495B-AD15-7D36F0D81A51";
paths = (
{
closed = 1;
nodes = (
"993.333 824 OFFCURVE",
"972 840 OFFCURVE",
"972 852 CURVE SMOOTH",
"972 860.667 OFFCURVE",
"1005.333 897.333 OFFCURVE",
"1072 962 CURVE SMOOTH",
"1185.333 1072.667 OFFCURVE",
"1228 1139.333 OFFCURVE",
"1228 1214 CURVE SMOOTH",
"1228 1249.333 OFFCURVE",
"1233.333 1278 OFFCURVE",
"1244 1300 CURVE",
"1254.667 1320 OFFCURVE",
"1264.667 1366.667 OFFCURVE",
"1274 1440 CURVE SMOOTH",
"1279.333 1478.667 OFFCURVE",
"1282 1504.667 OFFCURVE",
"1282 1518 CURVE SMOOTH",
"1282 1552.667 OFFCURVE",
"1272.667 1559.333 OFFCURVE",
"1222 1590 CURVE SMOOTH",
"1172.667 1619.333 OFFCURVE",
"1050 1642 OFFCURVE",
"954 1642 CURVE SMOOTH",
"923.333 1642 OFFCURVE",
"896.667 1639.333 OFFCURVE",
"874 1634 CURVE",
"836.667 1622.667 OFFCURVE",
"707.333 1565.333 OFFCURVE",
"486 1462 CURVE SMOOTH",
"398 1422 OFFCURVE",
"332 1346 OFFCURVE",
"332 1282 CURVE SMOOTH",
"332 1232.667 OFFCURVE",
"347.333 1207 OFFCURVE",
"386 1195 CURVE SMOOTH",
"406 1189 OFFCURVE",
"434 1186 OFFCURVE",
"470 1186 CURVE SMOOTH",
"542.275 1186 OFFCURVE",
"564.897 1185.492 OFFCURVE",
"588 1238 CURVE SMOOTH",
"610.667 1286 OFFCURVE",
"699.5 1356.167 OFFCURVE",
"797.5 1407.5 CURVE SMOOTH",
"846.5 1433.167 OFFCURVE",
"888.667 1449.333 OFFCURVE",
"924 1456 CURVE SMOOTH",
"954 1462 OFFCURVE",
"975.667 1465 OFFCURVE",
"989 1465 CURVE SMOOTH",
"1013 1465 OFFCURVE",
"1021.333 1456 OFFCURVE",
"1032 1428 CURVE SMOOTH",
"1038 1411.333 OFFCURVE",
"1041 1392.667 OFFCURVE",
"1041 1372 CURVE SMOOTH",
"1041 1272 OFFCURVE",
"966.667 1138.167 OFFCURVE",
"848 1021.5 CURVE SMOOTH",
"788.667 963.167 OFFCURVE",
"723.333 914.667 OFFCURVE",
"652 876 CURVE SMOOTH",
"572.667 832.667 OFFCURVE",
"522.667 794.333 OFFCURVE",
"502 761 CURVE SMOOTH",
"493.333 747.667 OFFCURVE",
"489 733.667 OFFCURVE",
"489 719 CURVE SMOOTH",
"489 699.667 OFFCURVE",
"498 680 OFFCURVE",
"516 660 CURVE SMOOTH",
"538 634.667 OFFCURVE",
"563 622 OFFCURVE",
"591 622 CURVE SMOOTH",
"613 622 OFFCURVE",
"638.667 631.333 OFFCURVE",
"668 650 CURVE SMOOTH",
"699.333 669.333 OFFCURVE",
"742.667 682.667 OFFCURVE",
"798 690 CURVE SMOOTH",
"821.333 693.333 OFFCURVE",
"839 695 OFFCURVE",
"851 695 CURVE SMOOTH",
"888.333 695 OFFCURVE",
"908.667 684.667 OFFCURVE",
"950 650 CURVE SMOOTH",
"990.667 615.333 OFFCURVE",
"1011 576 OFFCURVE",
"1011 532 CURVE SMOOTH",
"1011 456 OFFCURVE",
"953.333 362 OFFCURVE",
"832 234 CURVE SMOOTH",
"699.333 95.333 OFFCURVE",
"556.667 13.333 OFFCURVE",
"404 -12 CURVE SMOOTH",
"400.667 -12.667 OFFCURVE",
"395.667 -13 OFFCURVE",
"389 -13 CURVE SMOOTH",
"354.333 -13 OFFCURVE",
"324.667 2.667 OFFCURVE",
"274 32 CURVE SMOOTH",
"235.333 54.667 OFFCURVE",
"214 66 OFFCURVE",
"194 66 CURVE SMOOTH",
"183.333 66 OFFCURVE",
"174 62 OFFCURVE",
"166 54 CURVE SMOOTH",
"153.333 41.333 OFFCURVE",
"147 23 OFFCURVE",
"147 -1 CURVE SMOOTH",
"147 -11.667 OFFCURVE",
"148.667 -25.333 OFFCURVE",
"152 -42 CURVE SMOOTH",
"167.049 -108.647 OFFCURVE",
"189.452 -118.293 OFFCURVE",
"270 -144 CURVE SMOOTH",
"324.667 -162.667 OFFCURVE",
"352.333 -170 OFFCURVE",
"379 -170 CURVE SMOOTH",
"397 -170 OFFCURVE",
"417.333 -166 OFFCURVE",
"440 -158 CURVE SMOOTH",
"464 -148.667 OFFCURVE",
"489 -144 OFFCURVE",
"515 -144 CURVE SMOOTH",
"531 -144 OFFCURVE",
"546 -146 OFFCURVE",
"560 -150 CURVE",
"563.333 -150.667 OFFCURVE",
"568.667 -151 OFFCURVE",
"576 -151 CURVE SMOOTH",
"594 -151 OFFCURVE",
"614 -146 OFFCURVE",
"636 -136 CURVE",
"666.667 -123.333 OFFCURVE",
"718 -93.333 OFFCURVE",
"790 -46 CURVE SMOOTH",
"909.333 34.667 OFFCURVE",
"979.333 87.333 OFFCURVE",
"1000 112 CURVE",
"1028 140 OFFCURVE",
"1056 154 OFFCURVE",
"1084 154 CURVE SMOOTH",
"1110.667 154 OFFCURVE",
"1128 164.667 OFFCURVE",
"1128 178 CURVE SMOOTH",
"1128 187.333 OFFCURVE",
"1151 254.333 OFFCURVE",
"1197 379 CURVE SMOOTH",
"1243 504.333 OFFCURVE",
"1266 572 OFFCURVE",
"1266 582 CURVE SMOOTH",
"1266 611.429 OFFCURVE",
"1189.99 687.742 OFFCURVE",
"1130.5 738.5 CURVE SMOOTH",
"1094.167 769.5 OFFCURVE",
"1062.667 791.333 OFFCURVE",
"1036 804 CURVE SMOOTH"
);
}
);
width = 1367;
}
);
note = three;
unicode = 0033;
},
{
glyphname = four;
lastChange = "2019-05-23 17:57:26 +0000";
layers = (
{
layerId = "B32CFD71-CB6A-495B-AD15-7D36F0D81A51";
paths = (
{
closed = 1;
nodes = (
"958 1637.333 OFFCURVE",
"945.333 1620 OFFCURVE",
"920 1600 CURVE SMOOTH",
"895.333 1581.333 OFFCURVE",
"885.333 1569.333 OFFCURVE",
"890 1564 CURVE SMOOTH",
"896.667 1556 OFFCURVE",
"842 1483 OFFCURVE",
"726 1345 CURVE SMOOTH",
"606.667 1203 OFFCURVE",
"458.667 1035.333 OFFCURVE",
"282 842 CURVE SMOOTH",
"187.333 741.333 OFFCURVE",
"140 678.667 OFFCURVE",
"140 654 CURVE SMOOTH",
"140 611.333 OFFCURVE",
"191.333 566 OFFCURVE",
"258 538 CURVE",
"269.333 534 OFFCURVE",
"283 532 OFFCURVE",
"299 532 CURVE SMOOTH",
"323 532 OFFCURVE",
"350.667 535.333 OFFCURVE",
"382 542 CURVE SMOOTH",
"439.333 554 OFFCURVE",
"489.333 572 OFFCURVE",
"532 596 CURVE",
"544 602 OFFCURVE",
"553.667 605 OFFCURVE",
"561 605 CURVE SMOOTH",
"567.667 605 OFFCURVE",
"572.667 602.667 OFFCURVE",
"576 598 CURVE",
"577.333 594 OFFCURVE",
"578 589 OFFCURVE",
"578 583 CURVE SMOOTH",
"578 547 OFFCURVE",
"558.667 467.667 OFFCURVE",
"532 389 CURVE SMOOTH",
"514 335 OFFCURVE",
"494 278.667 OFFCURVE",
"472 220 CURVE SMOOTH",
"441.333 140 OFFCURVE",
"426 85 OFFCURVE",
"426 55 CURVE SMOOTH",
"426 27.667 OFFCURVE",
"438.667 10 OFFCURVE",
"464 2 CURVE",
"469.333 0 OFFCURVE",
"473.667 -1 OFFCURVE",
"477 -1 CURVE SMOOTH",
"497 -1 OFFCURVE",
"505.333 17.333 OFFCURVE",
"520 56 CURVE SMOOTH",
"537.333 101.333 OFFCURVE",
"551 126 OFFCURVE",
"579 126 CURVE SMOOTH",
"598.333 126 OFFCURVE",
"614.333 140.333 OFFCURVE",
"627 169 CURVE SMOOTH",
"639.667 197 OFFCURVE",
"656 254.667 OFFCURVE",
"676 342 CURVE SMOOTH",
"704.667 453.333 OFFCURVE",
"721.333 514.667 OFFCURVE",
"726 526 CURVE",
"741.333 570.667 OFFCURVE",
"750.667 598.667 OFFCURVE",
"754 610 CURVE SMOOTH",
"772.667 671.333 OFFCURVE",
"872 710 OFFCURVE",
"1012 710 CURVE SMOOTH",
"1090.667 710 OFFCURVE",
"1136.667 718.667 OFFCURVE",
"1150 736 CURVE SMOOTH",
"1159.333 748.667 OFFCURVE",
"1164 757.333 OFFCURVE",
"1164 762 CURVE SMOOTH",
"1164 781.333 OFFCURVE",
"1098 791.333 OFFCURVE",
"966 792 CURVE SMOOTH",
"854 792 OFFCURVE",
"796 797.333 OFFCURVE",
"792 808 CURVE",
"790.667 810 OFFCURVE",
"790 814 OFFCURVE",
"790 820 CURVE SMOOTH",
"790 856 OFFCURVE",
"830 935.333 OFFCURVE",
"862 958 CURVE",
"884.667 972.667 OFFCURVE",
"902 1004.667 OFFCURVE",
"914 1054 CURVE",
"930 1110 OFFCURVE",
"959.333 1186.667 OFFCURVE",
"1002 1284 CURVE SMOOTH",
"1033.333 1356.667 OFFCURVE",
"1055 1401 OFFCURVE",
"1067 1417 CURVE SMOOTH",
"1080.333 1435 OFFCURVE",
"1099 1446 OFFCURVE",
"1123 1450 CURVE SMOOTH",
"1173.272 1458.044 OFFCURVE",
"1183.635 1478.408 OFFCURVE",
"1196 1542 CURVE SMOOTH",
"1204.667 1594 OFFCURVE",
"1216 1635.333 OFFCURVE",
"1230 1666 CURVE",
"1239.333 1680.667 OFFCURVE",
"1244 1693 OFFCURVE",
"1244 1703 CURVE SMOOTH",
"1244 1715.667 OFFCURVE",
"1237.167 1726.5 OFFCURVE",
"1223.5 1735.5 CURVE SMOOTH",
"1209.833 1744.5 OFFCURVE",
"1188 1752.667 OFFCURVE",
"1158 1760 CURVE",
"1140.667 1765.333 OFFCURVE",
"1126.333 1768 OFFCURVE",
"1115 1768 CURVE SMOOTH",
"1110.333 1768 OFFCURVE",
"1104.667 1767.333 OFFCURVE",
"1098 1766 CURVE",
"1079.333 1761.333 OFFCURVE",
"1056 1748 OFFCURVE",
"1028 1726 CURVE",
"981.333 1694 OFFCURVE",
"958 1669.333 OFFCURVE",
"958 1652 CURVE SMOOTH"
);
},
{
closed = 1;
nodes = (
"632 748.667 OFFCURVE",
"616.667 736.667 OFFCURVE",
"582 734 CURVE",
"577.333 733.333 OFFCURVE",
"571 733 OFFCURVE",
"563 733 CURVE SMOOTH",
"516.333 733 OFFCURVE",
"482 755.333 OFFCURVE",
"482 786 CURVE SMOOTH",
"482 792.667 OFFCURVE",
"483.333 798.667 OFFCURVE",
"486 804 CURVE",
"507.333 833.333 OFFCURVE",
"548.667 882.667 OFFCURVE",
"610 952 CURVE SMOOTH",
"667.333 1020 OFFCURVE",
"701.333 1052.667 OFFCURVE",
"712 1050 CURVE",
"716.667 1048 OFFCURVE",
"719 1041.667 OFFCURVE",
"719 1031 CURVE SMOOTH",
"719 1007.667 OFFCURVE",
"706.667 956 OFFCURVE",
"682 876 CURVE",
"666 830 OFFCURVE",
"654.667 800 OFFCURVE",
"648 786 CURVE"
);
},
{
closed = 1;
nodes = (
"677.333 485.333 OFFCURVE",
"673.333 480 OFFCURVE",
"672 480 CURVE SMOOTH",
"668 480 OFFCURVE",
"666 490.667 OFFCURVE",
"666 512 CURVE SMOOTH",
"666 526 OFFCURVE",
"668 536.833 OFFCURVE",
"672 544.5 CURVE SMOOTH",
"676 552.167 OFFCURVE",
"680.667 556 OFFCURVE",
"686 556 CURVE SMOOTH",
"694 556 OFFCURVE",
"699 548 OFFCURVE",
"699 536 CURVE SMOOTH",
"699 524 OFFCURVE",
"694 510.667 OFFCURVE",
"684 496 CURVE"
);
}
);
width = 1327;
}
);
note = four;
unicode = 0034;
},
{
glyphname = five;
lastChange = "2019-05-23 17:57:26 +0000";
layers = (
{
layerId = "B32CFD71-CB6A-495B-AD15-7D36F0D81A51";
paths = (
{
closed = 1;
nodes = (
"994.667 1461.333 OFFCURVE",
"963.333 1448.667 OFFCURVE",
"936 1436 CURVE",
"862.667 1405.333 OFFCURVE",
"825.333 1392.667 OFFCURVE",
"732 1378 CURVE",
"603.333 1349.333 OFFCURVE",
"518 1328 OFFCURVE",
"476 1314 CURVE SMOOTH",
"433.333 1301.333 OFFCURVE",
"407.333 1286.667 OFFCURVE",
"398 1270 CURVE SMOOTH",
"391.333 1258.667 OFFCURVE",
"388 1248 OFFCURVE",
"388 1238 CURVE SMOOTH",
"388 1227.333 OFFCURVE",
"391.333 1218.667 OFFCURVE",
"398 1212 CURVE",
"403.333 1198 OFFCURVE",
"384.667 1134.667 OFFCURVE",
"342 1022 CURVE SMOOTH",
"300 910 OFFCURVE",
"256 807.333 OFFCURVE",
"210 714 CURVE SMOOTH",
"193.333 680.667 OFFCURVE",
"185 654 OFFCURVE",
"185 634 CURVE SMOOTH",
"185 607.333 OFFCURVE",
"196 582.667 OFFCURVE",
"224 544 CURVE SMOOTH",
"251.333 506 OFFCURVE",
"281.333 487 OFFCURVE",
"314 487 CURVE SMOOTH",
"350.667 487 OFFCURVE",
"391.333 510 OFFCURVE",
"436 556 CURVE SMOOTH",
"480 601.333 OFFCURVE",
"510.667 624 OFFCURVE",
"528 624 CURVE SMOOTH",
"546 624 OFFCURVE",
"570.667 634.667 OFFCURVE",
"602 656 CURVE",
"639.333 678.667 OFFCURVE",
"720 695 OFFCURVE",
"792 695 CURVE SMOOTH",
"828 695 OFFCURVE",
"855.333 691.333 OFFCURVE",
"874 684 CURVE",
"884 680.667 OFFCURVE",
"892.667 674.667 OFFCURVE",
"900 666 CURVE",
"926 645.333 OFFCURVE",
"939 617 OFFCURVE",
"939 581 CURVE SMOOTH",
"939 537 OFFCURVE",
"920 481.333 OFFCURVE",
"882 414 CURVE SMOOTH",
"806 282.667 OFFCURVE",
"698 175.333 OFFCURVE",
"558 92 CURVE SMOOTH",
"471.333 37.333 OFFCURVE",
"453 30 OFFCURVE",
"389 22 CURVE SMOOTH",
"376.333 20 OFFCURVE",
"362 19 OFFCURVE",
"346 19 CURVE SMOOTH",
"327.333 19 OFFCURVE",
"304.667 20.667 OFFCURVE",
"278 24 CURVE",
"177.333 32 OFFCURVE",
"117.333 42.667 OFFCURVE",
"98 56 CURVE",
"90 64 OFFCURVE",
"77.667 68 OFFCURVE",
"61 68 CURVE SMOOTH",
"43.667 68 OFFCURVE",
"22 64 OFFCURVE",
"-4 56 CURVE SMOOTH",
"-62.667 36.667 OFFCURVE",
"-92 9.667 OFFCURVE",
"-92 -25 CURVE SMOOTH",
"-92 -50.333 OFFCURVE",
"-76 -80 OFFCURVE",
"-44 -114 CURVE SMOOTH",
"-18 -140 OFFCURVE",
"8.667 -155.333 OFFCURVE",
"36 -160 CURVE",
"47.333 -162.667 OFFCURVE",
"74.333 -165 OFFCURVE",
"117 -167 CURVE SMOOTH",
"168.333 -169.667 OFFCURVE",
"222 -171.333 OFFCURVE",
"278 -172 CURVE SMOOTH",
"389 -173 LINE SMOOTH",
"453 -173 OFFCURVE",
"496.667 -172 OFFCURVE",
"520 -170 CURVE SMOOTH",
"554.667 -166.667 OFFCURVE",
"582 -156 OFFCURVE",
"602 -138 CURVE",
"636.667 -111.333 OFFCURVE",
"661.333 -98 OFFCURVE",
"676 -98 CURVE SMOOTH",
"716.667 -97.333 OFFCURVE",
"816.667 -10.667 OFFCURVE",
"976 162 CURVE SMOOTH",
"1058 250 OFFCURVE",
"1106.667 311.333 OFFCURVE",
"1122 346 CURVE",
"1139.333 381.333 OFFCURVE",
"1155.333 452 OFFCURVE",
"1170 558 CURVE",
"1171.333 576.667 OFFCURVE",
"1172 588.667 OFFCURVE",
"1172 594 CURVE SMOOTH",
"1172 646.099 OFFCURVE",
"1148.867 669.998 OFFCURVE",
"1094 728 CURVE SMOOTH",
"1070 753.333 OFFCURVE",
"1047.333 774 OFFCURVE",
"1026 790 CURVE SMOOTH",
"983.333 820 OFFCURVE",
"926.667 842 OFFCURVE",
"856 856 CURVE SMOOTH",
"827.333 862 OFFCURVE",
"784 866.667 OFFCURVE",
"726 870 CURVE SMOOTH",
"667.333 875.333 OFFCURVE",
"626.333 881.667 OFFCURVE",
"603 889 CURVE SMOOTH",
"579.667 896.333 OFFCURVE",
"568 908 OFFCURVE",
"568 924 CURVE SMOOTH",
"568 941.333 OFFCURVE",
"578 962.667 OFFCURVE",
"602 1000 CURVE SMOOTH",
"637.333 1055.333 OFFCURVE",
"663.333 1102.667 OFFCURVE",
"680 1142 CURVE SMOOTH",
"701.333 1190 OFFCURVE",
"726.667 1209.333 OFFCURVE",
"804 1236 CURVE SMOOTH",
"866.667 1256 OFFCURVE",
"914 1266 OFFCURVE",
"946 1266 CURVE",
"976.667 1268.667 OFFCURVE",
"1018 1278.667 OFFCURVE",
"1070 1296 CURVE",
"1118 1318.667 OFFCURVE",
"1154.333 1331 OFFCURVE",
"1179 1333 CURVE SMOOTH",
"1202.333 1335 OFFCURVE",
"1251.333 1367.333 OFFCURVE",
"1326 1430 CURVE SMOOTH",
"1393.333 1484.667 OFFCURVE",
"1460.667 1530 OFFCURVE",
"1528 1566 CURVE",
"1573.333 1587.333 OFFCURVE",
"1617.333 1623.333 OFFCURVE",
"1620 1642 CURVE SMOOTH",
"1621.333 1652 OFFCURVE",
"1617.667 1659.333 OFFCURVE",
"1609 1664 CURVE SMOOTH",
"1599.667 1669.333 OFFCURVE",
"1586 1673.333 OFFCURVE",
"1568 1676 CURVE SMOOTH",
"1555.333 1678 OFFCURVE",
"1540.667 1679 OFFCURVE",
"1524 1679 CURVE SMOOTH",
"1449.333 1679 OFFCURVE",
"1356 1658.667 OFFCURVE",
"1300 1628 CURVE",
"1274.667 1616.667 OFFCURVE",
"1235 1591.667 OFFCURVE",
"1181 1553 CURVE SMOOTH",
"1128.333 1515.667 OFFCURVE",
"1078 1489.333 OFFCURVE",
"1030 1474 CURVE"
);
}
);
width = 1485;
}
);
note = five;
unicode = 0035;
},
{
glyphname = six;
lastChange = "2019-05-23 17:57:26 +0000";
layers = (
{
layerId = "B32CFD71-CB6A-495B-AD15-7D36F0D81A51";
paths = (
{
closed = 1;
nodes = (
"589.59 1528.513 OFFCURVE",
"581.601 1513.278 OFFCURVE",
"562 1442 CURVE SMOOTH",
"546.667 1380.667 OFFCURVE",
"524 1325.333 OFFCURVE",
"494 1276 CURVE SMOOTH",
"435.333 1182.667 OFFCURVE",
"366.667 1056.667 OFFCURVE",
"288 898 CURVE SMOOTH",
"224.667 770 OFFCURVE",
"184.667 684.667 OFFCURVE",
"168 642 CURVE SMOOTH",
"151.333 602 OFFCURVE",
"133.333 546.667 OFFCURVE",
"114 476 CURVE SMOOTH",
"95.333 405.333 OFFCURVE",
"86 345.667 OFFCURVE",
"86 297 CURVE SMOOTH",
"86 251 OFFCURVE",
"94.667 194 OFFCURVE",
"112 126 CURVE SMOOTH",
"124 75.333 OFFCURVE",
"130 34 OFFCURVE",
"130 2 CURVE SMOOTH",
"130 -6 OFFCURVE",
"129.333 -15.333 OFFCURVE",
"128 -26 CURVE",
"126.667 -34 OFFCURVE",
"126 -40 OFFCURVE",
"126 -44 CURVE SMOOTH",
"126 -111.559 OFFCURVE",
"203.066 -170 OFFCURVE",
"275 -170 CURVE SMOOTH",
"296.333 -170 OFFCURVE",
"315.333 -165.333 OFFCURVE",
"332 -156 CURVE",
"356 -145.333 OFFCURVE",
"406.667 -135.333 OFFCURVE",
"484 -126 CURVE SMOOTH",
"643.333 -106.667 OFFCURVE",
"737.333 -80 OFFCURVE",
"766 -46 CURVE SMOOTH",
"782.667 -27.333 OFFCURVE",
"801.333 -18 OFFCURVE",
"822 -18 CURVE",
"845.333 -14 OFFCURVE",
"919.333 46.667 OFFCURVE",
"1044 164 CURVE SMOOTH",
"1234 342 LINE",
"1234 440 LINE SMOOTH",
"1234 537.333 OFFCURVE",
"1214.5 580.333 OFFCURVE",
"1148.5 603 CURVE SMOOTH",
"1115.5 614.333 OFFCURVE",
"1064 623.333 OFFCURVE",
"994 630 CURVE SMOOTH",
"947.333 633.333 OFFCURVE",
"914 635 OFFCURVE",
"894 635 CURVE SMOOTH",
"834 635 OFFCURVE",
"804 626 OFFCURVE",
"736 598 CURVE",
"666 565.333 OFFCURVE",
"577.333 504 OFFCURVE",
"470 414 CURVE",
"441 392 LINE SMOOTH",
"414.333 370.667 OFFCURVE",
"394.667 355.333 OFFCURVE",
"382 346 CURVE SMOOTH",
"318 302 LINE",
"305.333 294.667 OFFCURVE",
"297.333 291 OFFCURVE",
"294 291 CURVE SMOOTH",
"292.667 291 OFFCURVE",
"292 291.333 OFFCURVE",
"292 292 CURVE",
"291.333 292.667 OFFCURVE",
"291 295.333 OFFCURVE",
"291 300 CURVE SMOOTH",
"291 348 OFFCURVE",
"364 580 OFFCURVE",
"416 696 CURVE SMOOTH",
"444 753.333 OFFCURVE",
"466.667 788 OFFCURVE",
"484 800 CURVE",
"502.667 816.667 OFFCURVE",
"512 833.667 OFFCURVE",
"512 851 CURVE SMOOTH",
"512 868.333 OFFCURVE",
"533.333 906.667 OFFCURVE",
"576 966 CURVE SMOOTH",
"604 1007.333 OFFCURVE",
"636 1060.667 OFFCURVE",
"672 1126 CURVE SMOOTH",
"710 1196.667 OFFCURVE",
"748 1254 OFFCURVE",
"786 1298 CURVE",
"838.667 1366 OFFCURVE",
"874.667 1420.667 OFFCURVE",
"894 1462 CURVE SMOOTH",
"908.667 1491.333 OFFCURVE",
"915 1505.667 OFFCURVE",
"915 1519 CURVE SMOOTH",
"915 1532.333 OFFCURVE",
"909.333 1542 OFFCURVE",
"892 1562 CURVE",
"870.667 1584.667 OFFCURVE",
"833 1598 OFFCURVE",
"797 1598 CURVE SMOOTH",
"770.333 1598 OFFCURVE",
"750 1592 OFFCURVE",
"736 1580 CURVE",
"722 1570 OFFCURVE",
"693.333 1559.333 OFFCURVE",
"650 1548 CURVE"
);
},
{
closed = 1;
nodes = (
"629.333 88 OFFCURVE",
"526.667 42 OFFCURVE",
"468 46 CURVE",
"450.667 46 OFFCURVE",
"442 51.667 OFFCURVE",
"442 63 CURVE SMOOTH",
"442 81 OFFCURVE",
"466.667 114 OFFCURVE",
"516 162 CURVE SMOOTH",
"592 236.667 OFFCURVE",
"692.167 303.833 OFFCURVE",
"779.5 340.5 CURVE SMOOTH",
"823.167 358.833 OFFCURVE",
"859.333 368 OFFCURVE",
"888 368 CURVE",
"896 368.667 OFFCURVE",
"906 369 OFFCURVE",
"918 369 CURVE SMOOTH",
"933.333 369 OFFCURVE",
"943.333 367.667 OFFCURVE",
"948 365 CURVE SMOOTH",
"954.667 361 OFFCURVE",
"958 353.667 OFFCURVE",
"958 343 CURVE SMOOTH",
"958 338 LINE",
"952.667 316.667 OFFCURVE",
"892 265.333 OFFCURVE",
"776 184 CURVE SMOOTH"
);
}
);
width = 1321;
}
);
note = six;
unicode = 0036;
},
{
glyphname = seven;
lastChange = "2019-05-23 17:57:26 +0000";
layers = (
{
layerId = "B32CFD71-CB6A-495B-AD15-7D36F0D81A51";
paths = (
{
closed = 1;
nodes = (
"1280 1608 OFFCURVE",
"1240 1597.333 OFFCURVE",
"1200 1584 CURVE SMOOTH",
"1170.667 1574.667 OFFCURVE",
"1126 1561.333 OFFCURVE",
"1066 1544 CURVE",
"1026.667 1530.667 OFFCURVE",
"985.333 1520 OFFCURVE",
"942 1512 CURVE SMOOTH",
"872 1501.333 OFFCURVE",
"829.333 1489.333 OFFCURVE",
"814 1476 CURVE",
"800 1466 OFFCURVE",
"770.667 1457.333 OFFCURVE",
"726 1450 CURVE",
"677.333 1438.667 OFFCURVE",
"636 1425.333 OFFCURVE",
"602 1410 CURVE SMOOTH",
"498 1363.333 OFFCURVE",
"385.333 1340 OFFCURVE",
"264 1340 CURVE SMOOTH",
"192 1340 OFFCURVE",
"134.167 1321.833 OFFCURVE",
"105.5 1290.5 CURVE SMOOTH",
"91.167 1274.833 OFFCURVE",
"84.667 1257.333 OFFCURVE",
"86 1238 CURVE",
"93.333 1208 OFFCURVE",
"111.333 1186.667 OFFCURVE",
"140 1174 CURVE",
"169.333 1158 OFFCURVE",
"192 1138 OFFCURVE",
"208 1114 CURVE",
"221.333 1096.667 OFFCURVE",
"231.333 1088 OFFCURVE",
"238 1088 CURVE SMOOTH",
"244 1088 OFFCURVE",
"257.333 1096.667 OFFCURVE",
"278 1114 CURVE SMOOTH",
"334 1163.333 OFFCURVE",
"454.667 1210 OFFCURVE",
"640 1254 CURVE SMOOTH",
"716.667 1273.333 OFFCURVE",
"776 1292.667 OFFCURVE",
"818 1312 CURVE SMOOTH",
"858 1330.667 OFFCURVE",
"894.667 1340 OFFCURVE",
"928 1340 CURVE SMOOTH",
"960.667 1340 OFFCURVE",
"980.667 1346.667 OFFCURVE",
"988 1360 CURVE",
"997.333 1370.667 OFFCURVE",
"1040.333 1380 OFFCURVE",
"1075 1380 CURVE SMOOTH",
"1102.333 1380 OFFCURVE",
"1116 1375.333 OFFCURVE",
"1116 1366 CURVE SMOOTH",
"1116 1352 OFFCURVE",
"1082.667 1307.333 OFFCURVE",
"1016 1232 CURVE SMOOTH",
"969.333 1177.333 OFFCURVE",
"892 1076.667 OFFCURVE",
"784 930 CURVE SMOOTH",
"681.333 789.333 OFFCURVE",
"630 714 OFFCURVE",
"630 704 CURVE SMOOTH",
"630 696.667 OFFCURVE",
"598.667 643.333 OFFCURVE",
"536 544 CURVE SMOOTH",
"495.333 479.333 OFFCURVE",
"468 433.333 OFFCURVE",
"454 406 CURVE SMOOTH",
"438.667 376.667 OFFCURVE",
"421.333 338.333 OFFCURVE",
"402 291 CURVE SMOOTH",
"379.333 236.333 OFFCURVE",
"356.667 186.667 OFFCURVE",
"334 142 CURVE SMOOTH",
"286.667 47.333 OFFCURVE",
"263 -16.667 OFFCURVE",
"263 -50 CURVE",
"264 -60 LINE SMOOTH",
"269.333 -110.667 OFFCURVE",
"300.333 -138 OFFCURVE",
"343 -138 CURVE SMOOTH",
"389.667 -138 OFFCURVE",
"443.333 -105.333 OFFCURVE",
"482 -48 CURVE SMOOTH",
"515.333 0.667 OFFCURVE",
"532 39.333 OFFCURVE",
"532 68 CURVE SMOOTH",
"532 102 OFFCURVE",
"608.667 260.667 OFFCURVE",
"762 544 CURVE SMOOTH",
"819.333 652 OFFCURVE",
"975.833 849.667 OFFCURVE",
"1152.5 1039 CURVE SMOOTH",
"1240.833 1133.667 OFFCURVE",
"1322.667 1214 OFFCURVE",
"1398 1280 CURVE SMOOTH",
"1533.333 1403.333 OFFCURVE",
"1621.333 1488 OFFCURVE",
"1662 1534 CURVE SMOOTH",
"1700.667 1577.333 OFFCURVE",
"1720 1620 OFFCURVE",
"1720 1662 CURVE SMOOTH",
"1720 1727.239 OFFCURVE",
"1714.478 1731.593 OFFCURVE",
"1648 1728 CURVE",
"1608 1728 LINE SMOOTH",
"1576 1728 OFFCURVE",
"1539.333 1715.333 OFFCURVE",
"1514 1698 CURVE SMOOTH",
"1492 1684 LINE",
"1468 1666 LINE",
"1430.667 1644.667 OFFCURVE",
"1381.333 1628 OFFCURVE",
"1320 1616 CURVE SMOOTH"
);
}
);
width = 1807;
}
);
note = seven;
unicode = 0037;
},
{
glyphname = eight;
lastChange = "2019-05-23 17:57:26 +0000";
layers = (
{
layerId = "B32CFD71-CB6A-495B-AD15-7D36F0D81A51";
paths = (
{
closed = 1;
nodes = (
"1610.667 1670 OFFCURVE",
"1545.333 1629.333 OFFCURVE",
"1422 1548 CURVE SMOOTH",
"1352 1500.667 OFFCURVE",
"1287.333 1451.333 OFFCURVE",
"1228 1400 CURVE SMOOTH",
"1172 1353.333 OFFCURVE",
"1114.667 1298.667 OFFCURVE",
"1056 1236 CURVE SMOOTH",
"1000.667 1178 OFFCURVE",
"940.667 1109.333 OFFCURVE",
"876 1030 CURVE SMOOTH",
"792 920.667 OFFCURVE",
"740.667 868 OFFCURVE",
"722 872 CURVE",
"662 872 OFFCURVE",
"607.5 947.833 OFFCURVE",
"577.5 1036.5 CURVE SMOOTH",
"562.5 1080.833 OFFCURVE",
"555 1118 OFFCURVE",
"555 1148 CURVE SMOOTH",
"555 1156.667 OFFCURVE",
"555.333 1162.667 OFFCURVE",
"556 1166 CURVE SMOOTH",
"564.667 1210.667 OFFCURVE",
"581.333 1264.667 OFFCURVE",
"606 1328 CURVE SMOOTH",
"614.667 1351.333 OFFCURVE",
"622.667 1366.667 OFFCURVE",
"630 1374 CURVE",
"651.333 1389.333 OFFCURVE",
"679.333 1399.333 OFFCURVE",
"714 1404 CURVE",
"720 1405.333 OFFCURVE",
"728.667 1406 OFFCURVE",
"740 1406 CURVE SMOOTH",
"782.667 1406 OFFCURVE",
"814 1386 OFFCURVE",
"814 1358 CURVE SMOOTH",
"814 1348 OFFCURVE",
"809.333 1337.333 OFFCURVE",
"800 1326 CURVE",
"791.333 1316.667 OFFCURVE",
"787 1299 OFFCURVE",
"787 1273 CURVE SMOOTH",
"787 1230.333 OFFCURVE",
"799.333 1186 OFFCURVE",
"818 1174 CURVE",
"826.667 1166.667 OFFCURVE",
"860.667 1190.667 OFFCURVE",
"920 1246 CURVE SMOOTH",
"964.667 1286 OFFCURVE",
"996.667 1326 OFFCURVE",
"1016 1366 CURVE",
"1028 1388 OFFCURVE",
"1034 1408.333 OFFCURVE",
"1034 1427 CURVE SMOOTH",
"1034 1438.333 OFFCURVE",
"1031.333 1449.333 OFFCURVE",
"1026 1460 CURVE SMOOTH",
"956.667 1590.667 OFFCURVE",
"882 1650 OFFCURVE",
"778 1650 CURVE SMOOTH",
"724.667 1650 OFFCURVE",
"658.667 1632.667 OFFCURVE",
"580 1598 CURVE SMOOTH",
"505.333 1564.667 OFFCURVE",
"479 1546 OFFCURVE",
"455 1510 CURVE SMOOTH",
"443 1492 OFFCURVE",
"426 1461.333 OFFCURVE",
"404 1418 CURVE",
"362.667 1326 OFFCURVE",
"342 1243.333 OFFCURVE",
"342 1170 CURVE SMOOTH",
"342 1096.667 OFFCURVE",
"362.667 1016 OFFCURVE",
"404 928 CURVE SMOOTH",
"472 785.333 OFFCURVE",
"529.333 714 OFFCURVE",
"576 714 CURVE",
"600 706 LINE",
"619.333 688.667 OFFCURVE",
"540 597.333 OFFCURVE",
"362 432 CURVE SMOOTH",
"258 334 OFFCURVE",
"191.333 267.667 OFFCURVE",
"162 233 CURVE SMOOTH",
"130 195 OFFCURVE",
"112 161.333 OFFCURVE",
"108 132 CURVE SMOOTH",
"104 105.333 OFFCURVE",
"97.333 71.333 OFFCURVE",
"88 30 CURVE",
"87.333 28 OFFCURVE",
"87 24.333 OFFCURVE",
"87 19 CURVE SMOOTH",
"87 -32.604 OFFCURVE",
"166.519 -102.458 OFFCURVE",
"230 -114 CURVE SMOOTH",
"276.667 -122 OFFCURVE",
"330 -133.333 OFFCURVE",
"390 -148 CURVE SMOOTH",
"431.333 -157.333 OFFCURVE",
"467 -162 OFFCURVE",
"497 -162 CURVE SMOOTH",
"571.667 -162 OFFCURVE",
"634 -134.5 OFFCURVE",
"706 -72.5 CURVE SMOOTH",
"742 -41.5 OFFCURVE",
"784 1.333 OFFCURVE",
"832 56 CURVE SMOOTH",
"926.667 165.333 OFFCURVE",
"973 266.667 OFFCURVE",
"973 368 CURVE SMOOTH",
"973 431.333 OFFCURVE",
"954.667 498 OFFCURVE",
"918 568 CURVE SMOOTH",
"878 644 OFFCURVE",
"858 687.667 OFFCURVE",
"858 699 CURVE SMOOTH",
"858 711 OFFCURVE",
"875.333 738.667 OFFCURVE",
"910 782 CURVE SMOOTH",
"936 813.333 OFFCURVE",
"996.667 889.333 OFFCURVE",
"1092 1010 CURVE SMOOTH",
"1162 1099.333 OFFCURVE",
"1226 1170 OFFCURVE",
"1284 1222 CURVE SMOOTH",
"1344 1278 OFFCURVE",
"1429.333 1342 OFFCURVE",
"1540 1414 CURVE SMOOTH",
"1666.667 1500.667 OFFCURVE",
"1821.333 1618 OFFCURVE",
"1916 1702 CURVE SMOOTH",
"1964 1745.333 OFFCURVE",
"1988 1772 OFFCURVE",
"1988 1782 CURVE SMOOTH",
"1988 1796.667 OFFCURVE",
"1946.667 1804 OFFCURVE",
"1864 1804 CURVE SMOOTH",
"1794.818 1804 OFFCURVE",
"1751.659 1804.223 OFFCURVE",
"1728 1785 CURVE SMOOTH",
"1717.333 1776.333 OFFCURVE",
"1702.667 1760 OFFCURVE",
"1684 1736 CURVE SMOOTH",
"1650.667 1692 OFFCURVE",
"1628.667 1670 OFFCURVE",
"1618 1670 CURVE SMOOTH"
);
},
{
closed = 1;
nodes = (
"546 95.333 OFFCURVE",
"502.333 67.667 OFFCURVE",
"467 57 CURVE",
"457.667 53.667 OFFCURVE",
"447.667 52 OFFCURVE",
"437 52 CURVE SMOOTH",
"417 52 OFFCURVE",
"404 60.667 OFFCURVE",
"398 78 CURVE",
"393.333 96.667 OFFCURVE",
"412.333 142 OFFCURVE",
"455 214 CURVE SMOOTH",
"497.667 286 OFFCURVE",
"548.667 356 OFFCURVE",
"608 424 CURVE SMOOTH",
"664 488 OFFCURVE",
"703.333 520 OFFCURVE",
"726 520 CURVE SMOOTH",
"738 520 OFFCURVE",
"746.667 512.5 OFFCURVE",
"752 497.5 CURVE SMOOTH",
"757.333 482.5 OFFCURVE",
"760 459.333 OFFCURVE",
"760 428 CURVE SMOOTH",
"760 329.333 OFFCURVE",
"706 233.333 OFFCURVE",
"598 140 CURVE SMOOTH"
);
}
);
width = 1529;
}
);
note = eight;
unicode = 0038;
},
{
glyphname = nine;
lastChange = "2019-05-23 17:57:26 +0000";
layers = (
{
layerId = "B32CFD71-CB6A-495B-AD15-7D36F0D81A51";
paths = (
{
closed = 1;
nodes = (
"756 1612 OFFCURVE",
"710.667 1618 OFFCURVE",
"656 1618 CURVE SMOOTH",
"574.667 1618 OFFCURVE",
"489.333 1603.333 OFFCURVE",
"432 1578 CURVE",
"386 1555.333 OFFCURVE",
"338.667 1521.333 OFFCURVE",
"290 1476 CURVE SMOOTH",
"239.333 1427.333 OFFCURVE",
"198 1377.333 OFFCURVE",
"166 1326 CURVE",
"118 1256.667 OFFCURVE",
"87 1123.333 OFFCURVE",
"87 1014 CURVE SMOOTH",
"87 972 OFFCURVE",
"91.333 938 OFFCURVE",
"100 912 CURVE SMOOTH",
"128 825.333 OFFCURVE",
"165.667 776 OFFCURVE",
"227 756 CURVE SMOOTH",
"250.333 748 OFFCURVE",
"276 744 OFFCURVE",
"304 744 CURVE SMOOTH",
"310.667 744 OFFCURVE",
"322 744.667 OFFCURVE",
"338 746 CURVE",
"379.333 751.333 OFFCURVE",
"430 763.333 OFFCURVE",
"490 782 CURVE SMOOTH",
"546.667 800 OFFCURVE",
"586.333 809 OFFCURVE",
"609 809 CURVE SMOOTH",
"618.333 809 OFFCURVE",
"624.667 807.333 OFFCURVE",
"628 804 CURVE",
"633.333 788 OFFCURVE",
"636 760 OFFCURVE",
"636 720 CURVE SMOOTH",
"636 708 OFFCURVE",
"635.333 684 OFFCURVE",
"634 648 CURVE SMOOTH",
"630 561.333 OFFCURVE",
"622.667 472.667 OFFCURVE",
"612 382 CURVE SMOOTH",
"601.333 287.333 OFFCURVE",
"592 236 OFFCURVE",
"584 228 CURVE",
"572 214.667 OFFCURVE",
"565 172 OFFCURVE",
"565 120 CURVE SMOOTH",
"565 49.333 OFFCURVE",
"577.333 -26 OFFCURVE",
"596 -54 CURVE",
"614.667 -79.333 OFFCURVE",
"647.333 -94 OFFCURVE",
"678 -94 CURVE SMOOTH",
"704.667 -94 OFFCURVE",
"726.667 -83.333 OFFCURVE",
"736 -62 CURVE",
"753.333 -26 OFFCURVE",
"781.333 131.333 OFFCURVE",
"820 410 CURVE SMOOTH",
"827.333 467.333 OFFCURVE",
"837.333 522 OFFCURVE",
"850 574 CURVE SMOOTH",
"879 699 LINE",
"884 722 LINE SMOOTH",
"894 765.333 OFFCURVE",
"900.667 818 OFFCURVE",
"904 880 CURVE",
"912 970 OFFCURVE",
"922.667 1027.333 OFFCURVE",
"936 1052 CURVE SMOOTH",
"948 1075.333 OFFCURVE",
"954 1102.333 OFFCURVE",
"954 1133 CURVE SMOOTH",
"954 1165 OFFCURVE",
"968 1209.333 OFFCURVE",
"996 1266 CURVE",
"1010.667 1292 OFFCURVE",
"1022 1320 OFFCURVE",
"1030 1350 CURVE SMOOTH",
"1040 1386 OFFCURVE",
"1048.667 1420.667 OFFCURVE",
"1056 1454 CURVE SMOOTH",
"1064.667 1492 OFFCURVE",
"1072.667 1521.333 OFFCURVE",
"1080 1542 CURVE",
"1082 1551.333 OFFCURVE",
"1083 1559.667 OFFCURVE",
"1083 1567 CURVE SMOOTH",
"1083 1616.333 OFFCURVE",
"1050 1655 OFFCURVE",
"994 1667 CURVE",
"986 1668.333 OFFCURVE",
"980 1669 OFFCURVE",
"976 1669 CURVE SMOOTH",
"948.667 1669 OFFCURVE",
"921.333 1655.333 OFFCURVE",
"894 1628 CURVE SMOOTH",
"863.333 1598.667 OFFCURVE",
"848.667 1589 OFFCURVE",
"830 1589 CURVE SMOOTH",
"821.333 1589 OFFCURVE",
"808.667 1592.667 OFFCURVE",
"792 1600 CURVE"
);
},
{
closed = 1;
nodes = (
"724 1314.667 OFFCURVE",
"734 1306 OFFCURVE",
"742 1306 CURVE SMOOTH",
"749.333 1306 OFFCURVE",
"753 1304 OFFCURVE",
"753 1300 CURVE SMOOTH",
"753 1295.333 OFFCURVE",
"747.333 1286.667 OFFCURVE",
"736 1274 CURVE",
"716 1246.667 OFFCURVE",
"688.667 1204 OFFCURVE",
"654 1146 CURVE SMOOTH",
"598 1047.333 OFFCURVE",
"538.667 1006.667 OFFCURVE",
"424 988 CURVE SMOOTH",
"408.667 986 OFFCURVE",
"395 985 OFFCURVE",
"383 985 CURVE SMOOTH",
"323 985 OFFCURVE",
"297 1009 OFFCURVE",
"297 1065 CURVE SMOOTH",
"297 1076.333 OFFCURVE",
"298.667 1092.667 OFFCURVE",
"302 1114 CURVE SMOOTH",
"310.667 1168 OFFCURVE",
"344 1224 OFFCURVE",
"402 1282 CURVE SMOOTH",
"491.333 1371.333 OFFCURVE",
"545.333 1398.667 OFFCURVE",
"628 1404 CURVE SMOOTH",
"664.667 1405.333 OFFCURVE",
"688.667 1389.333 OFFCURVE",
"700 1356 CURVE",
"712 1332 LINE"
);
}
);
width = 1167;
}
);
note = nine;
unicode = 0039;
},
{
glyphname = colon;
lastChange = "2019-05-23 17:57:26 +0000";
layers = (
{
layerId = "B32CFD71-CB6A-495B-AD15-7D36F0D81A51";
paths = (
{
closed = 1;
nodes = (
"122 132 OFFCURVE",
"133.333 106 OFFCURVE",
"160 82 CURVE SMOOTH",
"172 70.667 OFFCURVE",
"190.667 56.667 OFFCURVE",
"216 40 CURVE SMOOTH",
"259.333 13.333 OFFCURVE",
"298.667 0 OFFCURVE",
"334 0 CURVE SMOOTH",
"389.333 0 OFFCURVE",
"433.333 34 OFFCURVE",
"466 102 CURVE",
"484.667 135.333 OFFCURVE",
"493 153.333 OFFCURVE",
"493 168 CURVE SMOOTH",
"493 176.667 OFFCURVE",
"490 185.5 OFFCURVE",
"484 194.5 CURVE SMOOTH",
"478 203.5 OFFCURVE",
"467.333 216 OFFCURVE",
"452 232 CURVE SMOOTH",
"417.333 269.333 OFFCURVE",
"351 292 OFFCURVE",
"283 292 CURVE SMOOTH",
"236.333 292 OFFCURVE",
"197.333 282 OFFCURVE",
"166 262 CURVE",
"136.667 246.667 OFFCURVE",
"122 216.667 OFFCURVE",
"122 172 CURVE SMOOTH"
);
},
{
closed = 1;
nodes = (
"193.333 742 OFFCURVE",
"246.667 690 OFFCURVE",
"304 690 CURVE SMOOTH",
"362.667 690 OFFCURVE",
"418.167 740.833 OFFCURVE",
"449.5 805.5 CURVE SMOOTH",
"465.167 837.833 OFFCURVE",
"473 867.667 OFFCURVE",
"473 895 CURVE SMOOTH",
"473 909 OFFCURVE",
"470.667 920.667 OFFCURVE",
"466 930 CURVE SMOOTH",
"446 971.333 OFFCURVE",
"420.667 998 OFFCURVE",
"398 998 CURVE",
"376 996 LINE",
"334 990 LINE",
"316 988.667 OFFCURVE",
"302.667 986.667 OFFCURVE",
"294 984 CURVE",
"218 972 OFFCURVE",
"155 911 OFFCURVE",
"155 847 CURVE SMOOTH",
"155 839 OFFCURVE",
"156.667 829.333 OFFCURVE",
"160 818 CURVE"
);
}
);
width = 615;
}
);
note = colon;
unicode = 003A;
},
{
glyphname = semicolon;
lastChange = "2019-05-23 17:57:26 +0000";
layers = (
{
layerId = "B32CFD71-CB6A-495B-AD15-7D36F0D81A51";
paths = (
{
closed = 1;
nodes = (
"254 63.333 OFFCURVE",
"262 44.667 OFFCURVE",
"262 22 CURVE SMOOTH",
"262 15.333 OFFCURVE",
"261 7.333 OFFCURVE",
"259 -2 CURVE SMOOTH",
"253 -31.333 OFFCURVE",
"230.667 -93.333 OFFCURVE",
"192 -188 CURVE",
"189.333 -192.667 OFFCURVE",
"188 -198 OFFCURVE",
"188 -204 CURVE SMOOTH",
"188 -226 OFFCURVE",
"206 -254 OFFCURVE",
"242 -288 CURVE SMOOTH",
"281.333 -326.667 OFFCURVE",
"316.667 -346 OFFCURVE",
"348 -346 CURVE SMOOTH",
"378.667 -346 OFFCURVE",
"408.667 -325.333 OFFCURVE",
"438 -284 CURVE",
"478 -232 OFFCURVE",
"528.333 -101.167 OFFCURVE",
"559 23.5 CURVE SMOOTH",
"574.333 85.833 OFFCURVE",
"582 136 OFFCURVE",
"582 174 CURVE SMOOTH",
"582 255.131 OFFCURVE",
"572.946 269.192 OFFCURVE",
"502 314 CURVE SMOOTH",
"453.333 346 OFFCURVE",
"411.667 362 OFFCURVE",
"377 362 CURVE SMOOTH",
"343 362 OFFCURVE",
"306 346 OFFCURVE",
"266 314 CURVE SMOOTH",
"224.667 280.667 OFFCURVE",
"203 230 OFFCURVE",
"203 178 CURVE SMOOTH",
"203 137.333 OFFCURVE",
"214.667 104 OFFCURVE",
"238 78 CURVE"
);
},
{
closed = 1;
nodes = (
"446.667 863.333 OFFCURVE",
"481.333 836 OFFCURVE",
"502 836 CURVE SMOOTH",
"524.667 836 OFFCURVE",
"592 902.667 OFFCURVE",
"640 968 CURVE SMOOTH",
"664 1000.667 OFFCURVE",
"676 1024 OFFCURVE",
"676 1038 CURVE SMOOTH",
"676 1073.33 OFFCURVE",
"577.463 1170.495 OFFCURVE",
"546 1166 CURVE",
"532.667 1166 OFFCURVE",
"494 1156 OFFCURVE",
"430 1136 CURVE SMOOTH",
"360 1116 OFFCURVE",
"325 1085 OFFCURVE",
"325 1043 CURVE SMOOTH",
"325 1009.667 OFFCURVE",
"349.333 968 OFFCURVE",
"398 918 CURVE"
);
}
);
width = 789;
}
);
note = semicolon;
unicode = 003B;
},
{
glyphname = less;
lastChange = "2019-05-23 17:57:26 +0000";
layers = (
{
layerId = "B32CFD71-CB6A-495B-AD15-7D36F0D81A51";
paths = (
{
closed = 1;
nodes = (
"755.333 769.333 OFFCURVE",
"766 803.333 OFFCURVE",
"766 834 CURVE SMOOTH",
"766 846.667 OFFCURVE",
"764 857.333 OFFCURVE",
"760 866 CURVE",
"745.333 894 OFFCURVE",
"720 910 OFFCURVE",
"692 910 CURVE SMOOTH",
"670.667 910 OFFCURVE",
"649.333 901.333 OFFCURVE",
"628 884 CURVE SMOOTH",
"387.333 688.667 OFFCURVE",
"226 555.333 OFFCURVE",
"144 484 CURVE SMOOTH",
"113.333 458.667 OFFCURVE",
"87 406.667 OFFCURVE",
"87 372 CURVE SMOOTH",
"87 366.667 OFFCURVE",
"87.333 362.667 OFFCURVE",
"88 360 CURVE SMOOTH",
"96 332 OFFCURVE",
"161.333 298 OFFCURVE",
"204 294 CURVE SMOOTH",
"399.333 270.667 OFFCURVE",
"567.333 201.333 OFFCURVE",
"708 86 CURVE",
"720 75.333 OFFCURVE",
"758.667 46 OFFCURVE",
"780 30 CURVE SMOOTH",
"798.667 15.333 OFFCURVE",
"811.333 10.667 OFFCURVE",
"834 4 CURVE",
"842 1.333 OFFCURVE",
"852 0 OFFCURVE",
"864 0 CURVE SMOOTH",
"898.667 0 OFFCURVE",
"934 12 OFFCURVE",
"950 32 CURVE",
"962 50 OFFCURVE",
"968 73 OFFCURVE",
"968 101 CURVE SMOOTH",
"968 146.333 OFFCURVE",
"952.333 200 OFFCURVE",
"923 252 CURVE SMOOTH",
"899.667 294 OFFCURVE",
"876 319.333 OFFCURVE",
"852 328 CURVE SMOOTH",
"438 472 LINE",
"458.667 492 OFFCURVE",
"498.333 528 OFFCURVE",
"557 580 CURVE SMOOTH",
"605 622.667 OFFCURVE",
"639.333 653.667 OFFCURVE",
"660 673 CURVE SMOOTH",
"690 700.333 OFFCURVE",
"716 726.667 OFFCURVE",
"738 752 CURVE"
);
}
);
width = 1055;
}
);
note = less;
unicode = 003C;
},
{
glyphname = equal;
lastChange = "2019-05-23 17:57:26 +0000";
layers = (
{
layerId = "B32CFD71-CB6A-495B-AD15-7D36F0D81A51";
paths = (
{
closed = 1;
nodes = (
"902.667 373.333 OFFCURVE",
"592.667 374 OFFCURVE",
"146 374 CURVE",
"152.667 272.667 OFFCURVE",
"182.333 232 OFFCURVE",
"249 232 CURVE SMOOTH",
"256.333 232 OFFCURVE",
"269.333 233.333 OFFCURVE",
"288 236 CURVE SMOOTH",
"379.333 250 OFFCURVE",
"475.667 257 OFFCURVE",
"577 257 CURVE SMOOTH",
"696.333 257 OFFCURVE",
"827.333 246.667 OFFCURVE",
"970 226 CURVE SMOOTH",
"982.667 224 OFFCURVE",
"995 223 OFFCURVE",
"1007 223 CURVE SMOOTH",
"1077.667 223 OFFCURVE",
"1129.333 257.333 OFFCURVE",
"1162 326 CURVE",
"1140 341 LINE SMOOTH",
"1112 361 OFFCURVE",
"1094.667 372 OFFCURVE",
"1080 372 CURVE SMOOTH"
);
},
{
closed = 1;
nodes = (
"374 542 OFFCURVE",
"446 549 OFFCURVE",
"502 553 CURVE SMOOTH",
"608 561.667 OFFCURVE",
"684.667 566 OFFCURVE",
"732 566 CURVE SMOOTH",
"817.333 566 OFFCURVE",
"875.333 565 OFFCURVE",
"934 557 CURVE SMOOTH",
"982 550.333 OFFCURVE",
"1018 544.667 OFFCURVE",
"1042 540 CURVE SMOOTH",
"1050.667 538 OFFCURVE",
"1060.667 540 OFFCURVE",
"1072 546 CURVE SMOOTH",
"1083.333 552 OFFCURVE",
"1102 562.667 OFFCURVE",
"1128 578 CURVE",
"1100 652.667 OFFCURVE",
"1051.333 690 OFFCURVE",
"982 690 CURVE SMOOTH",
"880.667 691.333 OFFCURVE",
"605.333 692 OFFCURVE",
"156 692 CURVE",
"155.333 686 OFFCURVE",
"155 677 OFFCURVE",
"155 665 CURVE SMOOTH",
"155 573 OFFCURVE",
"190 531 OFFCURVE",
"266 531 CURVE SMOOTH",
"274.667 531 OFFCURVE",
"281.333 531.333 OFFCURVE",
"286 532 CURVE SMOOTH"
);
}
);
width = 1250;
}
);
note = equal;
unicode = 003D;
},
{
glyphname = greater;
lastChange = "2019-05-23 17:57:26 +0000";
layers = (
{
layerId = "B32CFD71-CB6A-495B-AD15-7D36F0D81A51";
paths = (
{
closed = 1;
nodes = (
"222 64.667 OFFCURVE",
"300.667 14.667 OFFCURVE",
"322 0 CURVE",
"654 361 LINE",
"982 718 LINE",
"911.333 816.667 OFFCURVE",
"784.667 890.333 OFFCURVE",
"670 917 CURVE SMOOTH",
"502 956.333 OFFCURVE",
"382.667 994 OFFCURVE",
"312 1030 CURVE SMOOTH",
"304.667 1034 OFFCURVE",
"295.667 1036 OFFCURVE",
"285 1036 CURVE SMOOTH",
"276.333 1036 OFFCURVE",
"265.5 1034.833 OFFCURVE",
"252.5 1032.5 CURVE SMOOTH",
"239.5 1030.167 OFFCURVE",
"227.333 1028 OFFCURVE",
"216 1026 CURVE",
"204.667 1022.667 OFFCURVE",
"195.333 1020.667 OFFCURVE",
"188 1020 CURVE",
"213.333 957.333 OFFCURVE",
"256 907.667 OFFCURVE",
"300 877 CURVE SMOOTH",
"320.667 862.333 OFFCURVE",
"346.333 849.667 OFFCURVE",
"377 839 CURVE SMOOTH",
"427.667 821.667 OFFCURVE",
"472.333 810 OFFCURVE",
"527 798 CURVE",
"532.333 797.333 OFFCURVE",
"541 795.667 OFFCURVE",
"553 793 CURVE SMOOTH",
"582 786 LINE SMOOTH",
"616.667 778 OFFCURVE",
"639.333 772.667 OFFCURVE",
"650 770 CURVE",
"86 150 LINE"
);
}
);
width = 1067;
}
);
note = greater;
unicode = 003E;
},
{
glyphname = question;
lastChange = "2019-05-23 17:57:26 +0000";
layers = (
{
layerId = "B32CFD71-CB6A-495B-AD15-7D36F0D81A51";
paths = (
{
closed = 1;
nodes = (
"483.333 -226 OFFCURVE",
"537 -252 OFFCURVE",
"593 -252 CURVE SMOOTH",
"663.667 -252 OFFCURVE",
"725 -212.667 OFFCURVE",
"725 -162 CURVE SMOOTH",
"725 -130 OFFCURVE",
"702.667 -100 OFFCURVE",
"658 -72 CURVE SMOOTH",
"620.667 -48 OFFCURVE",
"594.333 -37 OFFCURVE",
"569 -37 CURVE SMOOTH",
"541 -37 OFFCURVE",
"514.667 -50 OFFCURVE",
"480 -78 CURVE SMOOTH",
"449.333 -102 OFFCURVE",
"437 -116.667 OFFCURVE",
"437 -134 CURVE SMOOTH",
"437 -142.667 OFFCURVE",
"441.333 -154.667 OFFCURVE",
"450 -170 CURVE SMOOTH"
);
},
{
closed = 1;
nodes = (
"747.333 1741.333 OFFCURVE",
"591.333 1621.333 OFFCURVE",
"518 1400 CURVE SMOOTH",
"501.333 1351.333 OFFCURVE",
"493 1317 OFFCURVE",
"493 1297 CURVE SMOOTH",
"493 1258.333 OFFCURVE",
"518.667 1248 OFFCURVE",
"588 1248 CURVE SMOOTH",
"642.667 1248 OFFCURVE",
"684 1268 OFFCURVE",
"712 1308 CURVE SMOOTH",
"746.667 1358.667 OFFCURVE",
"777.333 1398.667 OFFCURVE",
"804 1428 CURVE SMOOTH",
"828 1456 OFFCURVE",
"850.667 1476.667 OFFCURVE",
"872 1490 CURVE SMOOTH",
"893.333 1503.333 OFFCURVE",
"915.333 1513.333 OFFCURVE",
"938 1520 CURVE",
"987.333 1527.333 OFFCURVE",
"1030 1541.333 OFFCURVE",
"1066 1562 CURVE",
"1082.667 1569.333 OFFCURVE",
"1101 1573 OFFCURVE",
"1121 1573 CURVE SMOOTH",
"1139.667 1573 OFFCURVE",
"1162 1569.333 OFFCURVE",
"1188 1562 CURVE",
"1237.667 1541.765 OFFCURVE",
"1249 1532.753 OFFCURVE",
"1249 1480 CURVE SMOOTH",
"1249 1464 OFFCURVE",
"1248.667 1450.667 OFFCURVE",
"1248 1440 CURVE",
"1247.333 1374.667 OFFCURVE",
"1232.667 1314 OFFCURVE",
"1204 1258 CURVE SMOOTH",
"1184.667 1220 OFFCURVE",
"1154 1174.667 OFFCURVE",
"1112 1122 CURVE SMOOTH",
"1069.333 1071.333 OFFCURVE",
"1024.667 1024.667 OFFCURVE",
"978 982 CURVE SMOOTH",
"930.667 938.667 OFFCURVE",
"888 907.333 OFFCURVE",
"850 888 CURVE SMOOTH",
"606 769.333 OFFCURVE",
"473 628.667 OFFCURVE",
"473 490 CURVE SMOOTH",
"473 462.667 OFFCURVE",
"478.667 434.667 OFFCURVE",
"490 406 CURVE SMOOTH",
"520.667 335.333 OFFCURVE",
"579.333 263.167 OFFCURVE",
"638 222.5 CURVE SMOOTH",
"667.333 202.167 OFFCURVE",
"693 192 OFFCURVE",
"715 192 CURVE SMOOTH",
"718.333 192 OFFCURVE",
"723.333 192.667 OFFCURVE",
"730 194 CURVE",
"799.333 214 OFFCURVE",
"837 253.667 OFFCURVE",
"837 299 CURVE SMOOTH",
"837 329.667 OFFCURVE",
"821.333 360.667 OFFCURVE",
"790 392 CURVE SMOOTH",
"762 420 OFFCURVE",
"748 446.333 OFFCURVE",
"748 471 CURVE SMOOTH",
"748 489.667 OFFCURVE",
"756 507.333 OFFCURVE",
"772 524 CURVE SMOOTH",
"808 562 OFFCURVE",
"901.333 611.333 OFFCURVE",
"1052 672 CURVE SMOOTH",
"1110.667 696 OFFCURVE",
"1228.167 818.667 OFFCURVE",
"1331.5 960 CURVE SMOOTH",
"1383.167 1030.667 OFFCURVE",
"1422.667 1094.333 OFFCURVE",
"1450 1151 CURVE SMOOTH",
"1519.333 1292.333 OFFCURVE",
"1561 1429 OFFCURVE",
"1561 1509 CURVE SMOOTH",
"1561 1526.333 OFFCURVE",
"1558.667 1541.333 OFFCURVE",
"1554 1554 CURVE SMOOTH",
"1535.333 1604.667 OFFCURVE",
"1462.167 1672 OFFCURVE",
"1377.5 1720 CURVE SMOOTH",
"1335.167 1744 OFFCURVE",
"1296.667 1759.333 OFFCURVE",
"1262 1766 CURVE SMOOTH",
"1229.333 1773.333 OFFCURVE",
"1203.333 1778.667 OFFCURVE",
"1184 1782 CURVE SMOOTH",
"1164.667 1785.333 OFFCURVE",
"1152 1787.333 OFFCURVE",
"1146 1788 CURVE",
"1137.333 1788 OFFCURVE",
"1127.333 1784 OFFCURVE",
"1116 1776 CURVE",
"1103.333 1768.667 OFFCURVE",
"1060 1763.333 OFFCURVE",
"986 1760 CURVE SMOOTH"
);
}
);
width = 1647;
}
);
note = question;
unicode = 003F;
},
{
glyphname = at;
lastChange = "2019-05-23 17:57:26 +0000";
layers = (
{
layerId = "B32CFD71-CB6A-495B-AD15-7D36F0D81A51";
paths = (
{
closed = 1;
nodes = (
"854 1376.667 OFFCURVE",
"824.667 1361.333 OFFCURVE",
"788 1344 CURVE SMOOTH",
"697.333 1300 OFFCURVE",
"693.667 1298 OFFCURVE",
"643 1254 CURVE SMOOTH",
"613.667 1228 OFFCURVE",
"588 1201.333 OFFCURVE",
"566 1174 CURVE SMOOTH",
"514 1107.333 OFFCURVE",
"454.667 1052 OFFCURVE",
"388 1008 CURVE SMOOTH",
"330 971.333 OFFCURVE",
"282.667 916.667 OFFCURVE",
"246 844 CURVE",
"241.333 830 OFFCURVE",
"230.667 806 OFFCURVE",
"214 772 CURVE",
"200.667 742 OFFCURVE",
"190 716.667 OFFCURVE",
"182 696 CURVE",
"150 622 LINE SMOOTH",
"127.333 564.667 OFFCURVE",
"115.333 524.667 OFFCURVE",
"102 454 CURVE SMOOTH",
"96 426.667 OFFCURVE",
"91.333 394.667 OFFCURVE",
"88 358 CURVE SMOOTH",
"86 329.333 OFFCURVE",
"85 304.333 OFFCURVE",
"85 283 CURVE SMOOTH",
"85 224.333 OFFCURVE",
"93.667 185.667 OFFCURVE",
"119 131 CURVE SMOOTH",
"131.667 103.667 OFFCURVE",
"152 64.667 OFFCURVE",
"180 14 CURVE SMOOTH",
"244 -110.667 OFFCURVE",
"308.667 -206.667 OFFCURVE",
"374 -274 CURVE SMOOTH",
"455.333 -355.333 OFFCURVE",
"573 -431.167 OFFCURVE",
"677 -474.5 CURVE SMOOTH",
"729 -496.167 OFFCURVE",
"771.667 -507 OFFCURVE",
"805 -507 CURVE SMOOTH",
"825.667 -507 OFFCURVE",
"840.667 -502.667 OFFCURVE",
"850 -494 CURVE",
"870 -478 OFFCURVE",
"902.667 -468 OFFCURVE",
"948 -464 CURVE SMOOTH",
"994.667 -461.333 OFFCURVE",
"1020 -448.667 OFFCURVE",
"1024 -426 CURVE",
"1024 -413.333 OFFCURVE",
"978 -405.333 OFFCURVE",
"886 -402 CURVE",
"605.333 -407.333 OFFCURVE",
"396.667 -268.667 OFFCURVE",
"260 14 CURVE SMOOTH",
"205.333 128.667 OFFCURVE",
"190 171.667 OFFCURVE",
"190 233 CURVE SMOOTH",
"190 255 OFFCURVE",
"192 281.333 OFFCURVE",
"196 312 CURVE SMOOTH",
"204.667 396.667 OFFCURVE",
"236 487.333 OFFCURVE",
"290 584 CURVE SMOOTH",
"342 676 OFFCURVE",
"368 728.667 OFFCURVE",
"368 742 CURVE SMOOTH",
"368 755.333 OFFCURVE",
"432 826 OFFCURVE",
"560 954 CURVE SMOOTH",
"691.333 1085.333 OFFCURVE",
"796 1167.333 OFFCURVE",
"874 1200 CURVE",
"1017.333 1267.333 OFFCURVE",
"1116 1311.333 OFFCURVE",
"1170 1332 CURVE SMOOTH",
"1224 1352.667 OFFCURVE",
"1282 1369.333 OFFCURVE",
"1344 1382 CURVE SMOOTH",
"1396.667 1394.667 OFFCURVE",
"1448 1401 OFFCURVE",
"1498 1401 CURVE SMOOTH",
"1631.333 1401 OFFCURVE",
"1744 1356 OFFCURVE",
"1816 1276 CURVE SMOOTH",
"1852 1236 OFFCURVE",
"1876 1188.667 OFFCURVE",
"1888 1134 CURVE SMOOTH",
"1909.333 1032.667 OFFCURVE",
"1923.333 962.667 OFFCURVE",
"1930 924 CURVE",
"1940.667 882 OFFCURVE",
"1946 845.667 OFFCURVE",
"1946 815 CURVE SMOOTH",
"1946 791.667 OFFCURVE",
"1943.333 773.333 OFFCURVE",
"1938 760 CURVE SMOOTH",
"1929.333 736.667 OFFCURVE",
"1925 716.667 OFFCURVE",
"1925 700 CURVE SMOOTH",
"1925 691.333 OFFCURVE",
"1926 684 OFFCURVE",
"1928 678 CURVE",
"1934.823 647.297 OFFCURVE",
"1890.786 543.502 OFFCURVE",
"1848 459 CURVE SMOOTH",
"1821.333 406.333 OFFCURVE",
"1792.667 357.333 OFFCURVE",
"1762 312 CURVE",
"1704.667 220 OFFCURVE",
"1569.333 104.667 OFFCURVE",
"1436 30 CURVE SMOOTH",
"1369.333 -7.333 OFFCURVE",
"1314 -28 OFFCURVE",
"1270 -32 CURVE",
"1208.667 -40.667 OFFCURVE",
"1172 -52 OFFCURVE",
"1160 -66 CURVE",
"1150.667 -80.667 OFFCURVE",
"1115.333 -88 OFFCURVE",
"1066 -88 CURVE SMOOTH",
"984.667 -88 OFFCURVE",
"879.333 -68.667 OFFCURVE",
"822 -42 CURVE",
"764.667 -10 OFFCURVE",
"741 10.167 OFFCURVE",
"725 49.5 CURVE SMOOTH",
"717 69.167 OFFCURVE",
"709.333 98 OFFCURVE",
"702 136 CURVE",
"689.333 182.667 OFFCURVE",
"683 220.667 OFFCURVE",
"683 250 CURVE SMOOTH",
"683 271.333 OFFCURVE",
"686.667 286 OFFCURVE",
"694 294 CURVE",
"710 314 OFFCURVE",
"728 356 OFFCURVE",
"748 420 CURVE SMOOTH",
"772 497.333 OFFCURVE",
"842.667 630.167 OFFCURVE",
"908 725.5 CURVE SMOOTH",
"940.667 773.167 OFFCURVE",
"965.333 801.333 OFFCURVE",
"982 810 CURVE SMOOTH",
"1018 828.667 OFFCURVE",
"1084 840 OFFCURVE",
"1140 840 CURVE SMOOTH",
"1161.333 840 OFFCURVE",
"1179 838.333 OFFCURVE",
"1193 835 CURVE SMOOTH",
"1207 831.667 OFFCURVE",
"1214.667 826.667 OFFCURVE",
"1216 820 CURVE",
"1219.333 813.333 OFFCURVE",
"1211.333 801.333 OFFCURVE",
"1192 784 CURVE",
"1173.333 765.333 OFFCURVE",
"1149.333 747.333 OFFCURVE",
"1120 730 CURVE SMOOTH",
"1049.333 689.333 OFFCURVE",
"982 614 OFFCURVE",
"918 504 CURVE SMOOTH",
"852.667 398.667 OFFCURVE",
"820 325.333 OFFCURVE",
"820 284 CURVE SMOOTH",
"820 249.333 OFFCURVE",
"849.833 185.5 OFFCURVE",
"890.5 131.5 CURVE SMOOTH",
"910.833 104.5 OFFCURVE",
"930.667 84.667 OFFCURVE",
"950 72 CURVE",
"961.333 63.333 OFFCURVE",
"978.667 59 OFFCURVE",
"1002 59 CURVE SMOOTH",
"1064.667 59 OFFCURVE",
"1157.333 95.333 OFFCURVE",
"1224 150 CURVE SMOOTH",
"1269.333 186 OFFCURVE",
"1298.667 205.667 OFFCURVE",
"1312 209 CURVE SMOOTH",
"1326 212.333 OFFCURVE",
"1342.667 204.667 OFFCURVE",
"1362 186 CURVE",
"1391.333 162 OFFCURVE",
"1410.667 150 OFFCURVE",
"1420 150 CURVE SMOOTH",
"1427.333 150 OFFCURVE",
"1431.333 152 OFFCURVE",
"1432 156 CURVE",
"1435.333 160 OFFCURVE",
"1437 166.333 OFFCURVE",
"1437 175 CURVE SMOOTH",
"1437 193.667 OFFCURVE",
"1424 218 OFFCURVE",
"1398 248 CURVE",
"1380.667 265.333 OFFCURVE",
"1372 279.667 OFFCURVE",
"1372 291 CURVE SMOOTH",
"1372 302.333 OFFCURVE",
"1380 324 OFFCURVE",
"1396 356 CURVE SMOOTH",
"1451.333 460 OFFCURVE",
"1484.667 588.667 OFFCURVE",
"1496 742 CURVE SMOOTH",
"1500.667 794.667 OFFCURVE",
"1503 828.667 OFFCURVE",
"1503 844 CURVE SMOOTH",
"1503 896 OFFCURVE",
"1492 914.667 OFFCURVE",
"1452 952 CURVE SMOOTH",
"1436 966 OFFCURVE",
"1418.667 976.667 OFFCURVE",
"1400 984 CURVE SMOOTH",
"1379.333 992.667 OFFCURVE",
"1353.667 999.333 OFFCURVE",
"1323 1004 CURVE SMOOTH",
"1289.667 1009.333 OFFCURVE",
"1242 1013.333 OFFCURVE",
"1180 1016 CURVE SMOOTH",
"964 1032 LINE",
"844 912 LINE SMOOTH",
"765.333 828.667 OFFCURVE",
"726 776.667 OFFCURVE",
"726 756 CURVE SMOOTH",
"726 731.333 OFFCURVE",
"714.667 697.333 OFFCURVE",
"692 654 CURVE SMOOTH",
"597.333 466 OFFCURVE",
"558 358.667 OFFCURVE",
"558 272 CURVE SMOOTH",
"558 226.667 OFFCURVE",
"570 181.333 OFFCURVE",
"594 136 CURVE SMOOTH",
"618 87.333 OFFCURVE",
"630 47.333 OFFCURVE",
"630 16 CURVE SMOOTH",
"630 -37.333 OFFCURVE",
"717.5 -116.667 OFFCURVE",
"835.5 -178 CURVE SMOOTH",
"894.5 -208.667 OFFCURVE",
"952 -230 OFFCURVE",
"1008 -242 CURVE",
"1012 -242.667 OFFCURVE",
"1019 -243 OFFCURVE",
"1029 -243 CURVE SMOOTH",
"1114.333 -243 OFFCURVE",
"1294.667 -204 OFFCURVE",
"1388 -160 CURVE SMOOTH",
"1526.667 -96 OFFCURVE",
"1629.333 -35.333 OFFCURVE",
"1696 22 CURVE SMOOTH",
"1759.333 75.333 OFFCURVE",
"1797.333 102 OFFCURVE",
"1810 102 CURVE SMOOTH",
"1840.667 102 OFFCURVE",
"1877 139.667 OFFCURVE",
"1877 173 CURVE SMOOTH",
"1877 183 OFFCURVE",
"1874 192 OFFCURVE",
"1868 200 CURVE",
"1849.333 218.667 OFFCURVE",
"1840 241.333 OFFCURVE",
"1840 268 CURVE SMOOTH",
"1840 306.667 OFFCURVE",
"1859.333 353.333 OFFCURVE",
"1898 408 CURVE",
"1916.667 437.333 OFFCURVE",
"1938 485.333 OFFCURVE",
"1962 552 CURVE SMOOTH",
"1984.667 617.333 OFFCURVE",
"2006 686.667 OFFCURVE",
"2026 760 CURVE SMOOTH",
"2043.333 832.667 OFFCURVE",
"2052 886 OFFCURVE",
"2052 920 CURVE SMOOTH",
"2052 958 OFFCURVE",
"2045.333 992 OFFCURVE",
"2032 1022 CURVE",
"2016.667 1045.333 OFFCURVE",
"2003.333 1088 OFFCURVE",
"1992 1150 CURVE",
"1980 1235.333 OFFCURVE",
"1908.167 1343 OFFCURVE",
"1815.5 1423 CURVE SMOOTH",
"1769.167 1463 OFFCURVE",
"1723.333 1490.667 OFFCURVE",
"1678 1506 CURVE SMOOTH",
"1606 1530.667 OFFCURVE",
"1531.667 1543 OFFCURVE",
"1455 1543 CURVE SMOOTH",
"1354.333 1543 OFFCURVE",
"1248 1525.333 OFFCURVE",
"1136 1490 CURVE SMOOTH",
"1042 1462.667 OFFCURVE",
"955.333 1429.333 OFFCURVE",
"876 1390 CURVE"
);
},
{
closed = 1;
nodes = (
"1108.667 354.667 OFFCURVE",
"1081.333 341 OFFCURVE",
"1058 341 CURVE SMOOTH",
"1044.667 341 OFFCURVE",
"1038 346.333 OFFCURVE",
"1038 357 CURVE SMOOTH",
"1038 363.667 OFFCURVE",
"1039.333 370 OFFCURVE",
"1042 376 CURVE",
"1051.333 406 OFFCURVE",
"1056 424.667 OFFCURVE",
"1056 432 CURVE SMOOTH",
"1056 467.53 OFFCURVE",
"1154.579 578 OFFCURVE",
"1186 578 CURVE SMOOTH",
"1208.667 578 OFFCURVE",
"1223.333 564.667 OFFCURVE",
"1230 538 CURVE",
"1232.667 532 OFFCURVE",
"1234 525 OFFCURVE",
"1234 517 CURVE SMOOTH",
"1234 481 OFFCURVE",
"1202.667 436 OFFCURVE",
"1140 382 CURVE SMOOTH"
);
}
);
width = 2137;
}
);
note = at;
unicode = 0040;
},
{
glyphname = A;
lastChange = "2019-05-24 05:17:09 +0000";
layers = (
{
anchors = (
{
name = bottom;
position = "{866, 0}";
},
{
name = ogonek;
position = "{1558, 10}";
},
{
name = top;
position = "{1411, 1930}";
}
);
layerId = "B32CFD71-CB6A-495B-AD15-7D36F0D81A51";
paths = (
{
closed = 1;
nodes = (
"1679 204 OFFCURVE",
"1557 130 OFFCURVE",
"1453 94 CURVE SMOOTH",
"1307 43 OFFCURVE",
"1403 121 OFFCURVE",
"1256 136 CURVE",
"1197 136 OFFCURVE",
"1140 228 OFFCURVE",
"1140 288 CURVE SMOOTH",
"1140 367 OFFCURVE",
"1269 646 OFFCURVE",
"1286 764 CURVE SMOOTH",
"1309 901 OFFCURVE",
"1384 991 OFFCURVE",
"1438 1158 CURVE SMOOTH",
"1487 1305 OFFCURVE",
"1606 1556 OFFCURVE",
"1606 1676 CURVE SMOOTH",
"1606 1762 OFFCURVE",
"1589 1782 OFFCURVE",
"1518 1842 CURVE SMOOTH",
"1411 1930 OFFCURVE",
"1414 1922 OFFCURVE",
"1262 1876 CURVE SMOOTH",
"1067 1814 OFFCURVE",
"993 1767 OFFCURVE",
"820 1624 CURVE SMOOTH",
"708 1533.333 OFFCURVE",
"645.333 1492 OFFCURVE",
"632 1500 CURVE SMOOTH",
"595 1522 OFFCURVE",
"520 1376 OFFCURVE",
"494 1286 CURVE SMOOTH",
"469 1196 OFFCURVE",
"343 893 OFFCURVE",
"299 860 CURVE SMOOTH",
"283.667 848.667 OFFCURVE",
"276 825.333 OFFCURVE",
"276 790 CURVE SMOOTH",
"276 726 OFFCURVE",
"204 653 OFFCURVE",
"204 588 CURVE SMOOTH",
"204 545 OFFCURVE",
"195 515 OFFCURVE",
"178 498 CURVE SMOOTH",
"145 465 OFFCURVE",
"86 221 OFFCURVE",
"86 154 CURVE SMOOTH",
"86 52 OFFCURVE",
"246 -109 OFFCURVE",
"358 -109 CURVE SMOOTH",
"440 -109 OFFCURVE",
"552 -26 OFFCURVE",
"670 66 CURVE SMOOTH",
"805 177 OFFCURVE",
"879 232 OFFCURVE",
"892 232 CURVE SMOOTH",
"907 232 OFFCURVE",
"921 211 OFFCURVE",
"932 170 CURVE",
"957 60 OFFCURVE",
"1220 -94 OFFCURVE",
"1344 -94 CURVE SMOOTH",
"1414 -94 OFFCURVE",
"1632 15 OFFCURVE",
"1724 76 CURVE",
"1844 165 OFFCURVE",
"1872 185 OFFCURVE",
"1872 238 CURVE",
"1872 313 OFFCURVE",
"1824 321 OFFCURVE",
"1762 272 CURVE SMOOTH"
);
},
{
closed = 1;
nodes = (
"679 376 OFFCURVE",
"534 208 OFFCURVE",
"420 208 CURVE SMOOTH",
"328 208 OFFCURVE",
"311 239 OFFCURVE",
"356 330 CURVE",
"383 379 OFFCURVE",
"396 414 OFFCURVE",
"396 436 CURVE SMOOTH",
"396 498 OFFCURVE",
"515 789 OFFCURVE",
"576 878 CURVE SMOOTH",
"629 955 OFFCURVE",
"656 1003 OFFCURVE",
"656 1023 CURVE SMOOTH",
"656 1024 OFFCURVE",
"707 1163 OFFCURVE",
"732 1163 CURVE",
"770 1163 OFFCURVE",
"868 1286 OFFCURVE",
"868 1326 CURVE SMOOTH",
"868 1442 OFFCURVE",
"1174 1661 OFFCURVE",
"1304 1661 CURVE SMOOTH",
"1360 1661 OFFCURVE",
"1391 1632 OFFCURVE",
"1391 1588 CURVE SMOOTH",
"1391 1536 OFFCURVE",
"1348 1474.667 OFFCURVE",
"1272 1432 CURVE",
"1194 1378 OFFCURVE",
"1251 1317 OFFCURVE",
"1216 1262 CURVE SMOOTH",
"1165 1188 OFFCURVE",
"1105 974 OFFCURVE",
"1033 860 CURVE SMOOTH",
"989 791 OFFCURVE",
"903 672 OFFCURVE",
"774 504 CURVE SMOOTH"
);
}
);
width = 1731;
}
);
note = A;
unicode = 0041;
},
{
glyphname = B;
lastChange = "2019-05-23 17:57:26 +0000";
layers = (
{
layerId = "B32CFD71-CB6A-495B-AD15-7D36F0D81A51";
paths = (
{
closed = 1;
nodes = (
"772.667 1818 OFFCURVE",
"726.667 1809.333 OFFCURVE",
"660 1812 CURVE SMOOTH",
"650 1812.667 OFFCURVE",
"636.333 1813 OFFCURVE",
"619 1813 CURVE SMOOTH",
"575.667 1813 OFFCURVE",
"544 1809.333 OFFCURVE",
"524 1802 CURVE SMOOTH",
"469.333 1780.667 OFFCURVE",
"435 1742.667 OFFCURVE",
"435 1704 CURVE SMOOTH",
"435 1692.667 OFFCURVE",
"438 1681.333 OFFCURVE",
"444 1670 CURVE SMOOTH",
"457.333 1644.667 OFFCURVE",
"486 1626 OFFCURVE",
"530 1614 CURVE",
"544.667 1609.333 OFFCURVE",
"563.667 1607 OFFCURVE",
"587 1607 CURVE SMOOTH",
"625.667 1607 OFFCURVE",
"674 1614.667 OFFCURVE",
"732 1630 CURVE",
"718.793 1630 OFFCURVE",
"684.431 1528.26 OFFCURVE",
"667 1475 CURVE SMOOTH",
"655 1438.333 OFFCURVE",
"647.333 1414 OFFCURVE",
"644 1402 CURVE",
"643.333 1396 OFFCURVE",
"643 1386 OFFCURVE",
"643 1372 CURVE SMOOTH",
"643 1359.333 OFFCURVE",
"643.333 1346.5 OFFCURVE",
"644 1333.5 CURVE SMOOTH",
"644.667 1320.5 OFFCURVE",
"645.333 1307 OFFCURVE",
"646 1293 CURVE SMOOTH",
"648.667 1254.333 OFFCURVE",
"650 1226.333 OFFCURVE",
"650 1209 CURVE SMOOTH",
"650 1165.667 OFFCURVE",
"640.667 1125.333 OFFCURVE",
"622 1088 CURVE SMOOTH",
"616 1076 OFFCURVE",
"598 1044 OFFCURVE",
"568 992 CURVE SMOOTH",
"546.667 955.333 OFFCURVE",
"535.333 935.333 OFFCURVE",
"534 932 CURVE SMOOTH",
"522 904 OFFCURVE",
"507 856 OFFCURVE",
"489 788 CURVE SMOOTH",
"471 721.333 OFFCURVE",
"451.333 669.333 OFFCURVE",
"430 632 CURVE",
"382 568 LINE SMOOTH",
"360.667 538.667 OFFCURVE",
"334 517.333 OFFCURVE",
"310 512 CURVE SMOOTH",
"298.667 509.333 OFFCURVE",
"282.667 508 OFFCURVE",
"262 508 CURVE SMOOTH",
"206 508 OFFCURVE",
"146.667 481.833 OFFCURVE",
"112 442.5 CURVE SMOOTH",
"94.667 422.833 OFFCURVE",
"86 402.667 OFFCURVE",
"86 382 CURVE SMOOTH",
"86 364.667 OFFCURVE",
"103.333 346 OFFCURVE",
"138 326 CURVE",
"163.333 314 OFFCURVE",
"178 299.333 OFFCURVE",
"182 282 CURVE",
"183.333 274 OFFCURVE",
"184 266 OFFCURVE",
"184 258 CURVE SMOOTH",
"184 240.667 OFFCURVE",
"181.333 212.667 OFFCURVE",
"176 174 CURVE SMOOTH",
"171.333 144 OFFCURVE",
"169 118 OFFCURVE",
"169 96 CURVE SMOOTH",
"169 82.667 OFFCURVE",
"170 72 OFFCURVE",
"172 64 CURVE SMOOTH",
"177.333 42.667 OFFCURVE",
"192 22 OFFCURVE",
"216 2 CURVE SMOOTH",
"232 -12 OFFCURVE",
"243.5 -21.5 OFFCURVE",
"250.5 -26.5 CURVE SMOOTH",
"257.5 -31.5 OFFCURVE",
"264.333 -34 OFFCURVE",
"271 -34 CURVE SMOOTH",
"279.667 -34 OFFCURVE",
"289 -30 OFFCURVE",
"299 -22 CURVE SMOOTH",
"309 -14 OFFCURVE",
"325.333 1.333 OFFCURVE",
"348 24 CURVE SMOOTH",
"426 100 LINE",
"570 -2 LINE SMOOTH",
"647.333 -59.333 OFFCURVE",
"694.333 -82.833 OFFCURVE",
"745 -91.5 CURVE SMOOTH",
"770.333 -95.833 OFFCURVE",
"802.667 -98 OFFCURVE",
"842 -98 CURVE SMOOTH",
"957.333 -94.667 OFFCURVE",
"1074.667 -59.333 OFFCURVE",
"1194 8 CURVE SMOOTH",
"1315.333 76 OFFCURVE",
"1412 162 OFFCURVE",
"1484 266 CURVE",
"1532 342 OFFCURVE",
"1544 368.333 OFFCURVE",
"1552 423 CURVE SMOOTH",
"1553.333 435 OFFCURVE",
"1554 444.667 OFFCURVE",
"1554 452 CURVE SMOOTH",
"1554 470 OFFCURVE",
"1551.333 491.333 OFFCURVE",
"1546 516 CURVE",
"1534 603.333 OFFCURVE",
"1510.667 676.667 OFFCURVE",
"1476 736 CURVE SMOOTH",
"1420 832 LINE",
"1570 960 LINE SMOOTH",
"1766.667 1136.667 OFFCURVE",
"1883.333 1316.667 OFFCURVE",
"1920 1500 CURVE SMOOTH",
"1930.667 1545.333 OFFCURVE",
"1938 1586 OFFCURVE",
"1938 1610 CURVE SMOOTH",
"1938 1650 OFFCURVE",
"1926 1674 OFFCURVE",
"1886 1730 CURVE",
"1846.667 1792 OFFCURVE",
"1802 1836.667 OFFCURVE",
"1752 1864 CURVE",
"1706 1886.667 OFFCURVE",
"1649.667 1898 OFFCURVE",
"1583 1898 CURVE SMOOTH",
"1504.333 1898 OFFCURVE",
"1424 1880.667 OFFCURVE",
"1360 1846 CURVE SMOOTH",
"1307.333 1819.333 OFFCURVE",
"1267.333 1806 OFFCURVE",
"1240 1806 CURVE SMOOTH",
"1210.667 1806 OFFCURVE",
"1196 1819 OFFCURVE",
"1196 1845 CURVE SMOOTH",
"1196 1854.333 OFFCURVE",
"1197.333 1863.333 OFFCURVE",
"1200 1872 CURVE SMOOTH",
"1204 1884 OFFCURVE",
"1206 1895.667 OFFCURVE",
"1206 1907 CURVE SMOOTH",
"1206 1963 OFFCURVE",
"1161.333 2006 OFFCURVE",
"1100 2006 CURVE SMOOTH",
"1063.333 2006 OFFCURVE",
"1014.667 1985.333 OFFCURVE",
"954 1944 CURVE SMOOTH",
"890 1902 OFFCURVE",
"838 1866.667 OFFCURVE",
"798 1838 CURVE"
);
},
{
closed = 1;
nodes = (
"1294 426.667 OFFCURVE",
"1236.667 344 OFFCURVE",
"1122 260 CURVE SMOOTH",
"1040.667 198.667 OFFCURVE",
"923 147 OFFCURVE",
"827 147 CURVE SMOOTH",
"772.333 147 OFFCURVE",
"728.667 163.333 OFFCURVE",
"696 196 CURVE SMOOTH",
"678.667 213.333 OFFCURVE",
"670 256.667 OFFCURVE",
"670 326 CURVE SMOOTH",
"670 420.667 OFFCURVE",
"687.833 538.667 OFFCURVE",
"716.5 620 CURVE SMOOTH",
"730.833 660.667 OFFCURVE",
"746 685.333 OFFCURVE",
"762 694 CURVE",
"780.667 702.667 OFFCURVE",
"808 707 OFFCURVE",
"844 707 CURVE SMOOTH",
"864 707 OFFCURVE",
"890.667 705.333 OFFCURVE",
"924 702 CURVE SMOOTH",
"929.333 701.333 OFFCURVE",
"938.333 701 OFFCURVE",
"951 701 CURVE SMOOTH",
"980.333 701 OFFCURVE",
"1013.667 703.333 OFFCURVE",
"1047 706 CURVE SMOOTH",
"1092.333 710 OFFCURVE",
"1125 712 OFFCURVE",
"1145 712 CURVE SMOOTH",
"1187.667 712 OFFCURVE",
"1220 702 OFFCURVE",
"1242 682 CURVE",
"1276.667 653.333 OFFCURVE",
"1294 595.333 OFFCURVE",
"1294 508 CURVE SMOOTH"
);
},
{
closed = 1;
nodes = (
"1589.333 1536.667 OFFCURVE",
"1607 1484 OFFCURVE",
"1607 1420 CURVE",
"1606.333 1412.667 OFFCURVE",
"1605.833 1405.333 OFFCURVE",
"1605.5 1398 CURVE SMOOTH",
"1605.167 1390.667 OFFCURVE",
"1604.667 1383.333 OFFCURVE",
"1604 1376 CURVE SMOOTH",
"1595.333 1296 OFFCURVE",
"1531.333 1212 OFFCURVE",
"1412 1124 CURVE SMOOTH",
"1292.667 1036.667 OFFCURVE",
"1177.333 987.333 OFFCURVE",
"1066 976 CURVE SMOOTH",
"1051.333 974.667 OFFCURVE",
"1040.667 974 OFFCURVE",
"1034 974 CURVE SMOOTH",
"936.667 974 OFFCURVE",
"884 1019.333 OFFCURVE",
"876 1110 CURVE SMOOTH",
"868 1200.667 OFFCURVE",
"944.667 1348.667 OFFCURVE",
"1054 1466 CURVE SMOOTH",
"1155.333 1575.333 OFFCURVE",
"1292 1654 OFFCURVE",
"1400 1654 CURVE SMOOTH",
"1460 1654 OFFCURVE",
"1511.333 1628.667 OFFCURVE",
"1554 1578 CURVE SMOOTH"
);
}
);
width = 1813;
}
);
note = B;
unicode = 0042;
},
{
glyphname = C;
lastChange = "2019-05-24 06:00:14 +0000";
layers = (
{
anchors = (
{
name = bottom;
position = "{603, -136}";
},
{
name = top;
position = "{1509, 2044}";
}
);
layerId = "B32CFD71-CB6A-495B-AD15-7D36F0D81A51";
paths = (
{
closed = 1;
nodes = (
"916.667 1728.667 OFFCURVE",
"744.833 1567.833 OFFCURVE",
"625.5 1440.5 CURVE SMOOTH",
"565.833 1376.833 OFFCURVE",
"536 1339.333 OFFCURVE",
"536 1328 CURVE SMOOTH",
"536 1286 OFFCURVE",
"480.667 1184.667 OFFCURVE",
"370 1024 CURVE",
"328.667 958 OFFCURVE",
"294 890.667 OFFCURVE",
"266 822 CURVE SMOOTH",
"256.667 800 OFFCURVE",
"243.333 773.667 OFFCURVE",
"226 743 CURVE SMOOTH",
"191.333 677.667 OFFCURVE",
"174.333 643.667 OFFCURVE",
"169 609 CURVE SMOOTH",
"166.333 591 OFFCURVE",
"165 560 OFFCURVE",
"165 516 CURVE SMOOTH",
"165 481.333 OFFCURVE",
"165.333 453.333 OFFCURVE",
"166 432 CURVE SMOOTH",
"168.086 317.268 OFFCURVE",
"171.026 242.747 OFFCURVE",
"193.5 192 CURVE SMOOTH",
"203.833 168.667 OFFCURVE",
"222.667 136 OFFCURVE",
"250 94 CURVE",
"297.333 14.667 OFFCURVE",
"361.333 -51.333 OFFCURVE",
"442 -104 CURVE SMOOTH",
"491.333 -136 OFFCURVE",
"531.333 -156 OFFCURVE",
"562 -164 CURVE",
"592.667 -170.667 OFFCURVE",
"648 -174 OFFCURVE",
"728 -174 CURVE SMOOTH",
"869.333 -174 OFFCURVE",
"923.333 -161.333 OFFCURVE",
"1034 -108 CURVE SMOOTH",
"1156 -46.667 OFFCURVE",
"1245.333 22 OFFCURVE",
"1302 98 CURVE SMOOTH",
"1336 143.333 OFFCURVE",
"1353 182.667 OFFCURVE",
"1353 216 CURVE SMOOTH",
"1353 238.667 OFFCURVE",
"1344.667 260 OFFCURVE",
"1328 280 CURVE",
"1304 306.667 OFFCURVE",
"1266 320 OFFCURVE",
"1226 320 CURVE SMOOTH",
"1160.667 320 OFFCURVE",
"1104 286.667 OFFCURVE",
"1104 240 CURVE SMOOTH",
"1104 209.333 OFFCURVE",
"1010.667 133.333 OFFCURVE",
"920 76 CURVE SMOOTH",
"872 46 OFFCURVE",
"830.667 26.667 OFFCURVE",
"796 18 CURVE",
"755.333 6 OFFCURVE",
"719 0 OFFCURVE",
"687 0 CURVE SMOOTH",
"669 0 OFFCURVE",
"652 2 OFFCURVE",
"636 6 CURVE SMOOTH",
"588 16.667 OFFCURVE",
"529 54.833 OFFCURVE",
"493 95.5 CURVE SMOOTH",
"475 115.833 OFFCURVE",
"466 133.333 OFFCURVE",
"466 148 CURVE SMOOTH",
"466 168 OFFCURVE",
"454.667 186 OFFCURVE",
"432 202 CURVE",
"400.667 228 OFFCURVE",
"385 270 OFFCURVE",
"385 328 CURVE SMOOTH",
"385 476 OFFCURVE",
"486 727.333 OFFCURVE",
"688 1082 CURVE SMOOTH",
"716 1132.667 OFFCURVE",
"758.667 1192.667 OFFCURVE",
"816 1262 CURVE SMOOTH",
"870.667 1328 OFFCURVE",
"922.667 1385.333 OFFCURVE",
"972 1434 CURVE SMOOTH",
"1020 1482 OFFCURVE",
"1050 1502.667 OFFCURVE",
"1062 1496 CURVE",
"1075.333 1486.667 OFFCURVE",
"1082 1458.667 OFFCURVE",
"1082 1412 CURVE SMOOTH",
"1082 1357.333 OFFCURVE",
"1138.667 1267 OFFCURVE",
"1212 1203 CURVE SMOOTH",
"1248 1172.333 OFFCURVE",
"1280.667 1153.333 OFFCURVE",
"1310 1146 CURVE SMOOTH",
"1312.667 1145.333 OFFCURVE",
"1317.333 1145 OFFCURVE",
"1324 1145 CURVE SMOOTH",
"1380 1145 OFFCURVE",
"1471 1192.667 OFFCURVE",
"1539 1254 CURVE SMOOTH",
"1573 1284.667 OFFCURVE",
"1595.333 1313.333 OFFCURVE",
"1606 1340 CURVE SMOOTH",
"1630.667 1400 OFFCURVE",
"1648.667 1442.667 OFFCURVE",
"1660 1468 CURVE",
"1693.333 1534 OFFCURVE",
"1710 1598 OFFCURVE",
"1710 1660 CURVE SMOOTH",
"1710 1784 OFFCURVE",
"1640 1874 OFFCURVE",
"1520 1894 CURVE",
"1455.333 1901.333 OFFCURVE",
"1408 1908.667 OFFCURVE",
"1378 1916 CURVE",
"1374.667 1917.333 OFFCURVE",
"1368.667 1918 OFFCURVE",
"1360 1918 CURVE SMOOTH",
"1328 1918 OFFCURVE",
"1274 1900.667 OFFCURVE",
"1198 1866 CURVE SMOOTH",
"1163.333 1850 OFFCURVE",
"1139.333 1842 OFFCURVE",
"1126 1842 CURVE SMOOTH",
"1100.667 1842 OFFCURVE",
"1058 1822 OFFCURVE",
"998 1782 CURVE SMOOTH"
);
},
{
closed = 1;
nodes = (
"1410 1492 LINE SMOOTH",
"1398 1472 OFFCURVE",
"1385 1454 OFFCURVE",
"1371 1438 CURVE SMOOTH",
"1357 1422 OFFCURVE",
"1348 1414 OFFCURVE",
"1344 1414 CURVE SMOOTH",
"1323.333 1414 OFFCURVE",
"1313 1422.333 OFFCURVE",
"1313 1439 CURVE SMOOTH",
"1313 1455 OFFCURVE",
"1325.333 1482.667 OFFCURVE",
"1350 1522 CURVE",
"1363.333 1547.333 OFFCURVE",
"1380.667 1568.667 OFFCURVE",
"1402 1586 CURVE SMOOTH",
"1422.667 1602.667 OFFCURVE",
"1438 1611 OFFCURVE",
"1448 1611 CURVE SMOOTH",
"1457.333 1611 OFFCURVE",
"1462 1604 OFFCURVE",
"1462 1590 CURVE SMOOTH",
"1462 1583.333 OFFCURVE",
"1456.667 1570.667 OFFCURVE",
"1446 1552 CURVE SMOOTH"
);
}
);
width = 1479;
}
);
note = C;
unicode = 0043;
},
{
glyphname = D;
lastChange = "2019-05-23 17:57:26 +0000";
layers = (
{
layerId = "B32CFD71-CB6A-495B-AD15-7D36F0D81A51";
paths = (
{
closed = 1;
nodes = (
"650.667 1483.333 OFFCURVE",
"641 1445 OFFCURVE",
"641 1405 CURVE SMOOTH",
"641 1374.333 OFFCURVE",
"646 1348 OFFCURVE",
"662 1276 CURVE",
"690 1180 OFFCURVE",
"727.333 1102.667 OFFCURVE",
"774 1044 CURVE SMOOTH",
"818 988 OFFCURVE",
"836 956.333 OFFCURVE",
"836 911 CURVE SMOOTH",
"836 886.333 OFFCURVE",
"830.333 856.167 OFFCURVE",
"819 820.5 CURVE SMOOTH",
"807.667 784.833 OFFCURVE",
"788 732.667 OFFCURVE",
"760 664 CURVE",
"748 622.667 OFFCURVE",
"722.667 553.333 OFFCURVE",
"704 512 CURVE SMOOTH",
"695.333 491.333 OFFCURVE",
"690.667 478.667 OFFCURVE",
"690 474 CURVE",
"682 447.333 OFFCURVE",
"667.333 434 OFFCURVE",
"646 434 CURVE SMOOTH",
"627.333 434 OFFCURVE",
"602.667 445.333 OFFCURVE",
"572 468 CURVE SMOOTH",
"542.667 490.667 OFFCURVE",
"477.667 503 OFFCURVE",
"407 503 CURVE SMOOTH",
"351.667 503 OFFCURVE",
"305.333 496 OFFCURVE",
"268 482 CURVE SMOOTH",
"228 466 OFFCURVE",
"171 390.333 OFFCURVE",
"135 309 CURVE SMOOTH",
"117 268.333 OFFCURVE",
"108 234.667 OFFCURVE",
"108 208 CURVE SMOOTH",
"108 178 OFFCURVE",
"130 117.333 OFFCURVE",
"174 26 CURVE SMOOTH",
"207.13 -37.248 OFFCURVE",
"228.814 -79.362 OFFCURVE",
"255 -91 CURVE SMOOTH",
"267 -96.333 OFFCURVE",
"285 -99 OFFCURVE",
"309 -99 CURVE SMOOTH",
"346 -98 LINE SMOOTH",
"434 -95.333 OFFCURVE",
"502 -85.333 OFFCURVE",
"550 -68 CURVE SMOOTH",
"598.667 -52 OFFCURVE",
"646.667 -22.667 OFFCURVE",
"694 20 CURVE",
"749.333 74.667 OFFCURVE",
"781.333 102 OFFCURVE",
"790 102 CURVE SMOOTH",
"795.333 102 OFFCURVE",
"837.333 88 OFFCURVE",
"916 60 CURVE",
"966 44.667 OFFCURVE",
"1004 37 OFFCURVE",
"1030 37 CURVE SMOOTH",
"1045.333 37 OFFCURVE",
"1056.667 39.333 OFFCURVE",
"1064 44 CURVE",
"1081.333 58 OFFCURVE",
"1138.667 79.333 OFFCURVE",
"1236 108 CURVE SMOOTH",
"1441.333 170.667 OFFCURVE",
"1572 241.167 OFFCURVE",
"1692 360.5 CURVE SMOOTH",
"1752 420.167 OFFCURVE",
"1815.333 498.667 OFFCURVE",
"1882 596 CURVE SMOOTH",
"1944 686.667 OFFCURVE",
"1984 749.333 OFFCURVE",
"2002 784 CURVE SMOOTH",
"2018 816 OFFCURVE",
"2026 848.667 OFFCURVE",
"2026 882 CURVE SMOOTH",
"2026 924 OFFCURVE",
"2033 952.333 OFFCURVE",
"2047 967 CURVE SMOOTH",
"2061 982.333 OFFCURVE",
"2078 1049.333 OFFCURVE",
"2098 1168 CURVE SMOOTH",
"2108 1230 OFFCURVE",
"2113 1285 OFFCURVE",
"2113 1333 CURVE SMOOTH",
"2113 1458.333 OFFCURVE",
"2078.667 1546.667 OFFCURVE",
"1996 1648 CURVE SMOOTH",
"1944.667 1711.333 OFFCURVE",
"1901.333 1778.667 OFFCURVE",
"1866 1850 CURVE SMOOTH",
"1814.667 1952 OFFCURVE",
"1716 2016.667 OFFCURVE",
"1570 2044 CURVE",
"1518 2056 OFFCURVE",
"1456 2062 OFFCURVE",
"1384 2062 CURVE SMOOTH",
"1274.667 2062 OFFCURVE",
"1170 2046 OFFCURVE",
"1098 2014 CURVE",
"1058 1994 OFFCURVE",
"1023.333 1966.667 OFFCURVE",
"958 1908 CURVE SMOOTH",
"930.667 1882.667 OFFCURVE",
"910.667 1865.333 OFFCURVE",
"898 1856 CURVE",
"787.333 1760 OFFCURVE",
"748.833 1722.667 OFFCURVE",
"721.5 1672 CURVE SMOOTH",
"707.833 1646.667 OFFCURVE",
"694 1611.333 OFFCURVE",
"680 1566 CURVE"
);
},
{
closed = 1;
nodes = (
"494 138.667 OFFCURVE",
"452.667 123 OFFCURVE",
"414 123 CURVE SMOOTH",
"374 123 OFFCURVE",
"341.333 140 OFFCURVE",
"332 172 CURVE",
"330.667 177.333 OFFCURVE",
"330 182.333 OFFCURVE",
"330 187 CURVE SMOOTH",
"330 233.622 OFFCURVE",
"382.685 336 OFFCURVE",
"416 336 CURVE SMOOTH",
"430.667 336 OFFCURVE",
"458 316 OFFCURVE",
"498 276 CURVE SMOOTH",
"515.333 258.667 OFFCURVE",
"527.667 245 OFFCURVE",
"535 235 CURVE SMOOTH",
"542.333 225 OFFCURVE",
"546 216.333 OFFCURVE",
"546 209 CURVE SMOOTH",
"546 198.333 OFFCURVE",
"539.333 186.667 OFFCURVE",
"522 168 CURVE SMOOTH"
);
},
{
closed = 1;
nodes = (
"1845.333 1510 OFFCURVE",
"1876 1444.667 OFFCURVE",
"1876 1350 CURVE SMOOTH",
"1876 1303.333 OFFCURVE",
"1866.667 1237.333 OFFCURVE",
"1848 1152 CURVE SMOOTH",
"1816 982.667 OFFCURVE",
"1781.333 883.833 OFFCURVE",
"1724 792.5 CURVE SMOOTH",
"1695.333 746.833 OFFCURVE",
"1656 694.667 OFFCURVE",
"1606 636 CURVE SMOOTH",
"1523.333 543.333 OFFCURVE",
"1482 491.333 OFFCURVE",
"1482 480 CURVE SMOOTH",
"1482 469.333 OFFCURVE",
"1457.333 453.333 OFFCURVE",
"1408 432 CURVE SMOOTH",
"1355.333 408.667 OFFCURVE",
"1308 376 OFFCURVE",
"1266 334 CURVE SMOOTH",
"1220.667 288.667 OFFCURVE",
"1176 266 OFFCURVE",
"1132 266 CURVE SMOOTH",
"1098.667 266 OFFCURVE",
"1048.667 261.333 OFFCURVE",
"982 252 CURVE",
"960 248 OFFCURVE",
"942.333 246 OFFCURVE",
"929 246 CURVE SMOOTH",
"899.667 246 OFFCURVE",
"888.667 256.667 OFFCURVE",
"882 286 CURVE",
"878.667 296 OFFCURVE",
"877 306 OFFCURVE",
"877 316 CURVE SMOOTH",
"877 343.333 OFFCURVE",
"887.333 374.667 OFFCURVE",
"908 410 CURVE SMOOTH",
"940 462 OFFCURVE",
"966 528.667 OFFCURVE",
"986 610 CURVE",
"998 668 LINE",
"1002.667 683.333 OFFCURVE",
"1008 697.333 OFFCURVE",
"1014 710 CURVE",
"1031.333 751.333 OFFCURVE",
"1049.333 768.667 OFFCURVE",
"1088 774 CURVE",
"1134 776 LINE",
"1141.333 776.667 OFFCURVE",
"1152.333 777 OFFCURVE",
"1167 777 CURVE SMOOTH",
"1180.333 777 OFFCURVE",
"1190 776.667 OFFCURVE",
"1196 776 CURVE",
"1241.333 773.333 OFFCURVE",
"1269.333 772 OFFCURVE",
"1280 772 CURVE",
"1319.333 769.333 OFFCURVE",
"1358.667 768 OFFCURVE",
"1398 768 CURVE SMOOTH",
"1454.667 768 OFFCURVE",
"1497.667 771.333 OFFCURVE",
"1527 778 CURVE SMOOTH",
"1577 789.333 OFFCURVE",
"1602 812 OFFCURVE",
"1602 846 CURVE SMOOTH",
"1602 877.333 OFFCURVE",
"1579 899.333 OFFCURVE",
"1533 912 CURVE SMOOTH",
"1501.667 920.667 OFFCURVE",
"1466.333 925 OFFCURVE",
"1427 925 CURVE SMOOTH",
"1405 925 OFFCURVE",
"1377.333 923.333 OFFCURVE",
"1344 920 CURVE SMOOTH",
"1314.667 917.333 OFFCURVE",
"1285.333 916 OFFCURVE",
"1256 916 CURVE SMOOTH",
"1200 916 OFFCURVE",
"1162 922.667 OFFCURVE",
"1142 936 CURVE SMOOTH",
"1119.333 951.333 OFFCURVE",
"1109.667 967.667 OFFCURVE",
"1113 985 CURVE SMOOTH",
"1115.667 1000.333 OFFCURVE",
"1135.333 1044.667 OFFCURVE",
"1172 1118 CURVE SMOOTH",
"1217.333 1203.333 OFFCURVE",
"1254 1294.667 OFFCURVE",
"1282 1392 CURVE",
"1298.667 1467.333 OFFCURVE",
"1318 1526.667 OFFCURVE",
"1340 1570 CURVE SMOOTH",
"1347.333 1584 OFFCURVE",
"1351 1598.333 OFFCURVE",
"1351 1613 CURVE SMOOTH",
"1351 1661 OFFCURVE",
"1304.667 1696 OFFCURVE",
"1242 1696 CURVE SMOOTH",
"1206.667 1696 OFFCURVE",
"1168.667 1685.333 OFFCURVE",
"1128 1664 CURVE",
"1083.036 1634.676 OFFCURVE",
"1058.247 1623.111 OFFCURVE",
"1050 1586 CURVE",
"1047.333 1576.667 OFFCURVE",
"1045.333 1556.667 OFFCURVE",
"1044 1526 CURVE",
"1044 1501.333 OFFCURVE",
"1042.667 1482 OFFCURVE",
"1040 1468 CURVE",
"1034.667 1390.667 OFFCURVE",
"1008.667 1305 OFFCURVE",
"978 1253 CURVE SMOOTH",
"963.333 1228.333 OFFCURVE",
"949.333 1216 OFFCURVE",
"936 1216 CURVE SMOOTH",
"914.667 1216 OFFCURVE",
"894 1251.5 OFFCURVE",
"882 1301.5 CURVE SMOOTH",
"876 1326.5 OFFCURVE",
"873 1352 OFFCURVE",
"873 1378 CURVE SMOOTH",
"873 1393.333 OFFCURVE",
"874.667 1410 OFFCURVE",
"878 1428 CURVE SMOOTH",
"894 1501.333 OFFCURVE",
"925.167 1557.833 OFFCURVE",
"988.5 1626.5 CURVE SMOOTH",
"1020.167 1660.833 OFFCURVE",
"1063.333 1701.333 OFFCURVE",
"1118 1748 CURVE SMOOTH",
"1174 1798.667 OFFCURVE",
"1218.667 1832 OFFCURVE",
"1252 1848 CURVE SMOOTH",
"1282 1862 OFFCURVE",
"1329.333 1872.667 OFFCURVE",
"1394 1880 CURVE SMOOTH",
"1493.333 1891.333 OFFCURVE",
"1544.667 1898 OFFCURVE",
"1548 1900 CURVE",
"1580 1900 OFFCURVE",
"1614.667 1878.667 OFFCURVE",
"1636 1844 CURVE",
"1646.667 1828 OFFCURVE",
"1654.667 1812 OFFCURVE",
"1660 1796 CURVE",
"1671.333 1756.667 OFFCURVE",
"1706 1696 OFFCURVE",
"1764 1614 CURVE"
);
}
);
width = 1947;
}
);
note = D;
unicode = 0044;
},
{
glyphname = E;
lastChange = "2019-05-24 05:27:56 +0000";
layers = (
{
anchors = (
{
name = bottom;
position = "{628, 0}";
},
{
name = ogonek;
position = "{1130, 10}";
},
{
name = top;
position = "{1113, 2248}";
},
{
name = topleft;
position = "{20, 2248}";
}
);
layerId = "B32CFD71-CB6A-495B-AD15-7D36F0D81A51";
paths = (
{
closed = 1;
nodes = (
"1278.667 1849.333 OFFCURVE",
"1256.333 1856.833 OFFCURVE",
"1243 1864.5 CURVE SMOOTH",
"1229.667 1872.167 OFFCURVE",
"1223 1882 OFFCURVE",
"1223 1894 CURVE SMOOTH",
"1223 1909.333 OFFCURVE",
"1234.667 1932.667 OFFCURVE",
"1258 1964 CURVE",
"1292.667 2003.333 OFFCURVE",
"1310 2028.667 OFFCURVE",
"1310 2040 CURVE SMOOTH",
"1310 2058.312 OFFCURVE",
"1221.569 2095.159 OFFCURVE",
"1164 2114 CURVE SMOOTH",
"1127.333 2126 OFFCURVE",
"1101.333 2132 OFFCURVE",
"1086 2132 CURVE SMOOTH",
"1054 2132 OFFCURVE",
"1009.333 2109.333 OFFCURVE",
"980 2080 CURVE SMOOTH",
"949.333 2049.333 OFFCURVE",
"934 2020.333 OFFCURVE",
"934 1993 CURVE SMOOTH",
"934 1989.667 OFFCURVE",
"934.667 1984.667 OFFCURVE",
"936 1978 CURVE",
"940.199 1921.311 OFFCURVE",
"920.312 1916.841 OFFCURVE",
"856 1902 CURVE SMOOTH",
"697.333 1870 OFFCURVE",
"607.167 1843 OFFCURVE",
"538.5 1807 CURVE SMOOTH",
"504.167 1789 OFFCURVE",
"470 1766 OFFCURVE",
"436 1738 CURVE SMOOTH",
"296 1622 OFFCURVE",
"224.667 1500 OFFCURVE",
"206 1340 CURVE SMOOTH",
"204 1322 OFFCURVE",
"203 1304.667 OFFCURVE",
"203 1288 CURVE SMOOTH",
"203 1153.333 OFFCURVE",
"268.667 1022 OFFCURVE",
"398 858 CURVE",
"396 860 OFFCURVE",
"394 861.333 OFFCURVE",
"392 862 CURVE",
"366 875.333 OFFCURVE",
"314.667 810.667 OFFCURVE",
"238 668 CURVE SMOOTH",
"172.667 550.667 OFFCURVE",
"134 472 OFFCURVE",
"122 432 CURVE SMOOTH",
"94 328 OFFCURVE",
"84.333 281 OFFCURVE",
"87 209 CURVE SMOOTH",
"88.333 138.333 OFFCURVE",
"132.667 71.333 OFFCURVE",
"206 18 CURVE SMOOTH",
"302.667 -49.333 OFFCURVE",
"421.667 -83 OFFCURVE",
"563 -83 CURVE SMOOTH",
"617.667 -83 OFFCURVE",
"676 -78 OFFCURVE",
"738 -68 CURVE SMOOTH",
"982.667 -26 OFFCURVE",
"1150 44.667 OFFCURVE",
"1240 144 CURVE",
"1280 184 OFFCURVE",
"1312.333 217.667 OFFCURVE",
"1337 245 CURVE SMOOTH",
"1369 279.667 OFFCURVE",
"1398 328.667 OFFCURVE",
"1398 358 CURVE",
"1396.667 403.333 OFFCURVE",
"1378 426 OFFCURVE",
"1350 426 CURVE SMOOTH",
"1330 426 OFFCURVE",
"1306.667 415.333 OFFCURVE",
"1280 394 CURVE SMOOTH",
"1218.667 344.667 OFFCURVE",
"1071 273 OFFCURVE",
"907 221 CURVE SMOOTH",
"816.333 193 OFFCURVE",
"732.333 173.667 OFFCURVE",
"655 163 CURVE SMOOTH",
"628.333 159.667 OFFCURVE",
"604.667 158 OFFCURVE",
"584 158 CURVE SMOOTH",
"449.333 158 OFFCURVE",
"356 216.667 OFFCURVE",
"340 330 CURVE",
"339.333 332.667 OFFCURVE",
"339 336.667 OFFCURVE",
"339 342 CURVE SMOOTH",
"339 376.667 OFFCURVE",
"359.333 419.333 OFFCURVE",
"400 470 CURVE SMOOTH",
"456 539.333 OFFCURVE",
"521.333 592.333 OFFCURVE",
"564 611 CURVE SMOOTH",
"580.667 618.333 OFFCURVE",
"611 630 OFFCURVE",
"655 646 CURVE SMOOTH",
"695.667 660 OFFCURVE",
"728.667 672.667 OFFCURVE",
"754 684 CURVE",
"797 701 LINE SMOOTH",
"847.667 721 OFFCURVE",
"872.333 730 OFFCURVE",
"899 750 CURVE SMOOTH",
"927.667 770.667 OFFCURVE",
"942 797.667 OFFCURVE",
"942 831 CURVE SMOOTH",
"942 849.667 OFFCURVE",
"937.333 871.333 OFFCURVE",
"928 896 CURVE",
"901.333 958.667 OFFCURVE",
"870 1011.333 OFFCURVE",
"834 1054 CURVE",
"802 1098 OFFCURVE",
"776.667 1116 OFFCURVE",
"734 1124 CURVE SMOOTH",
"716 1127.333 OFFCURVE",
"686 1130.667 OFFCURVE",
"644 1134 CURVE",
"578 1134 LINE",
"566 1134.667 OFFCURVE",
"546.667 1136 OFFCURVE",
"520 1138 CURVE SMOOTH",
"496 1140 LINE",
"481.333 1144 OFFCURVE",
"474 1166.333 OFFCURVE",
"474 1207 CURVE SMOOTH",
"474 1225.667 OFFCURVE",
"475.667 1247.333 OFFCURVE",
"479 1272 CURVE SMOOTH",
"483.667 1305.333 OFFCURVE",
"490.667 1340 OFFCURVE",
"500 1376 CURVE SMOOTH",
"508.667 1410.667 OFFCURVE",
"520.667 1440 OFFCURVE",
"536 1464 CURVE SMOOTH",
"551.333 1488 OFFCURVE",
"563.333 1500 OFFCURVE",
"572 1500 CURVE SMOOTH",
"586.667 1500 OFFCURVE",
"621.333 1521.333 OFFCURVE",
"676 1564 CURVE",
"752 1630 OFFCURVE",
"820.333 1663 OFFCURVE",
"881 1663 CURVE SMOOTH",
"915.667 1663 OFFCURVE",
"948 1652 OFFCURVE",
"978 1630 CURVE SMOOTH",
"1125.333 1526 OFFCURVE",
"1236 1474 OFFCURVE",
"1310 1474 CURVE SMOOTH",
"1362 1474 OFFCURVE",
"1421 1511 OFFCURVE",
"1461 1567 CURVE SMOOTH",
"1479.667 1592.333 OFFCURVE",
"1489 1617.333 OFFCURVE",
"1489 1642 CURVE SMOOTH",
"1489 1690 OFFCURVE",
"1450 1755.333 OFFCURVE",
"1394 1798 CURVE SMOOTH",
"1365.333 1819.333 OFFCURVE",
"1337.333 1834 OFFCURVE",
"1310 1842 CURVE"
);
}
);
width = 1255;
}
);
note = E;
unicode = 0045;
},
{
color = 4;
glyphname = F;
lastChange = "2019-05-23 18:00:01 +0000";
layers = (
{
layerId = "B32CFD71-CB6A-495B-AD15-7D36F0D81A51";
paths = (
{
closed = 1;
nodes = (
"2875 2123 OFFCURVE",
"2852 2123 CURVE SMOOTH",
"2779 2123 OFFCURVE",
"2532 1986 OFFCURVE",
"2466 1936 CURVE SMOOTH",
"2370 1865 OFFCURVE",
"2093 1826 OFFCURVE",
"1960 1826 CURVE",
"1872 1822 OFFCURVE",
"1756 1916 OFFCURVE",
"1724 1948 CURVE SMOOTH",
"1651 2025 OFFCURVE",
"1603 2064 OFFCURVE",
"1582 2064 CURVE SMOOTH",
"1558 2064 OFFCURVE",
"1478 2264 OFFCURVE",
"1468 2320 CURVE",
"1439 2431 OFFCURVE",
"1266 2521 OFFCURVE",
"1111 2521 CURVE SMOOTH",
"1009 2521 OFFCURVE",
"952 2487 OFFCURVE",
"862 2406 CURVE SMOOTH",
"780 2333 OFFCURVE",
"634 2149 OFFCURVE",
"634 2084 CURVE SMOOTH",
"634 2020 OFFCURVE",
"699 1933 OFFCURVE",
"782 1912 CURVE SMOOTH",
"899 1883 OFFCURVE",
"928 1779 OFFCURVE",
"1000 1779 CURVE SMOOTH",
"1147 1779 OFFCURVE",
"1335 2014 OFFCURVE",
"1388 2014 CURVE SMOOTH",
"1403 2014 OFFCURVE",
"1425 1989 OFFCURVE",
"1454 1940 CURVE",
"1486 1892 OFFCURVE",
"1536 1843 OFFCURVE",
"1604 1794 CURVE SMOOTH",
"1724 1711 OFFCURVE",
"1720 1741 OFFCURVE",
"1666 1630 CURVE",
"1645 1593 OFFCURVE",
"1632 1562 OFFCURVE",
"1635 1536 CURVE SMOOTH",
"1641 1481 OFFCURVE",
"1639 1448 OFFCURVE",
"1620 1318 CURVE",
"1130 1266 LINE",
"1080 1224 OFFCURVE",
"1046 1166 OFFCURVE",
"1046 1126 CURVE SMOOTH",
"1046 1086 OFFCURVE",
"1073 1038 OFFCURVE",
"1130 996 CURVE",
"1146 982 OFFCURVE",
"1232 994 OFFCURVE",
"1246 1006 CURVE",
"1376 1061 OFFCURVE",
"1395 1048 OFFCURVE",
"1395 1030 CURVE SMOOTH",
"1395 1020 OFFCURVE",
"1393 1011 OFFCURVE",
"1393 994 CURVE",
"1542 1038 LINE",
"1531 1011 OFFCURVE",
"1526 989 OFFCURVE",
"1526 972 CURVE SMOOTH",
"1526 945 OFFCURVE",
"1507 911 OFFCURVE",
"1468 870 CURVE",
"1410 800 LINE",
"946 796 LINE SMOOTH",
"899 795 OFFCURVE",
"855 795 OFFCURVE",
"815 795 CURVE SMOOTH",
"663 795 OFFCURVE",
"558 799 OFFCURVE",
"500 807 CURVE SMOOTH",
"427 817 OFFCURVE",
"374 840 OFFCURVE",
"342 876 CURVE",
"291 940 OFFCURVE",
"239 973 OFFCURVE",
"187 973 CURVE SMOOTH",
"147 973 OFFCURVE",
"86 955 OFFCURVE",
"86 917 CURVE SMOOTH",
"86 888 OFFCURVE",
"182 744 OFFCURVE",
"214 650 CURVE",
"234 573 OFFCURVE",
"253 526 OFFCURVE",
"270 510 CURVE",
"285 489 OFFCURVE",
"292 463 OFFCURVE",
"292 434 CURVE SMOOTH",
"292 391 OFFCURVE",
"314 332 OFFCURVE",
"353 276 CURVE SMOOTH",
"390 222 OFFCURVE",
"451 158 OFFCURVE",
"504 116 CURVE SMOOTH",
"676 -13 OFFCURVE",
"765 0 OFFCURVE",
"1067 0 CURVE SMOOTH",
"1161 0 OFFCURVE",
"1264 17 OFFCURVE",
"1325 83 CURVE SMOOTH",
"1478 246 OFFCURVE",
"1482 507 OFFCURVE",
"1657 662 CURVE SMOOTH",
"1734 732 OFFCURVE",
"1823 733 OFFCURVE",
"1892 796 CURVE SMOOTH",
"1912 813 OFFCURVE",
"1922 818 OFFCURVE",
"1932 818 CURVE",
"1985 818 OFFCURVE",
"1977 735 OFFCURVE",
"2041 735 CURVE SMOOTH",
"2082 735 OFFCURVE",
"2192 782 OFFCURVE",
"2192 822 CURVE SMOOTH",
"2192 897 OFFCURVE",
"2033 970 OFFCURVE",
"1934 970 CURVE SMOOTH",
"1851 970 OFFCURVE",
"1829 914 OFFCURVE",
"1772 914 CURVE SMOOTH",
"1762 914 OFFCURVE",
"1756 921 OFFCURVE",
"1756 933 CURVE SMOOTH",
"1756 944 OFFCURVE",
"1761 959 OFFCURVE",
"1772 978 CURVE",
"1787 999 OFFCURVE",
"1808 1065 OFFCURVE",
"1836 1176 CURVE",
"1875 1193 OFFCURVE",
"1916 1201 OFFCURVE",
"1958 1201 CURVE SMOOTH",
"2015 1201 OFFCURVE",
"1994 1183 OFFCURVE",
"2040 1183 CURVE SMOOTH",
"2100 1183 OFFCURVE",
"2144 1238 OFFCURVE",
"2144 1298 CURVE SMOOTH",
"2144 1338 OFFCURVE",
"2114 1363 OFFCURVE",
"2063 1373 CURVE SMOOTH",
"2003 1386 OFFCURVE",
"2011 1379 OFFCURVE",
"1882 1362 CURVE",
"1903 1441 OFFCURVE",
"1920 1537 OFFCURVE",
"1958 1592 CURVE SMOOTH",
"1995 1641 OFFCURVE",
"2046 1638 OFFCURVE",
"2126 1644 CURVE",
"2357 1644 OFFCURVE",
"2886 1925 OFFCURVE",
"2886 2088 CURVE SMOOTH",
"2886 2112 OFFCURVE"
);
},
{
closed = 1;
nodes = (
"992 2088 OFFCURVE",
"954 2088 CURVE SMOOTH",
"895 2088 OFFCURVE",
"904 2149 OFFCURVE",
"949 2214 CURVE SMOOTH",
"994 2280 OFFCURVE",
"1073 2328 OFFCURVE",
"1136 2328 CURVE SMOOTH",
"1184 2328 OFFCURVE",
"1255 2269 OFFCURVE",
"1255 2231 CURVE SMOOTH",
"1255 2218 OFFCURVE"
);
},
{
closed = 1;
nodes = (
"1229 388 OFFCURVE",
"1177 323 OFFCURVE",
"1136 296 CURVE",
"1075 248 OFFCURVE",
"869 212 OFFCURVE",
"734 212 CURVE SMOOTH",
"676 212 OFFCURVE",
"631 219 OFFCURVE",
"616 234 CURVE",
"597 258 OFFCURVE",
"444 617 OFFCURVE",
"444 646 CURVE SMOOTH",
"444 654 OFFCURVE",
"510 633 OFFCURVE",
"607 633 CURVE SMOOTH",
"681 633 OFFCURVE",
"1098 640 OFFCURVE",
"1118 636 CURVE SMOOTH",
"1132 633 OFFCURVE",
"1146 631 OFFCURVE",
"1160 631 CURVE SMOOTH",
"1194 631 OFFCURVE",
"1211 611 OFFCURVE",
"1244 629 CURVE",
"1293 653 OFFCURVE",
"1323 641 OFFCURVE",
"1332 636 CURVE",
"1334 635 OFFCURVE",
"1335 632 OFFCURVE",
"1335 627 CURVE SMOOTH",
"1335 606 OFFCURVE",
"1312 569 OFFCURVE",
"1282 504 CURVE SMOOTH"
);
}
);
width = 2263;
}
);
note = F;
unicode = 0046;
},
{
glyphname = G;
lastChange = "2019-05-23 17:57:26 +0000";
layers = (
{
layerId = "B32CFD71-CB6A-495B-AD15-7D36F0D81A51";
paths = (
{
closed = 1;
nodes = (
"2235.333 321.333 OFFCURVE",
"2150.667 268.667 OFFCURVE",
"2040 212 CURVE",
"2030.667 206.667 OFFCURVE",
"2004.333 196 OFFCURVE",
"1961 180 CURVE SMOOTH",
"1917.667 164 OFFCURVE",
"1887.333 151.333 OFFCURVE",
"1870 142 CURVE",
"1856 138 LINE",
"1832.667 134.667 OFFCURVE",
"1813.333 133 OFFCURVE",
"1798 133 CURVE SMOOTH",
"1763.333 133 OFFCURVE",
"1732.667 139.333 OFFCURVE",
"1706 152 CURVE",
"1676 170.667 OFFCURVE",
"1648 184 OFFCURVE",
"1622 192 CURVE",
"1594 202 OFFCURVE",
"1580 220.333 OFFCURVE",
"1580 247 CURVE SMOOTH",
"1580 281 OFFCURVE",
"1601.333 329.333 OFFCURVE",
"1644 392 CURVE SMOOTH",
"1692.667 464 OFFCURVE",
"1733.333 534 OFFCURVE",
"1766 602 CURVE SMOOTH",
"1864 794 LINE SMOOTH",
"1914 890.667 OFFCURVE",
"1957.333 978 OFFCURVE",
"1994 1056 CURVE SMOOTH",
"2028 1128 OFFCURVE",
"2050.667 1187.333 OFFCURVE",
"2062 1234 CURVE SMOOTH",
"2074.667 1287.333 OFFCURVE",
"2101.333 1340 OFFCURVE",
"2142 1392 CURVE SMOOTH",
"2188.667 1454.667 OFFCURVE",
"2216 1555.333 OFFCURVE",
"2216 1650 CURVE SMOOTH",
"2216 1728.667 OFFCURVE",
"2196.667 1797.333 OFFCURVE",
"2162 1836 CURVE SMOOTH",
"2128 1874 OFFCURVE",
"2094.667 1893 OFFCURVE",
"2062 1893 CURVE SMOOTH",
"2034 1893 OFFCURVE",
"2003 1879.667 OFFCURVE",
"1969 1853 CURVE SMOOTH",
"1935 1826.333 OFFCURVE",
"1894 1784 OFFCURVE",
"1846 1726 CURVE SMOOTH",
"1708.667 1552.667 OFFCURVE",
"1624.667 1466 OFFCURVE",
"1594 1466 CURVE SMOOTH",
"1580.667 1466 OFFCURVE",
"1528 1445.333 OFFCURVE",
"1436 1404 CURVE SMOOTH",
"1402 1387.333 OFFCURVE",
"1374.5 1375 OFFCURVE",
"1353.5 1367 CURVE SMOOTH",
"1332.5 1359 OFFCURVE",
"1315.667 1355 OFFCURVE",
"1303 1355 CURVE SMOOTH",
"1275 1355 OFFCURVE",
"1263 1373.667 OFFCURVE",
"1263 1415 CURVE SMOOTH",
"1263 1442.333 OFFCURVE",
"1268 1482 OFFCURVE",
"1278 1534 CURVE SMOOTH",
"1296 1627.333 OFFCURVE",
"1305 1694.333 OFFCURVE",
"1305 1735 CURVE SMOOTH",
"1305 1811 OFFCURVE",
"1282.667 1852.667 OFFCURVE",
"1228 1898 CURVE SMOOTH",
"1162.667 1952.667 OFFCURVE",
"1094 1981 OFFCURVE",
"1034 1981 CURVE SMOOTH",
"1006.667 1981 OFFCURVE",
"981 1975.333 OFFCURVE",
"957 1964 CURVE SMOOTH",
"883.667 1929.333 OFFCURVE",
"814 1853.667 OFFCURVE",
"766 1759 CURVE SMOOTH",
"718 1665.667 OFFCURVE",
"680.667 1557 OFFCURVE",
"662 1461 CURVE SMOOTH",
"650.667 1404.333 OFFCURVE",
"645 1351.667 OFFCURVE",
"645 1303 CURVE SMOOTH",
"645 1275.667 OFFCURVE",
"648 1254 OFFCURVE",
"654 1238 CURVE SMOOTH",
"676.667 1180.667 OFFCURVE",
"716.333 1126.333 OFFCURVE",
"747 1101 CURVE SMOOTH",
"761 1089.667 OFFCURVE",
"774.667 1074 OFFCURVE",
"788 1054 CURVE SMOOTH",
"804 1030 OFFCURVE",
"811 1008.667 OFFCURVE",
"811 978 CURVE SMOOTH",
"811 965.333 OFFCURVE",
"808 937.333 OFFCURVE",
"802 894 CURVE",
"786 826 OFFCURVE",
"740.5 735.333 OFFCURVE",
"686.5 670 CURVE SMOOTH",
"659.5 637.333 OFFCURVE",
"633.333 616 OFFCURVE",
"608 606 CURVE SMOOTH",
"579.333 594 OFFCURVE",
"551.667 588 OFFCURVE",
"525 588 CURVE SMOOTH",
"490.333 588 OFFCURVE",
"468.667 595 OFFCURVE",
"414 611 CURVE SMOOTH",
"384.667 620.333 OFFCURVE",
"357.667 627.333 OFFCURVE",
"333 632 CURVE SMOOTH",
"325 633.333 OFFCURVE",
"318.333 634 OFFCURVE",
"313 634 CURVE SMOOTH",
"266.333 634 OFFCURVE",
"214.667 599.333 OFFCURVE",
"168 526 CURVE SMOOTH",
"126.667 462.667 OFFCURVE",
"100.667 404 OFFCURVE",
"90 350 CURVE",
"88 335.333 OFFCURVE",
"87 320.667 OFFCURVE",
"87 306 CURVE SMOOTH",
"87 236.667 OFFCURVE",
"113 177 OFFCURVE",
"157 137 CURVE SMOOTH",
"182.333 114.333 OFFCURVE",
"215 92.333 OFFCURVE",
"255 71 CURVE SMOOTH",
"300.333 47 OFFCURVE",
"376 17.667 OFFCURVE",
"440 -5 CURVE",
"456 -11.667 OFFCURVE",
"472.333 -17.667 OFFCURVE",
"487 -23 CURVE SMOOTH",
"533 -41 OFFCURVE",
"567.333 -56 OFFCURVE",
"590 -68 CURVE",
"687.333 -125.333 OFFCURVE",
"726.333 -145.5 OFFCURVE",
"769 -155.5 CURVE SMOOTH",
"790.333 -160.5 OFFCURVE",
"816 -163 OFFCURVE",
"846 -163 CURVE SMOOTH",
"869.333 -163 OFFCURVE",
"898.667 -162 OFFCURVE",
"934 -160 CURVE SMOOTH",
"1051.333 -150.667 OFFCURVE",
"1128.667 -132 OFFCURVE",
"1166 -104 CURVE",
"1206.667 -77.333 OFFCURVE",
"1249.667 -64 OFFCURVE",
"1295 -64 CURVE SMOOTH",
"1340.333 -64 OFFCURVE",
"1379.333 -50 OFFCURVE",
"1412 -22 CURVE",
"1430.667 -3.333 OFFCURVE",
"1461.333 8.333 OFFCURVE",
"1504 13 CURVE SMOOTH",
"1521.333 14.333 OFFCURVE",
"1537 15 OFFCURVE",
"1551 15 CURVE SMOOTH",
"1590.333 15 OFFCURVE",
"1646.667 11.333 OFFCURVE",
"1720 4 CURVE",
"1689 9 LINE",
"1749 0.333 OFFCURVE",
"1803.667 -4 OFFCURVE",
"1853 -4 CURVE SMOOTH",
"1887.667 -4 OFFCURVE",
"1914.667 -1.333 OFFCURVE",
"1934 4 CURVE",
"2014.667 20.667 OFFCURVE",
"2121.333 74 OFFCURVE",
"2254 164 CURVE",
"2259.333 169.333 OFFCURVE",
"2273.667 180 OFFCURVE",
"2297 196 CURVE SMOOTH",
"2332.333 220 OFFCURVE",
"2355 237.333 OFFCURVE",
"2365 248 CURVE SMOOTH",
"2398.333 285.333 OFFCURVE",
"2410 300.667 OFFCURVE",
"2410 334 CURVE",
"2408.667 379.333 OFFCURVE",
"2391 402 OFFCURVE",
"2363 402 CURVE SMOOTH",
"2343.667 402 OFFCURVE",
"2320.667 391.333 OFFCURVE",
"2294 370 CURVE SMOOTH"
);
},
{
closed = 1;
nodes = (
"1050.667 1592 OFFCURVE",
"1056 1579.333 OFFCURVE",
"1056 1554 CURVE SMOOTH",
"1056 1521.842 OFFCURVE",
"990.397 1473 OFFCURVE",
"955 1473 CURVE SMOOTH",
"948.333 1473 OFFCURVE",
"943.333 1474.667 OFFCURVE",
"940 1478 CURVE",
"924.193 1501.71 OFFCURVE",
"1012.33 1592 OFFCURVE",
"1040 1592 CURVE SMOOTH"
);
},
{
closed = 1;
nodes = (
"798.667 64.667 OFFCURVE",
"793.333 64 OFFCURVE",
"788 64 CURVE SMOOTH",
"752 64 OFFCURVE",
"689.667 88.667 OFFCURVE",
"651 118 CURVE SMOOTH",
"629 134 OFFCURVE",
"620 146.667 OFFCURVE",
"624 156 CURVE",
"633.333 172 OFFCURVE",
"645.667 180 OFFCURVE",
"661 180 CURVE SMOOTH",
"677 180 OFFCURVE",
"689.333 170.667 OFFCURVE",
"698 152 CURVE",
"713.333 136 OFFCURVE",
"740.667 120 OFFCURVE",
"780 104 CURVE SMOOTH",
"796 97.333 OFFCURVE",
"804 94 OFFCURVE",
"804 94 CURVE",
"816.667 87.333 OFFCURVE",
"823 81.333 OFFCURVE",
"823 76 CURVE SMOOTH",
"823 71.333 OFFCURVE",
"816.667 68 OFFCURVE",
"804 66 CURVE"
);
},
{
closed = 1;
nodes = (
"1393.333 406 OFFCURVE",
"1351.333 338.667 OFFCURVE",
"1320 296 CURVE SMOOTH",
"1260 220 OFFCURVE",
"1222 191 OFFCURVE",
"1166 191 CURVE SMOOTH",
"1136 191 OFFCURVE",
"1094 200.667 OFFCURVE",
"1040 220 CURVE SMOOTH",
"969.333 244 OFFCURVE",
"870.5 308.333 OFFCURVE",
"808.5 367 CURVE SMOOTH",
"777.5 396.333 OFFCURVE",
"762 418.667 OFFCURVE",
"762 434 CURVE SMOOTH",
"762 446 OFFCURVE",
"830 553.333 OFFCURVE",
"966 756 CURVE",
"994 801.333 OFFCURVE",
"1008 832 OFFCURVE",
"1008 848 CURVE SMOOTH",
"1008 886.667 OFFCURVE",
"1082 981.333 OFFCURVE",
"1158 1048 CURVE SMOOTH",
"1196 1081.333 OFFCURVE",
"1223.333 1098 OFFCURVE",
"1240 1098 CURVE SMOOTH",
"1273.333 1098 OFFCURVE",
"1312 1108.667 OFFCURVE",
"1356 1130 CURVE",
"1356.667 1130.667 OFFCURVE",
"1382.667 1140.333 OFFCURVE",
"1434 1159 CURVE SMOOTH",
"1476.667 1173.667 OFFCURVE",
"1504 1183.333 OFFCURVE",
"1516 1188 CURVE SMOOTH",
"1615.333 1224 OFFCURVE",
"1677.333 1256 OFFCURVE",
"1702 1284 CURVE SMOOTH",
"1740 1324.667 OFFCURVE",
"1771.333 1345 OFFCURVE",
"1796 1345 CURVE SMOOTH",
"1812.667 1345 OFFCURVE",
"1826 1336 OFFCURVE",
"1836 1318 CURVE",
"1838 1315.333 OFFCURVE",
"1839 1311.333 OFFCURVE",
"1839 1306 CURVE SMOOTH",
"1839 1288 OFFCURVE",
"1822.667 1253.333 OFFCURVE",
"1790 1202 CURVE SMOOTH",
"1745.333 1134 OFFCURVE",
"1712.667 1070 OFFCURVE",
"1692 1010 CURVE SMOOTH",
"1672.667 953.333 OFFCURVE",
"1639.333 874.667 OFFCURVE",
"1592 774 CURVE SMOOTH",
"1548.667 682 OFFCURVE",
"1500 590 OFFCURVE",
"1446 498 CURVE SMOOTH"
);
}
);
width = 2245;
}
);
note = G;
unicode = 0047;
},
{
glyphname = H;
lastChange = "2019-05-23 17:57:26 +0000";
layers = (
{
layerId = "B32CFD71-CB6A-495B-AD15-7D36F0D81A51";
paths = (
{
closed = 1;
nodes = (
"963.333 1780 OFFCURVE",
"941.333 1810.667 OFFCURVE",
"912 1826 CURVE",
"881.333 1840.667 OFFCURVE",
"824.333 1849 OFFCURVE",
"759 1849 CURVE SMOOTH",
"681.667 1849 OFFCURVE",
"600 1838.667 OFFCURVE",
"536 1816 CURVE SMOOTH",
"429.333 1781.333 OFFCURVE",
"295.333 1666 OFFCURVE",
"218 1546 CURVE SMOOTH",
"188.667 1499.333 OFFCURVE",
"171 1399 OFFCURVE",
"171 1307 CURVE SMOOTH",
"171 1245.667 OFFCURVE",
"180 1196 OFFCURVE",
"196 1176 CURVE SMOOTH",
"222.667 1144 OFFCURVE",
"272.333 1126 OFFCURVE",
"323 1126 CURVE SMOOTH",
"359.667 1126 OFFCURVE",
"391.333 1134 OFFCURVE",
"418 1150 CURVE",
"479.333 1191.333 OFFCURVE",
"516 1231.333 OFFCURVE",
"560 1306 CURVE",
"583.333 1342 OFFCURVE",
"613.333 1396.667 OFFCURVE",
"650 1470 CURVE SMOOTH",
"672 1516 LINE",
"720 1606.667 OFFCURVE",
"750.667 1647.333 OFFCURVE",
"764 1638 CURVE SMOOTH",
"772 1632.667 OFFCURVE",
"776 1611 OFFCURVE",
"776 1573 CURVE SMOOTH",
"776 1474.333 OFFCURVE",
"748 1308 OFFCURVE",
"716 1236 CURVE",
"691.333 1191.333 OFFCURVE",
"657.333 1122 OFFCURVE",
"614 1028 CURVE SMOOTH",
"570.667 942 OFFCURVE",
"516 875.333 OFFCURVE",
"450 828 CURVE",
"346 746 LINE",
"346 594 LINE SMOOTH",
"346 536.667 OFFCURVE",
"342 492 OFFCURVE",
"334 460 CURVE SMOOTH",
"325.333 421.333 OFFCURVE",
"302.333 370.333 OFFCURVE",
"265 307 CURVE SMOOTH",
"240.333 265 OFFCURVE",
"218.667 226.667 OFFCURVE",
"200 192 CURVE",
"170.667 126 OFFCURVE",
"136 22.667 OFFCURVE",
"96 -118 CURVE SMOOTH",
"89.333 -141.333 OFFCURVE",
"86 -159.667 OFFCURVE",
"86 -173 CURVE SMOOTH",
"86 -221 OFFCURVE",
"118 -242 OFFCURVE",
"190 -242 CURVE SMOOTH",
"247.333 -242 OFFCURVE",
"287.833 -212.667 OFFCURVE",
"324.5 -142 CURVE SMOOTH",
"342.833 -106.667 OFFCURVE",
"361.333 -58.667 OFFCURVE",
"380 2 CURVE SMOOTH",
"398.667 68.667 OFFCURVE",
"428 139.333 OFFCURVE",
"468 214 CURVE SMOOTH",
"505.72 284.914 OFFCURVE",
"522.406 320 OFFCURVE",
"572 320 CURVE SMOOTH",
"576 320 OFFCURVE",
"586.667 319.333 OFFCURVE",
"604 318 CURVE",
"660 316 LINE",
"740 314 LINE",
"810 308 LINE",
"838 304 OFFCURVE",
"861 299 OFFCURVE",
"879 293 CURVE SMOOTH",
"897 287 OFFCURVE",
"908 279.333 OFFCURVE",
"912 270 CURVE",
"921.333 256.667 OFFCURVE",
"926 221.667 OFFCURVE",
"926 165 CURVE SMOOTH",
"926 129 OFFCURVE",
"924.667 91.333 OFFCURVE",
"922 52 CURVE SMOOTH",
"917.333 3.333 OFFCURVE",
"915 -38 OFFCURVE",
"915 -72 CURVE SMOOTH",
"915 -87.333 OFFCURVE",
"915.333 -98 OFFCURVE",
"916 -104 CURVE SMOOTH",
"920 -136 OFFCURVE",
"929.333 -164 OFFCURVE",
"944 -188 CURVE",
"969.333 -224 OFFCURVE",
"992.667 -242 OFFCURVE",
"1014 -242 CURVE SMOOTH",
"1043.333 -242 OFFCURVE",
"1089.333 -196.333 OFFCURVE",
"1116 -139 CURVE SMOOTH",
"1129.333 -109 OFFCURVE",
"1136 -83.333 OFFCURVE",
"1136 -62 CURVE SMOOTH",
"1136 -22 OFFCURVE",
"1142.333 2.333 OFFCURVE",
"1155 11 CURVE SMOOTH",
"1168.333 20.333 OFFCURVE",
"1181.333 52 OFFCURVE",
"1194 106 CURVE",
"1205.333 168 OFFCURVE",
"1222.667 222 OFFCURVE",
"1246 268 CURVE SMOOTH",
"1266.667 308.667 OFFCURVE",
"1286.667 329 OFFCURVE",
"1306 329 CURVE SMOOTH",
"1309.333 329 OFFCURVE",
"1312 328.667 OFFCURVE",
"1314 328 CURVE",
"1394 308 OFFCURVE",
"1454.333 298 OFFCURVE",
"1495 298 CURVE SMOOTH",
"1519.667 298 OFFCURVE",
"1536.667 301.333 OFFCURVE",
"1546 308 CURVE",
"1565.333 323.333 OFFCURVE",
"1610.667 335.333 OFFCURVE",
"1682 344 CURVE SMOOTH",
"1786 354.667 OFFCURVE",
"1949 424.333 OFFCURVE",
"2057 503 CURVE SMOOTH",
"2111 541.667 OFFCURVE",
"2142 575.333 OFFCURVE",
"2150 604 CURVE",
"2154.667 616 OFFCURVE",
"2157 628.667 OFFCURVE",
"2157 642 CURVE SMOOTH",
"2157 698 OFFCURVE",
"2108 740 OFFCURVE",
"2040 740 CURVE SMOOTH",
"1990 740 OFFCURVE",
"1959.333 731.333 OFFCURVE",
"1948 714 CURVE",
"1940.667 698.667 OFFCURVE",
"1896 664.667 OFFCURVE",
"1814 612 CURVE SMOOTH",
"1735.333 562 OFFCURVE",
"1650.667 531.333 OFFCURVE",
"1560 520 CURVE",
"1538.667 518.667 OFFCURVE",
"1524 518 OFFCURVE",
"1516 518 CURVE",
"1494 517 LINE",
"1443.333 517 OFFCURVE",
"1417.333 530 OFFCURVE",
"1416 556 CURVE",
"1413.333 584.667 OFFCURVE",
"1427.333 631.667 OFFCURVE",
"1458 697 CURVE SMOOTH",
"1468 717 OFFCURVE",
"1476.333 733 OFFCURVE",
"1483 745 CURVE SMOOTH",
"1504 784 LINE SMOOTH",
"1519.333 812 OFFCURVE",
"1540.333 860 OFFCURVE",
"1567 928 CURVE SMOOTH",
"1592.333 992 OFFCURVE",
"1614.667 1042.667 OFFCURVE",
"1634 1080 CURVE SMOOTH",
"1638 1088 OFFCURVE",
"1648.333 1105.333 OFFCURVE",
"1665 1132 CURVE",
"1679.667 1153.333 OFFCURVE",
"1694 1176 OFFCURVE",
"1702 1200 CURVE",
"1708.667 1217.333 OFFCURVE",
"1718 1262.667 OFFCURVE",
"1722 1284 CURVE",
"1729.333 1308 OFFCURVE",
"1742.667 1339.333 OFFCURVE",
"1762 1378 CURVE",
"1763.333 1382.667 OFFCURVE",
"1772.667 1401 OFFCURVE",
"1790 1433 CURVE SMOOTH",
"1813 1475 LINE SMOOTH",
"1848.333 1543 OFFCURVE",
"1872.667 1595.333 OFFCURVE",
"1886 1632 CURVE SMOOTH",
"1905.333 1686.667 OFFCURVE",
"1915 1725.667 OFFCURVE",
"1915 1749 CURVE SMOOTH",
"1915 1753.667 OFFCURVE",
"1914.333 1759.333 OFFCURVE",
"1913 1766 CURVE SMOOTH",
"1910.333 1782 OFFCURVE",
"1902 1792 OFFCURVE",
"1888 1796 CURVE",
"1856.667 1808.667 OFFCURVE",
"1827.667 1815 OFFCURVE",
"1801 1815 CURVE SMOOTH",
"1754.333 1815 OFFCURVE",
"1717.333 1794 OFFCURVE",
"1690 1752 CURVE",
"1664.667 1704.667 OFFCURVE",
"1652 1668.667 OFFCURVE",
"1652 1644 CURVE",
"1648 1614 OFFCURVE",
"1625.333 1562.667 OFFCURVE",
"1584 1490 CURVE SMOOTH",
"1538.667 1404.667 OFFCURVE",
"1516 1354.667 OFFCURVE",
"1516 1340 CURVE SMOOTH",
"1516 1324.667 OFFCURVE",
"1483.333 1248 OFFCURVE",
"1418 1110 CURVE SMOOTH",
"1350.667 966 OFFCURVE",
"1312.667 874 OFFCURVE",
"1304 834 CURVE SMOOTH",
"1292.667 786 OFFCURVE",
"1278 754.667 OFFCURVE",
"1260 740 CURVE SMOOTH",
"1238.667 722.667 OFFCURVE",
"1224 692 OFFCURVE",
"1216 648 CURVE",
"1205.333 606.667 OFFCURVE",
"1186 584 OFFCURVE",
"1166 584 CURVE SMOOTH",
"1148.667 584 OFFCURVE",
"1128 600.667 OFFCURVE",
"1112 634 CURVE",
"1085.333 684.667 OFFCURVE",
"1026.333 753.333 OFFCURVE",
"973 796 CURVE SMOOTH",
"946.333 817.333 OFFCURVE",
"926 828 OFFCURVE",
"912 828 CURVE SMOOTH",
"895.333 828 OFFCURVE",
"881.333 830 OFFCURVE",
"870 834 CURVE",
"846 848 OFFCURVE",
"834 873 OFFCURVE",
"834 909 CURVE SMOOTH",
"834 927.667 OFFCURVE",
"837.667 949 OFFCURVE",
"845 973 CURVE SMOOTH",
"854.333 1003 OFFCURVE",
"865 1033 OFFCURVE",
"877 1063 CURVE SMOOTH",
"888.333 1090.333 OFFCURVE",
"902 1119.667 OFFCURVE",
"918 1151 CURVE SMOOTH",
"932 1178.333 OFFCURVE",
"941.333 1197.333 OFFCURVE",
"946 1208 CURVE SMOOTH",
"971.333 1271.333 OFFCURVE",
"989.333 1334 OFFCURVE",
"1000 1396 CURVE SMOOTH",
"1007.333 1441.333 OFFCURVE",
"1011 1483.667 OFFCURVE",
"1011 1523 CURVE SMOOTH",
"1011 1595.667 OFFCURVE",
"1000 1666 OFFCURVE",
"978 1734 CURVE SMOOTH"
);
},
{
closed = 1;
nodes = (
"396.667 1544 OFFCURVE",
"422 1564 OFFCURVE",
"444 1568 CURVE",
"460 1569.333 OFFCURVE",
"468 1561.667 OFFCURVE",
"468 1545 CURVE SMOOTH",
"468 1529.667 OFFCURVE",
"462.667 1509.333 OFFCURVE",
"452 1484 CURVE",
"432 1416 OFFCURVE",
"395 1381 OFFCURVE",
"363 1381 CURVE SMOOTH",
"343 1381 OFFCURVE",
"329 1396 OFFCURVE",
"329 1420 CURVE SMOOTH",
"329 1445.333 OFFCURVE",
"342 1474.667 OFFCURVE",
"368 1508 CURVE SMOOTH"
);
},
{
closed = 1;
nodes = (
"823 513 LINE",
"785 513 OFFCURVE",
"753.333 527.333 OFFCURVE",
"728 556 CURVE",
"708.667 575.333 OFFCURVE",
"699 590.333 OFFCURVE",
"699 601 CURVE SMOOTH",
"699 604.333 OFFCURVE",
"700 607.333 OFFCURVE",
"702 610 CURVE",
"705.333 613.333 OFFCURVE",
"711 615 OFFCURVE",
"719 615 CURVE SMOOTH",
"758.534 615 OFFCURVE",
"853.604 571.109 OFFCURVE",
"864 542 CURVE",
"864 530.667 OFFCURVE",
"855.333 521.333 OFFCURVE",
"838 514 CURVE"
);
}
);
width = 1873;
}
);
note = H;
unicode = 0048;
},
{
glyphname = I;
lastChange = "2019-05-24 05:31:06 +0000";
layers = (
{
anchors = (
{
name = bottom;
position = "{1087, 0}";
},
{
name = ogonek;
position = "{1956, 10}";
},
{
name = top;
position = "{1620, 2373}";
},
{
name = topleft;
position = "{20, 2248}";
}
);
layerId = "B32CFD71-CB6A-495B-AD15-7D36F0D81A51";
paths = (
{
closed = 1;
nodes = (
"2206 718 OFFCURVE",
"2178.333 732 OFFCURVE",
"2151 732 CURVE SMOOTH",
"2126.333 732 OFFCURVE",
"2047.333 721.333 OFFCURVE",
"1914 700 CURVE SMOOTH",
"1780 678 OFFCURVE",
"1692 667 OFFCURVE",
"1650 667 CURVE SMOOTH",
"1636.667 667 OFFCURVE",
"1628 668 OFFCURVE",
"1624 670 CURVE",
"1618 666 LINE",
"1566 678 OFFCURVE",
"1540 716.333 OFFCURVE",
"1540 781 CURVE SMOOTH",
"1540 788.333 OFFCURVE",
"1540.667 799.333 OFFCURVE",
"1542 814 CURVE",
"1538 810 LINE",
"1554.667 882.667 OFFCURVE",
"1579.333 958 OFFCURVE",
"1612 1036 CURVE",
"1644 1078.667 OFFCURVE",
"1665.333 1105.333 OFFCURVE",
"1676 1116 CURVE SMOOTH",
"1680 1120 OFFCURVE",
"1686 1129.333 OFFCURVE",
"1694 1144 CURVE",
"1698 1148 LINE",
"1696 1150 LINE",
"1706 1172 OFFCURVE",
"1722.667 1216.667 OFFCURVE",
"1746 1284 CURVE SMOOTH",
"1776.667 1374.667 OFFCURVE",
"1796 1427.333 OFFCURVE",
"1804 1442 CURVE SMOOTH",
"1826 1484 OFFCURVE",
"1867.333 1622.667 OFFCURVE",
"1928 1858 CURVE SMOOTH",
"1942.667 1910 OFFCURVE",
"1950 1958.333 OFFCURVE",
"1950 2003 CURVE SMOOTH",
"1950 2065.667 OFFCURVE",
"1935.333 2118.667 OFFCURVE",
"1906 2162 CURVE SMOOTH",
"1869.333 2215.333 OFFCURVE",
"1818 2250 OFFCURVE",
"1752 2266 CURVE",
"1708 2302 OFFCURVE",
"1660 2320 OFFCURVE",
"1608 2320 CURVE SMOOTH",
"1532.667 2320 OFFCURVE",
"1437.333 2286.667 OFFCURVE",
"1322 2220 CURVE SMOOTH",
"1269.333 2190 OFFCURVE",
"1228.667 2152 OFFCURVE",
"1200 2106 CURVE SMOOTH",
"1194 2096.667 OFFCURVE",
"1184.667 2080.333 OFFCURVE",
"1172 2057 CURVE SMOOTH",
"1158.667 2032.333 OFFCURVE",
"1148.667 2014.667 OFFCURVE",
"1142 2004 CURVE SMOOTH",
"1120 1968 OFFCURVE",
"1109 1936.667 OFFCURVE",
"1109 1910 CURVE SMOOTH",
"1109 1891.333 OFFCURVE",
"1113.333 1873.333 OFFCURVE",
"1122 1856 CURVE SMOOTH",
"1126 1848 OFFCURVE",
"1128 1842.667 OFFCURVE",
"1128 1840 CURVE SMOOTH",
"1127.333 1804.667 OFFCURVE",
"1124.667 1776.667 OFFCURVE",
"1120 1756 CURVE SMOOTH",
"1112 1724 LINE SMOOTH",
"1099.333 1665.333 OFFCURVE",
"1092.667 1631.333 OFFCURVE",
"1092 1622 CURVE",
"1092 1618 OFFCURVE",
"1090 1605.333 OFFCURVE",
"1086 1584 CURVE SMOOTH",
"1080.667 1554 OFFCURVE",
"1078 1534.667 OFFCURVE",
"1078 1526 CURVE",
"1074 1438 LINE",
"1045.333 1374 OFFCURVE",
"1031 1293.333 OFFCURVE",
"1031 1196 CURVE SMOOTH",
"1031 1122.667 OFFCURVE",
"1039 1047.333 OFFCURVE",
"1055 970 CURVE SMOOTH",
"1089.667 804.667 OFFCURVE",
"1122.667 692.667 OFFCURVE",
"1168 574 CURVE",
"1163.333 560 OFFCURVE",
"1153.333 549.333 OFFCURVE",
"1138 542 CURVE",
"1144 538 LINE",
"1131.333 535.333 OFFCURVE",
"1100 530 OFFCURVE",
"1050 522 CURVE SMOOTH",
"1018 516 LINE",
"1008.667 514.667 OFFCURVE",
"977.333 514 OFFCURVE",
"924 514 CURVE SMOOTH",
"850 514 LINE SMOOTH",
"840 514 OFFCURVE",
"810.667 517.333 OFFCURVE",
"762 524 CURVE SMOOTH",
"712 529.333 OFFCURVE",
"684 532 OFFCURVE",
"678 532 CURVE",
"668 538 LINE SMOOTH",
"652.667 547.333 OFFCURVE",
"641.333 553.333 OFFCURVE",
"634 556 CURVE",
"624 558 LINE",
"542.667 583.333 OFFCURVE",
"502 607.333 OFFCURVE",
"466 658 CURVE SMOOTH",
"415.333 727.333 OFFCURVE",
"386 752 OFFCURVE",
"338 752 CURVE SMOOTH",
"315.333 752 OFFCURVE",
"284.667 745.333 OFFCURVE",
"246 732 CURVE",
"130 744 LINE",
"115.333 746.667 OFFCURVE",
"103.333 741.333 OFFCURVE",
"94 728 CURVE SMOOTH",
"88.667 720.667 OFFCURVE",
"86 713.333 OFFCURVE",
"86 706 CURVE SMOOTH",
"86 700.667 OFFCURVE",
"87.333 695.333 OFFCURVE",
"90 690 CURVE",
"99.333 674 OFFCURVE",
"106.333 643 OFFCURVE",
"113 615 CURVE SMOOTH",
"121 577.667 OFFCURVE",
"128.333 552 OFFCURVE",
"135 538 CURVE",
"144.333 516 OFFCURVE",
"162 497.333 OFFCURVE",
"188 482 CURVE",
"201.333 457.333 OFFCURVE",
"229.333 413 OFFCURVE",
"272 349 CURVE SMOOTH",
"284 331 LINE SMOOTH",
"313.333 288.333 OFFCURVE",
"343 251.667 OFFCURVE",
"373 221 CURVE SMOOTH",
"453 138.333 OFFCURVE",
"523.667 76.667 OFFCURVE",
"609 38 CURVE SMOOTH",
"656.333 16.667 OFFCURVE",
"703.333 4.667 OFFCURVE",
"750 2 CURVE",
"753.333 1.333 OFFCURVE",
"758.333 1 OFFCURVE",
"765 1 CURVE SMOOTH",
"771.667 1 OFFCURVE",
"776.667 1.333 OFFCURVE",
"780 2 CURVE",
"816 6.667 OFFCURVE",
"846 12 OFFCURVE",
"870 18 CURVE",
"878 22 OFFCURVE",
"896.667 24 OFFCURVE",
"926 24 CURVE",
"986 32 LINE",
"1000 38 LINE",
"1082 88 LINE SMOOTH",
"1095.333 96 OFFCURVE",
"1108 102.667 OFFCURVE",
"1120 108 CURVE",
"1159.333 128.667 OFFCURVE",
"1183.333 146 OFFCURVE",
"1192 160 CURVE",
"1202 168 LINE",
"1240.667 181.333 OFFCURVE",
"1268.333 188 OFFCURVE",
"1285 188 CURVE SMOOTH",
"1291 188 OFFCURVE",
"1296.667 186.667 OFFCURVE",
"1302 184 CURVE",
"1311.333 178.667 OFFCURVE",
"1316 169 OFFCURVE",
"1316 155 CURVE SMOOTH",
"1316 147 OFFCURVE",
"1314 136.333 OFFCURVE",
"1310 123 CURVE SMOOTH",
"1308 116.333 OFFCURVE",
"1307 110 OFFCURVE",
"1307 104 CURVE SMOOTH",
"1307 79.333 OFFCURVE",
"1323.333 56.667 OFFCURVE",
"1356 36 CURVE SMOOTH",
"1391.333 12 OFFCURVE",
"1424.333 0 OFFCURVE",
"1455 0 CURVE SMOOTH",
"1489 0 OFFCURVE",
"1521.333 15.333 OFFCURVE",
"1552 46 CURVE",
"1569.333 66.667 OFFCURVE",
"1580 88 OFFCURVE",
"1584 110 CURVE SMOOTH",
"1586 120 OFFCURVE",
"1587 132 OFFCURVE",
"1587 146 CURVE SMOOTH",
"1587 162.667 OFFCURVE",
"1585.333 186 OFFCURVE",
"1582 216 CURVE",
"1579.333 223.333 OFFCURVE",
"1578 232 OFFCURVE",
"1578 242 CURVE",
"1566 324 OFFCURVE",
"1560 378.333 OFFCURVE",
"1560 405 CURVE SMOOTH",
"1560 412.333 OFFCURVE",
"1560.333 417 OFFCURVE",
"1561 419 CURVE",
"1563.667 436.333 OFFCURVE",
"1585.333 446.667 OFFCURVE",
"1626 450 CURVE",
"1630 450 LINE SMOOTH",
"1680 450.667 OFFCURVE",
"1750.667 464.667 OFFCURVE",
"1842 492 CURVE SMOOTH",
"1932 518.667 OFFCURVE",
"2018.667 536 OFFCURVE",
"2102 544 CURVE SMOOTH",
"2158 550.667 OFFCURVE",
"2200.333 561 OFFCURVE",
"2229 575 CURVE SMOOTH",
"2257.667 589 OFFCURVE",
"2272 605.667 OFFCURVE",
"2272 625 CURVE SMOOTH",
"2272 644.333 OFFCURVE",
"2259.333 666 OFFCURVE",
"2234 690 CURVE SMOOTH"
);
},
{
closed = 1;
nodes = (
"872 210 LINE",
"714 220 LINE",
"678 224.667 OFFCURVE",
"631.333 244 OFFCURVE",
"574 278 CURVE SMOOTH",
"554 289 LINE",
"530 303.667 OFFCURVE",
"517.333 311.333 OFFCURVE",
"516 312 CURVE",
"502.667 322.667 OFFCURVE",
"492 332 OFFCURVE",
"484 340 CURVE",
"474.667 353.333 OFFCURVE",
"442 388 OFFCURVE",
"386 444 CURVE",
"400 444 LINE",
"430.667 438 OFFCURVE",
"450 432.667 OFFCURVE",
"458 428 CURVE",
"486 413.333 OFFCURVE",
"526 403.333 OFFCURVE",
"578 398 CURVE SMOOTH",
"604.667 394.667 OFFCURVE",
"625.333 390 OFFCURVE",
"640 384 CURVE SMOOTH",
"656 377.333 OFFCURVE",
"670.667 374 OFFCURVE",
"684 374 CURVE SMOOTH",
"707.333 373.333 OFFCURVE",
"744 364.667 OFFCURVE",
"794 348 CURVE",
"970 308 LINE",
"1058 294 LINE"
);
},
{
closed = 1;
nodes = (
"1456 1414 LINE",
"1366 1060 LINE",
"1318 934 LINE SMOOTH",
"1316 928.667 OFFCURVE",
"1310.667 915.333 OFFCURVE",
"1302 894 CURVE",
"1284 970 LINE",
"1278 1090 LINE",
"1286 1277.333 OFFCURVE",
"1297.333 1396 OFFCURVE",
"1312 1446 CURVE SMOOTH",
"1321.333 1476 OFFCURVE",
"1333.333 1506.667 OFFCURVE",
"1348 1538 CURVE SMOOTH",
"1357.333 1558.667 OFFCURVE",
"1362 1572.667 OFFCURVE",
"1362 1580 CURVE",
"1366 1596 OFFCURVE",
"1384 1659.333 OFFCURVE",
"1416 1770 CURVE",
"1440 1911.333 OFFCURVE",
"1470 1993.333 OFFCURVE",
"1506 2016 CURVE",
"1522 2012 LINE",
"1538 2026 LINE",
"1546.667 2034.667 OFFCURVE",
"1556 2042 OFFCURVE",
"1566 2048 CURVE",
"1570 2050 LINE",
"1580.667 2039.333 OFFCURVE",
"1588 1991 OFFCURVE",
"1588 1943 CURVE SMOOTH",
"1588 1915.667 OFFCURVE",
"1586 1896 OFFCURVE",
"1582 1884 CURVE",
"1574 1822 LINE SMOOTH",
"1571.333 1800 OFFCURVE",
"1570 1785.333 OFFCURVE",
"1570 1778 CURVE",
"1565.333 1765.333 OFFCURVE",
"1557.333 1720 OFFCURVE",
"1546 1642 CURVE"
);
}
);
width = 2173;
}
);
note = I;
unicode = 0049;
},
{
glyphname = J;
lastChange = "2019-05-23 17:57:26 +0000";
layers = (
{
layerId = "B32CFD71-CB6A-495B-AD15-7D36F0D81A51";
paths = (
{
closed = 1;
nodes = (
"1699.333 284.667 OFFCURVE",
"1618 234 OFFCURVE",
"1516 182 CURVE",
"1502 176 OFFCURVE",
"1476.333 166 OFFCURVE",
"1439 152 CURVE SMOOTH",
"1397.667 136.667 OFFCURVE",
"1367.333 123.333 OFFCURVE",
"1348 112 CURVE",
"1257 81 LINE SMOOTH",
"1218.333 67.667 OFFCURVE",
"1190.333 58.333 OFFCURVE",
"1173 53 CURVE SMOOTH",
"1147 45 OFFCURVE",
"1120 38.333 OFFCURVE",
"1092 33 CURVE SMOOTH",
"1072 29 OFFCURVE",
"1054 27 OFFCURVE",
"1038 27 CURVE SMOOTH",
"1004.667 27 OFFCURVE",
"976 36 OFFCURVE",
"952 54 CURVE",
"923.333 78.667 OFFCURVE",
"909 102.333 OFFCURVE",
"909 125 CURVE SMOOTH",
"909 151.667 OFFCURVE",
"928 178.333 OFFCURVE",
"966 205 CURVE SMOOTH",
"1024.667 245 OFFCURVE",
"1092 272.667 OFFCURVE",
"1144 286 CURVE",
"1221.333 299.333 OFFCURVE",
"1276.667 324 OFFCURVE",
"1310 360 CURVE",
"1360 410 LINE",
"1292 468 LINE SMOOTH",
"1260.667 495.333 OFFCURVE",
"1235.333 511.333 OFFCURVE",
"1216 516 CURVE SMOOTH",
"1204 518.667 OFFCURVE",
"1192.333 520 OFFCURVE",
"1181 520 CURVE SMOOTH",
"1163 520 OFFCURVE",
"1142 518 OFFCURVE",
"1118 514 CURVE SMOOTH",
"1010 498 LINE",
"1026 602 LINE",
"1039.333 671.333 OFFCURVE",
"1068 807.333 OFFCURVE",
"1112 1010 CURVE SMOOTH",
"1165.333 1243.333 OFFCURVE",
"1187.333 1361 OFFCURVE",
"1198 1473 CURVE SMOOTH",
"1203.333 1529 OFFCURVE",
"1206 1591.333 OFFCURVE",
"1206 1660 CURVE SMOOTH",
"1206 1808 OFFCURVE",
"1192 1897.333 OFFCURVE",
"1164 1928 CURVE SMOOTH",
"1084 2013.333 OFFCURVE",
"980 2057 OFFCURVE",
"868 2057 CURVE SMOOTH",
"760 2057 OFFCURVE",
"653.333 2016 OFFCURVE",
"568 1940 CURVE",
"566 1938 LINE",
"458.667 1839.333 OFFCURVE",
"385.333 1693.333 OFFCURVE",
"346 1500 CURVE SMOOTH",
"328 1411.333 OFFCURVE",
"319 1321.333 OFFCURVE",
"319 1230 CURVE SMOOTH",
"319 1082 OFFCURVE",
"342.667 929.333 OFFCURVE",
"390 772 CURVE",
"398 750 OFFCURVE",
"414.333 713.333 OFFCURVE",
"439 662 CURVE SMOOTH",
"479.667 580.667 OFFCURVE",
"513 500.667 OFFCURVE",
"539 422 CURVE SMOOTH",
"551.667 384 OFFCURVE",
"558 352.333 OFFCURVE",
"558 327 CURVE SMOOTH",
"558 309.667 OFFCURVE",
"554.667 296.667 OFFCURVE",
"548 288 CURVE SMOOTH",
"531.333 267.333 OFFCURVE",
"470.667 239.333 OFFCURVE",
"366 204 CURVE SMOOTH",
"276 176.667 OFFCURVE",
"226.667 152 OFFCURVE",
"218 130 CURVE",
"207.333 106.667 OFFCURVE",
"139.333 49.333 OFFCURVE",
"14 -42 CURVE SMOOTH",
"-119.333 -138 OFFCURVE",
"-212 -218.667 OFFCURVE",
"-264 -284 CURVE SMOOTH",
"-321.333 -354.667 OFFCURVE",
"-337.5 -383.667 OFFCURVE",
"-343.5 -433 CURVE SMOOTH",
"-346.5 -457.667 OFFCURVE",
"-348 -498 OFFCURVE",
"-348 -554 CURVE SMOOTH",
"-348 -722 LINE",
"-94 -718 LINE SMOOTH",
"28 -717.333 OFFCURVE",
"104.667 -713.333 OFFCURVE",
"136 -706 CURVE",
"165.333 -701.333 OFFCURVE",
"200.667 -682 OFFCURVE",
"242 -648 CURVE SMOOTH",
"290.667 -608 OFFCURVE",
"338.667 -570.667 OFFCURVE",
"386 -536 CURVE",
"417.333 -516 OFFCURVE",
"473.333 -443.333 OFFCURVE",
"554 -318 CURVE",
"586 -262 LINE SMOOTH",
"626 -188 OFFCURVE",
"655.333 -139.333 OFFCURVE",
"674 -116 CURVE SMOOTH",
"711.333 -69.333 OFFCURVE",
"747.667 -45 OFFCURVE",
"789 -45 CURVE SMOOTH",
"806.333 -45 OFFCURVE",
"824.667 -49.333 OFFCURVE",
"844 -58 CURVE",
"872.667 -69.333 OFFCURVE",
"910.333 -75 OFFCURVE",
"957 -75 CURVE SMOOTH",
"1036.333 -75 OFFCURVE",
"1143 -57.667 OFFCURVE",
"1277 -23 CURVE SMOOTH",
"1418.333 13 OFFCURVE",
"1576 62.667 OFFCURVE",
"1624 84 CURVE SMOOTH",
"1658 99.333 OFFCURVE",
"1690.667 117.333 OFFCURVE",
"1722 138 CURVE",
"1775 176 LINE",
"1815 204 LINE",
"1847 230.667 OFFCURVE",
"1870 264 OFFCURVE",
"1870 300 CURVE SMOOTH",
"1870 344 OFFCURVE",
"1853.667 365 OFFCURVE",
"1827 365 CURVE SMOOTH",
"1808.333 365 OFFCURVE",
"1786 354.667 OFFCURVE",
"1760 334 CURVE SMOOTH"
);
},
{
closed = 1;
nodes = (
"255.333 -368.667 OFFCURVE",
"144.833 -464.5 OFFCURVE",
"41.5 -522.5 CURVE SMOOTH",
"-10.167 -551.5 OFFCURVE",
"-53.333 -567.333 OFFCURVE",
"-88 -570 CURVE",
"-102 -572 OFFCURVE",
"-113.333 -573 OFFCURVE",
"-122 -573 CURVE SMOOTH",
"-147.333 -573 OFFCURVE",
"-154 -564 OFFCURVE",
"-154 -536 CURVE SMOOTH",
"-154 -532 OFFCURVE",
"-153.333 -522 OFFCURVE",
"-152 -506 CURVE",
"-144 -459.333 OFFCURVE",
"-53.667 -345.333 OFFCURVE",
"33 -268 CURVE SMOOTH",
"76.333 -229.333 OFFCURVE",
"108 -210 OFFCURVE",
"128 -210 CURVE SMOOTH",
"148 -210 OFFCURVE",
"196 -176 OFFCURVE",
"272 -108 CURVE SMOOTH",
"290 -92 LINE SMOOTH",
"381.333 -11.333 OFFCURVE",
"442.333 29 OFFCURVE",
"473 29 CURVE SMOOTH",
"487 29 OFFCURVE",
"494 20 OFFCURVE",
"494 2 CURVE SMOOTH",
"494 -25.333 OFFCURVE",
"436.667 -118.667 OFFCURVE",
"322 -278 CURVE SMOOTH"
);
},
{
closed = 1;
nodes = (
"827.333 646.667 OFFCURVE",
"794.667 560 OFFCURVE",
"754 500 CURVE",
"740 481.333 OFFCURVE",
"729.333 472 OFFCURVE",
"722 472 CURVE SMOOTH",
"711.333 472 OFFCURVE",
"706 488.667 OFFCURVE",
"706 522 CURVE SMOOTH",
"706 552.667 OFFCURVE",
"699.333 574 OFFCURVE",
"686 586 CURVE",
"672 593.333 OFFCURVE",
"655.333 642.667 OFFCURVE",
"636 734 CURVE SMOOTH",
"620 820 OFFCURVE",
"595.333 888 OFFCURVE",
"562 938 CURVE",
"539.333 966.667 OFFCURVE",
"526.333 996 OFFCURVE",
"523 1026 CURVE SMOOTH",
"521.667 1039.333 OFFCURVE",
"521 1052.333 OFFCURVE",
"521 1065 CURVE SMOOTH",
"521 1087 OFFCURVE",
"523.333 1131.333 OFFCURVE",
"528 1198 CURVE SMOOTH",
"544 1386 OFFCURVE",
"567.333 1500.5 OFFCURVE",
"610 1594.5 CURVE SMOOTH",
"631.333 1641.5 OFFCURVE",
"660 1688 OFFCURVE",
"696 1734 CURVE SMOOTH",
"716 1758 OFFCURVE",
"733.333 1777.333 OFFCURVE",
"748 1792 CURVE",
"792 1840 OFFCURVE",
"812.667 1852 OFFCURVE",
"866 1852 CURVE SMOOTH",
"915.333 1852 OFFCURVE",
"950 1842 OFFCURVE",
"970 1822 CURVE",
"985.333 1801.333 OFFCURVE",
"993 1757.667 OFFCURVE",
"993 1691 CURVE SMOOTH",
"993 1524.333 OFFCURVE",
"946 1214 OFFCURVE",
"852 760 CURVE SMOOTH"
);
}
);
width = 1711;
}
);
note = J;
unicode = 004A;
},
{
glyphname = K;
lastChange = "2019-05-23 17:57:26 +0000";
layers = (
{
layerId = "B32CFD71-CB6A-495B-AD15-7D36F0D81A51";
paths = (
{
closed = 1;
nodes = (
"1696 194.667 OFFCURVE",
"1680.333 181.333 OFFCURVE",
"1635 160 CURVE SMOOTH",
"1612.333 149.333 OFFCURVE",
"1588 141.333 OFFCURVE",
"1562 136 CURVE SMOOTH",
"1530 130 LINE",
"1520.667 128.667 OFFCURVE",
"1514 127.333 OFFCURVE",
"1510 126 CURVE",
"1443.333 114 OFFCURVE",
"1422.333 111.333 OFFCURVE",
"1353 106 CURVE SMOOTH",
"1334 105 LINE",
"1280.667 105 OFFCURVE",
"1224.667 119.333 OFFCURVE",
"1198 146 CURVE",
"1167.333 174 OFFCURVE",
"1152 196.667 OFFCURVE",
"1152 214 CURVE SMOOTH",
"1152 234 OFFCURVE",
"1117.333 276.667 OFFCURVE",
"1048 342 CURVE SMOOTH",
"979.333 410.667 OFFCURVE",
"945 467.667 OFFCURVE",
"945 513 CURVE SMOOTH",
"945 539 OFFCURVE",
"958.667 556 OFFCURVE",
"986 564 CURVE",
"1006.667 572.667 OFFCURVE",
"1053.5 608.833 OFFCURVE",
"1126.5 672.5 CURVE SMOOTH",
"1199.5 736.167 OFFCURVE",
"1277.167 808.5 OFFCURVE",
"1359.5 889.5 CURVE",
"1272.5 799.833 OFFCURVE",
"1458.667 982.667 OFFCURVE",
"1556 1096 CURVE SMOOTH",
"1641.333 1196.667 OFFCURVE",
"1701 1288.333 OFFCURVE",
"1735 1371 CURVE SMOOTH",
"1751.667 1411 OFFCURVE",
"1760 1445 OFFCURVE",
"1760 1473 CURVE SMOOTH",
"1760 1501 OFFCURVE",
"1751.333 1521.333 OFFCURVE",
"1734 1534 CURVE SMOOTH",
"1709.333 1551.333 OFFCURVE",
"1679.667 1560 OFFCURVE",
"1645 1560 CURVE SMOOTH",
"1610.333 1560 OFFCURVE",
"1587.333 1551.333 OFFCURVE",
"1576 1534 CURVE",
"1565.333 1516 OFFCURVE",
"1558 1490 OFFCURVE",
"1554 1456 CURVE",
"1554 1422 OFFCURVE",
"1528 1368.333 OFFCURVE",
"1476 1295 CURVE SMOOTH",
"1424.667 1223 OFFCURVE",
"1354.667 1142.667 OFFCURVE",
"1266 1054 CURVE SMOOTH",
"1166 954 OFFCURVE",
"1075.333 868.667 OFFCURVE",
"994 798 CURVE SMOOTH",
"909.333 724.667 OFFCURVE",
"861.667 688 OFFCURVE",
"851 688 CURVE SMOOTH",
"840.333 688 OFFCURVE",
"831.333 690 OFFCURVE",
"824 694 CURVE",
"817.333 700.667 OFFCURVE",
"814 709.333 OFFCURVE",
"814 720 CURVE SMOOTH",
"814 740.667 OFFCURVE",
"829.333 767.333 OFFCURVE",
"860 800 CURVE SMOOTH",
"907.333 848 OFFCURVE",
"949.333 909.333 OFFCURVE",
"986 984 CURVE SMOOTH",
"1020.667 1056 OFFCURVE",
"1038 1116.667 OFFCURVE",
"1038 1166 CURVE SMOOTH",
"1038 1226 OFFCURVE",
"1044 1262 OFFCURVE",
"1056 1274 CURVE SMOOTH",
"1072 1289.333 OFFCURVE",
"1086 1346 OFFCURVE",
"1098 1444 CURVE SMOOTH",
"1106.667 1512.667 OFFCURVE",
"1111 1577.667 OFFCURVE",
"1111 1639 CURVE SMOOTH",
"1111 1756.333 OFFCURVE",
"1094.667 1852 OFFCURVE",
"1062 1926 CURVE SMOOTH",
"1038 1982.667 OFFCURVE",
"1002.667 2017.333 OFFCURVE",
"956 2030 CURVE SMOOTH",
"942.667 2033.333 OFFCURVE",
"928.667 2035 OFFCURVE",
"914 2035 CURVE SMOOTH",
"892.667 2035 OFFCURVE",
"868.667 2032 OFFCURVE",
"842 2026 CURVE SMOOTH",
"683.333 1992.667 OFFCURVE",
"574 1918 OFFCURVE",
"446 1770 CURVE SMOOTH",
"380.667 1693.333 OFFCURVE",
"348 1647.667 OFFCURVE",
"348 1633 CURVE SMOOTH",
"348 1617.667 OFFCURVE",
"338 1588 OFFCURVE",
"318 1544 CURVE",
"298 1490.667 OFFCURVE",
"285 1411 OFFCURVE",
"285 1343 CURVE SMOOTH",
"285 1293.667 OFFCURVE",
"290.667 1258.667 OFFCURVE",
"302 1238 CURVE",
"322 1194 OFFCURVE",
"386 1155.333 OFFCURVE",
"454 1142 CURVE SMOOTH",
"472.667 1138.667 OFFCURVE",
"488.667 1137 OFFCURVE",
"502 1137 CURVE SMOOTH",
"515.333 1137 OFFCURVE",
"529.333 1138.667 OFFCURVE",
"544 1142 CURVE",
"590 1158 OFFCURVE",
"631.333 1194 OFFCURVE",
"668 1250 CURVE SMOOTH",
"712 1318.667 OFFCURVE",
"744.667 1353 OFFCURVE",
"766 1353 CURVE SMOOTH",
"778.667 1353 OFFCURVE",
"787.833 1341.333 OFFCURVE",
"793.5 1318 CURVE SMOOTH",
"799.167 1294.667 OFFCURVE",
"802 1259.333 OFFCURVE",
"802 1212 CURVE SMOOTH",
"802 1077.333 OFFCURVE",
"748.667 932.167 OFFCURVE",
"674 847.5 CURVE SMOOTH",
"636.667 805.167 OFFCURVE",
"600 784 OFFCURVE",
"564 784 CURVE SMOOTH",
"554 784 OFFCURVE",
"544 786 OFFCURVE",
"534 790 CURVE",
"514 800.667 OFFCURVE",
"446.667 810 OFFCURVE",
"332 818 CURVE SMOOTH",
"294.667 820.667 OFFCURVE",
"261.333 822 OFFCURVE",
"232 822 CURVE SMOOTH",
"210.667 822 OFFCURVE",
"195.333 821 OFFCURVE",
"186 819 CURVE",
"166.667 813.667 OFFCURVE",
"150.667 799.333 OFFCURVE",
"138 776 CURVE SMOOTH",
"107.333 721.333 OFFCURVE",
"90 620 OFFCURVE",
"86 472 CURVE SMOOTH",
"86 396.727 OFFCURVE",
"96.315 372.282 OFFCURVE",
"156 328 CURVE",
"198.667 292 OFFCURVE",
"236.667 274 OFFCURVE",
"270 274 CURVE SMOOTH",
"312 274 OFFCURVE",
"333 261.667 OFFCURVE",
"333 237 CURVE SMOOTH",
"333 213 OFFCURVE",
"315.333 162 OFFCURVE",
"280 84 CURVE SMOOTH",
"235.333 -7.333 OFFCURVE",
"213 -63.333 OFFCURVE",
"213 -84 CURVE SMOOTH",
"213 -104.667 OFFCURVE",
"226.333 -127 OFFCURVE",
"253 -151 CURVE SMOOTH",
"269.667 -167 OFFCURVE",
"289 -175 OFFCURVE",
"311 -175 CURVE SMOOTH",
"352.333 -175 OFFCURVE",
"391.333 -138.667 OFFCURVE",
"406 -80 CURVE",
"418 -39.333 OFFCURVE",
"442 7.333 OFFCURVE",
"478 60 CURVE",
"512.667 116.667 OFFCURVE",
"530 155.333 OFFCURVE",
"530 176 CURVE SMOOTH",
"530 202.667 OFFCURVE",
"577 284.333 OFFCURVE",
"625 347 CURVE SMOOTH",
"649 378.333 OFFCURVE",
"666.667 396 OFFCURVE",
"678 400 CURVE",
"698.667 409.333 OFFCURVE",
"783.333 340.667 OFFCURVE",
"932 194 CURVE SMOOTH",
"1015.333 114.667 OFFCURVE",
"1077.167 59.333 OFFCURVE",
"1117.5 28 CURVE SMOOTH",
"1157.833 -3.333 OFFCURVE",
"1196 -24.333 OFFCURVE",
"1232 -35 CURVE",
"1198.167 -34.667 OFFCURVE",
"1253.333 -50 OFFCURVE",
"1384 -54 CURVE SMOOTH",
"1404 -54 LINE",
"1409.333 -54.667 OFFCURVE",
"1417.667 -55 OFFCURVE",
"1429 -55 CURVE SMOOTH",
"1441 -55 OFFCURVE",
"1450 -54.667 OFFCURVE",
"1456 -54 CURVE",
"1514.667 -50.667 OFFCURVE",
"1557.333 -40 OFFCURVE",
"1584 -22 CURVE",
"1635.333 -2 OFFCURVE",
"1682.667 23.333 OFFCURVE",
"1726 54 CURVE SMOOTH",
"1754 72.667 OFFCURVE",
"1814 115 OFFCURVE",
"1830 131 CURVE",
"1855.333 159 OFFCURVE",
"1870 181.333 OFFCURVE",
"1870 212 CURVE SMOOTH",
"1870 253.333 OFFCURVE",
"1853.333 274 OFFCURVE",
"1828 274 CURVE SMOOTH",
"1808.667 274 OFFCURVE",
"1787.333 264 OFFCURVE",
"1764 244 CURVE"
);
},
{
closed = 1;
nodes = (
"576 1429.333 OFFCURVE",
"536.333 1403 OFFCURVE",
"509 1403 CURVE SMOOTH",
"492.333 1403 OFFCURVE",
"480 1413.333 OFFCURVE",
"472 1434 CURVE",
"470.667 1438 OFFCURVE",
"470 1442.333 OFFCURVE",
"470 1447 CURVE SMOOTH",
"470 1495 OFFCURVE",
"517.333 1618.667 OFFCURVE",
"560 1672 CURVE SMOOTH",
"574.667 1689.333 OFFCURVE",
"598 1700 OFFCURVE",
"622 1700 CURVE SMOOTH",
"647.333 1700 OFFCURVE",
"669.333 1690.667 OFFCURVE",
"688 1672 CURVE SMOOTH",
"704 1656 OFFCURVE",
"712 1638 OFFCURVE",
"712 1618 CURVE SMOOTH",
"712 1580.667 OFFCURVE",
"684 1535.333 OFFCURVE",
"628 1482 CURVE SMOOTH"
);
},
{
closed = 1;
nodes = (
"309.333 499.333 OFFCURVE",
"302 512.333 OFFCURVE",
"302 531 CURVE SMOOTH",
"302 551 OFFCURVE",
"312 574 OFFCURVE",
"328 590 CURVE SMOOTH",
"342.667 604.667 OFFCURVE",
"371.333 613 OFFCURVE",
"402 613 CURVE SMOOTH",
"439.333 613 OFFCURVE",
"471.333 601.333 OFFCURVE",
"478 580 CURVE",
"486.631 547.633 OFFCURVE",
"383.759 488 OFFCURVE",
"340 488 CURVE SMOOTH",
"332.667 488 OFFCURVE",
"327.333 489.333 OFFCURVE",
"324 492 CURVE"
);
}
);
width = 1779;
}
);
note = K;
unicode = 004B;
},
{
glyphname = L;
lastChange = "2019-05-23 17:57:26 +0000";
layers = (
{
layerId = "B32CFD71-CB6A-495B-AD15-7D36F0D81A51";
paths = (
{
closed = 1;
nodes = (
"1902.667 367.333 OFFCURVE",
"1867.667 338.667 OFFCURVE",
"1819 300 CURVE SMOOTH",
"1803 288 OFFCURVE",
"1792 279.333 OFFCURVE",
"1786 274 CURVE",
"1727.333 227.333 OFFCURVE",
"1682.667 204 OFFCURVE",
"1624 184 CURVE",
"1582 167.333 OFFCURVE",
"1540.667 159 OFFCURVE",
"1500 159 CURVE SMOOTH",
"1469.333 159 OFFCURVE",
"1440 164 OFFCURVE",
"1412 174 CURVE",
"1306.667 207.333 OFFCURVE",
"1211.333 228 OFFCURVE",
"1126 236 CURVE SMOOTH",
"1038 242.667 OFFCURVE",
"992 278.667 OFFCURVE",
"992 336 CURVE SMOOTH",
"992 364.667 OFFCURVE",
"1002.667 396 OFFCURVE",
"1024 430 CURVE SMOOTH",
"1082.667 528 OFFCURVE",
"1158 696 OFFCURVE",
"1250 934 CURVE SMOOTH",
"1306 1081.333 OFFCURVE",
"1347.667 1175 OFFCURVE",
"1375 1215 CURVE SMOOTH",
"1404.333 1258.333 OFFCURVE",
"1450 1295.333 OFFCURVE",
"1512 1326 CURVE SMOOTH",
"1644 1390 OFFCURVE",
"1720.667 1470 OFFCURVE",
"1758 1578 CURVE SMOOTH",
"1776 1630.667 OFFCURVE",
"1786.667 1695.333 OFFCURVE",
"1790 1772 CURVE SMOOTH",
"1791 1813 LINE SMOOTH",
"1791 1889.98 OFFCURVE",
"1782.619 1904.008 OFFCURVE",
"1722 1940 CURVE SMOOTH",
"1664.667 1973.333 OFFCURVE",
"1614.667 1990 OFFCURVE",
"1572 1990 CURVE SMOOTH",
"1541.333 1990 OFFCURVE",
"1514.667 1982 OFFCURVE",
"1492 1966 CURVE SMOOTH",
"1432 1926 OFFCURVE",
"1361.333 1845.167 OFFCURVE",
"1316 1768.5 CURVE SMOOTH",
"1293.333 1730.167 OFFCURVE",
"1280.667 1699.333 OFFCURVE",
"1278 1676 CURVE",
"1263.333 1601.333 OFFCURVE",
"1233.333 1512.333 OFFCURVE",
"1196 1451 CURVE SMOOTH",
"1176.667 1419.667 OFFCURVE",
"1160 1397.333 OFFCURVE",
"1146 1384 CURVE",
"1113.333 1362.667 OFFCURVE",
"1032.667 1352 OFFCURVE",
"904 1352 CURVE SMOOTH",
"859 1352 LINE SMOOTH",
"812.333 1352 OFFCURVE",
"774.667 1353.333 OFFCURVE",
"746 1356 CURVE SMOOTH",
"702.667 1360 OFFCURVE",
"659.333 1369.333 OFFCURVE",
"616 1384 CURVE SMOOTH",
"569.333 1399.333 OFFCURVE",
"512.667 1421.333 OFFCURVE",
"446 1450 CURVE SMOOTH",
"432 1456 OFFCURVE",
"419.333 1459 OFFCURVE",
"408 1459 CURVE SMOOTH",
"394.667 1459 OFFCURVE",
"384 1454 OFFCURVE",
"376 1444 CURVE SMOOTH",
"368.667 1434.667 OFFCURVE",
"365 1424.333 OFFCURVE",
"365 1413 CURVE SMOOTH",
"365 1378.333 OFFCURVE",
"402 1342 OFFCURVE",
"458 1326 CURVE SMOOTH",
"513.333 1309.333 OFFCURVE",
"586 1276 OFFCURVE",
"676 1226 CURVE SMOOTH",
"715.333 1204.667 OFFCURVE",
"761.333 1194 OFFCURVE",
"814 1194 CURVE SMOOTH",
"822 1194 OFFCURVE",
"835.333 1194.667 OFFCURVE",
"854 1196 CURVE SMOOTH",
"876.667 1197.333 OFFCURVE",
"892.667 1198 OFFCURVE",
"902 1198 CURVE SMOOTH",
"1006.667 1198 OFFCURVE",
"1059 1161 OFFCURVE",
"1059 1087 CURVE SMOOTH",
"1059 1049.667 OFFCURVE",
"1044.667 1001.333 OFFCURVE",
"1016 942 CURVE SMOOTH",
"908 716 LINE SMOOTH",
"845.333 588 OFFCURVE",
"796.333 534 OFFCURVE",
"735 534 CURVE SMOOTH",
"695 534 OFFCURVE",
"648.667 556 OFFCURVE",
"586 604 CURVE SMOOTH",
"551.333 632 OFFCURVE",
"460.667 650 OFFCURVE",
"374 650 CURVE SMOOTH",
"326 650 OFFCURVE",
"287.333 644.667 OFFCURVE",
"258 634 CURVE SMOOTH",
"191.333 611.333 OFFCURVE",
"133.333 524.667 OFFCURVE",
"112 430 CURVE",
"112 422 OFFCURVE",
"107.667 398.667 OFFCURVE",
"99 360 CURVE SMOOTH",
"90.333 315.333 OFFCURVE",
"86 290.333 OFFCURVE",
"86 285 CURVE SMOOTH",
"86 243 OFFCURVE",
"94.667 208.667 OFFCURVE",
"112 182 CURVE",
"177.333 71.333 OFFCURVE",
"273.333 14 OFFCURVE",
"376 14 CURVE SMOOTH",
"474.667 14 OFFCURVE",
"573.333 47.333 OFFCURVE",
"684 114 CURVE SMOOTH",
"732 144 OFFCURVE",
"768 159 OFFCURVE",
"792 159 CURVE SMOOTH",
"800 159 OFFCURVE",
"806.667 157.333 OFFCURVE",
"812 154 CURVE SMOOTH",
"836 138.667 OFFCURVE",
"883.333 124.667 OFFCURVE",
"954 112 CURVE SMOOTH",
"988.667 105.333 OFFCURVE",
"1045.333 92.667 OFFCURVE",
"1124 74 CURVE",
"1286 22.667 OFFCURVE",
"1407.333 -13.333 OFFCURVE",
"1488 -34 CURVE SMOOTH",
"1504.667 -38.667 OFFCURVE",
"1519.667 -41 OFFCURVE",
"1533 -41 CURVE SMOOTH",
"1539 -41 OFFCURVE",
"1543.333 -40.667 OFFCURVE",
"1546 -40 CURVE",
"1558.667 -36 OFFCURVE",
"1572 -29.333 OFFCURVE",
"1586 -20 CURVE",
"1696.667 48 OFFCURVE",
"1812 125.333 OFFCURVE",
"1932 212 CURVE SMOOTH",
"2002 264 OFFCURVE",
"2037 313.667 OFFCURVE",
"2037 361 CURVE SMOOTH",
"2037 367.667 OFFCURVE",
"2036.667 372.667 OFFCURVE",
"2036 376 CURVE SMOOTH",
"2032 396 OFFCURVE",
"2022.667 410 OFFCURVE",
"2008 418 CURVE",
"2001.333 420.667 OFFCURVE",
"1996 422 OFFCURVE",
"1992 422 CURVE SMOOTH",
"1975.333 422 OFFCURVE",
"1954.667 411.333 OFFCURVE",
"1930 390 CURVE",
"1926 388 LINE",
"1924 386 LINE"
);
},
{
closed = 1;
nodes = (
"1506.667 1756.667 OFFCURVE",
"1539.333 1785 OFFCURVE",
"1566 1785 CURVE SMOOTH",
"1583.333 1785 OFFCURVE",
"1598 1773.333 OFFCURVE",
"1610 1750 CURVE SMOOTH",
"1612.667 1744.667 OFFCURVE",
"1614 1739.667 OFFCURVE",
"1614 1735 CURVE SMOOTH",
"1614 1703 OFFCURVE",
"1577.333 1643.667 OFFCURVE",
"1532 1601 CURVE SMOOTH",
"1506 1577 OFFCURVE",
"1483.333 1563.333 OFFCURVE",
"1464 1560 CURVE",
"1438.667 1561.333 OFFCURVE",
"1426 1573 OFFCURVE",
"1426 1595 CURVE SMOOTH",
"1426 1619 OFFCURVE",
"1440 1654 OFFCURVE",
"1468 1700 CURVE"
);
},
{
closed = 1;
nodes = (
"498.667 272 OFFCURVE",
"477.167 261.333 OFFCURVE",
"465.5 256 CURVE SMOOTH",
"453.833 250.667 OFFCURVE",
"443.333 248 OFFCURVE",
"434 248 CURVE SMOOTH",
"426 248 OFFCURVE",
"418.167 250.167 OFFCURVE",
"410.5 254.5 CURVE SMOOTH",
"402.833 258.833 OFFCURVE",
"390.667 267.333 OFFCURVE",
"374 280 CURVE SMOOTH",
"336 309.333 OFFCURVE",
"317 335.667 OFFCURVE",
"317 359 CURVE SMOOTH",
"317 378.333 OFFCURVE",
"330.667 400 OFFCURVE",
"358 424 CURVE",
"380.667 442 OFFCURVE",
"395.333 453.167 OFFCURVE",
"402 457.5 CURVE SMOOTH",
"408.667 461.833 OFFCURVE",
"416.667 464 OFFCURVE",
"426 464 CURVE SMOOTH",
"434.667 464 OFFCURVE",
"444.833 461.833 OFFCURVE",
"456.5 457.5 CURVE SMOOTH",
"468.167 453.167 OFFCURVE",
"489.333 444.667 OFFCURVE",
"520 432 CURVE",
"551.333 420.667 OFFCURVE",
"574.5 409.833 OFFCURVE",
"589.5 399.5 CURVE SMOOTH",
"604.5 389.167 OFFCURVE",
"612 378 OFFCURVE",
"612 366 CURVE SMOOTH",
"612 344.667 OFFCURVE",
"584.667 318.667 OFFCURVE",
"530 288 CURVE"
);
}
);
width = 1911;
}
);
note = L;
unicode = 004C;
},
{
glyphname = M;
lastChange = "2019-05-23 17:57:26 +0000";
layers = (
{
layerId = "B32CFD71-CB6A-495B-AD15-7D36F0D81A51";
paths = (
{
closed = 1;
nodes = (
"357.333 1890 OFFCURVE",
"303.833 1858.333 OFFCURVE",
"269.5 1835 CURVE SMOOTH",
"235.167 1811.667 OFFCURVE",
"208.833 1788.5 OFFCURVE",
"190.5 1765.5 CURVE",
"200.833 1788.333 OFFCURVE",
"172 1750.667 OFFCURVE",
"136 1672 CURVE SMOOTH",
"102.667 1592 OFFCURVE",
"86 1517.333 OFFCURVE",
"86 1448 CURVE SMOOTH",
"86 1378 OFFCURVE",
"104 1333.333 OFFCURVE",
"140 1314 CURVE",
"156.667 1304 OFFCURVE",
"175.333 1299 OFFCURVE",
"196 1299 CURVE SMOOTH",
"256 1299 OFFCURVE",
"329.333 1344 OFFCURVE",
"416 1434 CURVE SMOOTH",
"489.333 1510 OFFCURVE",
"526 1573 OFFCURVE",
"526 1623 CURVE SMOOTH",
"526 1644.333 OFFCURVE",
"519.333 1662.667 OFFCURVE",
"506 1678 CURVE",
"497.333 1689.333 OFFCURVE",
"493 1700.667 OFFCURVE",
"493 1712 CURVE SMOOTH",
"493 1726.667 OFFCURVE",
"499.667 1739.667 OFFCURVE",
"513 1751 CURVE SMOOTH",
"538.333 1773 OFFCURVE",
"578.667 1788 OFFCURVE",
"634 1796 CURVE",
"722 1802 LINE",
"740 1658 LINE SMOOTH",
"744 1622 OFFCURVE",
"746 1592 OFFCURVE",
"746 1568 CURVE SMOOTH",
"746 1501.333 OFFCURVE",
"730 1454 OFFCURVE",
"670 1314 CURVE SMOOTH",
"630 1228.667 OFFCURVE",
"590.333 1097.333 OFFCURVE",
"561 980 CURVE SMOOTH",
"534.333 873.333 OFFCURVE",
"488.667 738 OFFCURVE",
"446 646 CURVE SMOOTH",
"428 607.333 OFFCURVE",
"400 554.667 OFFCURVE",
"362 488 CURVE SMOOTH",
"276 330 LINE SMOOTH",
"247.333 278.667 OFFCURVE",
"233 232.667 OFFCURVE",
"233 192 CURVE SMOOTH",
"233 139.333 OFFCURVE",
"258 96.667 OFFCURVE",
"308 64 CURVE SMOOTH",
"317.333 58 OFFCURVE",
"327 55 OFFCURVE",
"337 55 CURVE SMOOTH",
"347 55 OFFCURVE",
"358 58 OFFCURVE",
"370 64 CURVE",
"379.333 68 OFFCURVE",
"394 85.667 OFFCURVE",
"414 117 CURVE SMOOTH",
"429.333 141 OFFCURVE",
"454.667 185.333 OFFCURVE",
"490 250 CURVE SMOOTH",
"552 364 OFFCURVE",
"583.333 434 OFFCURVE",
"584 460 CURVE SMOOTH",
"584 476 OFFCURVE",
"605.333 517.333 OFFCURVE",
"648 584 CURVE SMOOTH",
"688 643.333 OFFCURVE",
"728 724.667 OFFCURVE",
"768 828 CURVE SMOOTH",
"806.667 937.333 OFFCURVE",
"872.667 1064 OFFCURVE",
"966 1208 CURVE SMOOTH",
"1060.667 1363.333 OFFCURVE",
"1108 1449 OFFCURVE",
"1108 1465 CURVE SMOOTH",
"1108 1480.333 OFFCURVE",
"1141 1504.333 OFFCURVE",
"1207 1537 CURVE",
"1188.333 1529.667 OFFCURVE",
"1179 1526.333 OFFCURVE",
"1179 1527 CURVE SMOOTH",
"1179 1535.238 OFFCURVE",
"1294.726 1573 OFFCURVE",
"1307 1573 CURVE SMOOTH",
"1312.333 1573 OFFCURVE",
"1315.333 1572 OFFCURVE",
"1316 1570 CURVE",
"1318 1566 OFFCURVE",
"1319 1559 OFFCURVE",
"1319 1549 CURVE SMOOTH",
"1319 1477 OFFCURVE",
"1258.5 1265.333 OFFCURVE",
"1192.5 1096 CURVE SMOOTH",
"1159.5 1011.333 OFFCURVE",
"1132.667 958 OFFCURVE",
"1112 936 CURVE",
"1084.667 904.667 OFFCURVE",
"1069.667 869.333 OFFCURVE",
"1067 830 CURVE SMOOTH",
"1064.333 790.667 OFFCURVE",
"1044.667 748.667 OFFCURVE",
"1008 704 CURVE",
"976 661.333 OFFCURVE",
"960 623.333 OFFCURVE",
"960 590 CURVE SMOOTH",
"960 556.667 OFFCURVE",
"943.333 509.333 OFFCURVE",
"910 448 CURVE SMOOTH",
"876.667 382.667 OFFCURVE",
"856.667 326.667 OFFCURVE",
"850 280 CURVE",
"845.333 260.667 OFFCURVE",
"843 241 OFFCURVE",
"843 221 CURVE SMOOTH",
"843 146.333 OFFCURVE",
"880.667 97 OFFCURVE",
"934 97 CURVE SMOOTH",
"942 97 OFFCURVE",
"950 98 OFFCURVE",
"958 100 CURVE SMOOTH",
"996.667 110.667 OFFCURVE",
"1030 142 OFFCURVE",
"1058 194 CURVE SMOOTH",
"1171.333 403.333 OFFCURVE",
"1306 716.667 OFFCURVE",
"1326 810 CURVE SMOOTH",
"1351.333 916.667 OFFCURVE",
"1550 1197 OFFCURVE",
"1730 1393 CURVE",
"1553.333 1186.667 OFFCURVE",
"1640 1295 OFFCURVE",
"1730 1393 CURVE SMOOTH",
"1820 1491 OFFCURVE",
"1880 1540 OFFCURVE",
"1910 1540 CURVE",
"1918 1536 OFFCURVE",
"1922 1521.333 OFFCURVE",
"1922 1496 CURVE SMOOTH",
"1922 1488 OFFCURVE",
"1920.667 1470.667 OFFCURVE",
"1918 1444 CURVE SMOOTH",
"1913.333 1387.333 OFFCURVE",
"1899.333 1309.333 OFFCURVE",
"1876 1210 CURVE SMOOTH",
"1852.667 1108.667 OFFCURVE",
"1827.333 1015.333 OFFCURVE",
"1800 930 CURVE",
"1786.667 876.667 OFFCURVE",
"1780 770.667 OFFCURVE",
"1780 612 CURVE SMOOTH",
"1780 430.667 OFFCURVE",
"1797.667 331.667 OFFCURVE",
"1847 257 CURVE SMOOTH",
"1871.667 219.667 OFFCURVE",
"1908 183.333 OFFCURVE",
"1956 148 CURVE SMOOTH",
"2004 112 OFFCURVE",
"2034.667 101 OFFCURVE",
"2080 101 CURVE SMOOTH",
"2094.667 101 OFFCURVE",
"2116 102.667 OFFCURVE",
"2144 106 CURVE SMOOTH",
"2229.333 118 OFFCURVE",
"2331 156 OFFCURVE",
"2399 200 CURVE SMOOTH",
"2433 222 OFFCURVE",
"2454 242.667 OFFCURVE",
"2462 262 CURVE",
"2464.667 267.333 OFFCURVE",
"2466 274 OFFCURVE",
"2466 282 CURVE SMOOTH",
"2466 333.82 OFFCURVE",
"2395.433 396 OFFCURVE",
"2338 396 CURVE SMOOTH",
"2296 396 OFFCURVE",
"2247.333 378 OFFCURVE",
"2192 342 CURVE",
"2144.667 315.333 OFFCURVE",
"2106 302 OFFCURVE",
"2076 302 CURVE SMOOTH",
"2072 302 OFFCURVE",
"2066 302.667 OFFCURVE",
"2058 304 CURVE",
"2002 322.667 OFFCURVE",
"1968 464.333 OFFCURVE",
"1968 627 CURVE SMOOTH",
"1968 741.667 OFFCURVE",
"1985.333 850.667 OFFCURVE",
"2020 916 CURVE",
"2041.333 964 OFFCURVE",
"2052 994.333 OFFCURVE",
"2052 1007 CURVE SMOOTH",
"2052 1021.667 OFFCURVE",
"2072 1071.333 OFFCURVE",
"2112 1156 CURVE SMOOTH",
"2152.667 1236.667 OFFCURVE",
"2179.333 1340 OFFCURVE",
"2192 1466 CURVE SMOOTH",
"2208 1654 LINE",
"2130 1722 LINE SMOOTH",
"2080.667 1763.333 OFFCURVE",
"2035.333 1783 OFFCURVE",
"1986 1783 CURVE SMOOTH",
"1902 1783 OFFCURVE",
"1804 1727.333 OFFCURVE",
"1648 1598 CURVE SMOOTH",
"1605.333 1562 OFFCURVE",
"1575.667 1544 OFFCURVE",
"1559 1544 CURVE SMOOTH",
"1549 1544 OFFCURVE",
"1542 1550.167 OFFCURVE",
"1538 1562.5 CURVE SMOOTH",
"1534 1574.833 OFFCURVE",
"1532 1594.667 OFFCURVE",
"1532 1622 CURVE SMOOTH",
"1532 1712.667 OFFCURVE",
"1493.5 1787.833 OFFCURVE",
"1435.5 1828.5 CURVE SMOOTH",
"1406.5 1848.833 OFFCURVE",
"1375.333 1859 OFFCURVE",
"1342 1859 CURVE SMOOTH",
"1308.667 1859 OFFCURVE",
"1276.667 1848.667 OFFCURVE",
"1246 1828 CURVE SMOOTH",
"1206.667 1801.333 OFFCURVE",
"1175.333 1788 OFFCURVE",
"1152 1788 CURVE SMOOTH",
"1128.667 1788 OFFCURVE",
"1100.667 1770.667 OFFCURVE",
"1068 1736 CURVE",
"1040.667 1712 OFFCURVE",
"1019.667 1700 OFFCURVE",
"1005 1700 CURVE SMOOTH",
"990.333 1700 OFFCURVE",
"978.167 1710.833 OFFCURVE",
"968.5 1732.5 CURVE SMOOTH",
"958.833 1754.167 OFFCURVE",
"950 1789.333 OFFCURVE",
"942 1838 CURVE",
"932.667 1911.333 OFFCURVE",
"923.333 1944.5 OFFCURVE",
"902 1966.5 CURVE SMOOTH",
"891.333 1977.5 OFFCURVE",
"875.333 1988.667 OFFCURVE",
"854 2000 CURVE SMOOTH",
"825.333 2014 OFFCURVE",
"799.333 2021 OFFCURVE",
"776 2021 CURVE SMOOTH",
"760 2021 OFFCURVE",
"744.667 2017.333 OFFCURVE",
"730 2010 CURVE SMOOTH",
"712.667 2000.667 OFFCURVE",
"698 1996 OFFCURVE",
"686 1996 CURVE SMOOTH",
"672.667 1996 OFFCURVE",
"661.333 2000.667 OFFCURVE",
"652 2010 CURVE SMOOTH",
"636.667 2025.333 OFFCURVE",
"622.333 2033 OFFCURVE",
"609 2033 CURVE SMOOTH",
"595.667 2033 OFFCURVE",
"582.667 2026.667 OFFCURVE",
"570 2014 CURVE",
"562.667 2007.333 OFFCURVE",
"516 1979.333 OFFCURVE",
"430 1930 CURVE SMOOTH"
);
}
);
width = 2321;
}
);
note = M;
unicode = 004D;
},
{
glyphname = N;
lastChange = "2019-05-24 06:00:42 +0000";
layers = (
{
anchors = (
{
name = bottom;
position = "{1201, 0}";
},
{
name = top;
position = "{1415, 2130}";
}
);
layerId = "B32CFD71-CB6A-495B-AD15-7D36F0D81A51";
paths = (
{
closed = 1;
nodes = (
"2363.333 376 OFFCURVE",
"2273.333 320 OFFCURVE",
"2158 260 CURVE",
"2148.667 254.667 OFFCURVE",
"2126.667 246 OFFCURVE",
"2092 234 CURVE",
"1968.667 208.667 OFFCURVE",
"1852.667 196 OFFCURVE",
"1744 196 CURVE SMOOTH",
"1687.333 196 OFFCURVE",
"1636 200 OFFCURVE",
"1590 208 CURVE",
"1527.333 224 OFFCURVE",
"1477.667 279.333 OFFCURVE",
"1451 350 CURVE SMOOTH",
"1437.667 385.333 OFFCURVE",
"1431 421.333 OFFCURVE",
"1431 458 CURVE SMOOTH",
"1431 523.333 OFFCURVE",
"1454 583.333 OFFCURVE",
"1498 622 CURVE",
"1522 639.333 OFFCURVE",
"1534 668 OFFCURVE",
"1534 708 CURVE SMOOTH",
"1534 750 OFFCURVE",
"1555.333 813.333 OFFCURVE",
"1598 898 CURVE SMOOTH",
"1666 1023.333 OFFCURVE",
"1760 1342.667 OFFCURVE",
"1796 1556 CURVE SMOOTH",
"1800 1585.333 OFFCURVE",
"1802 1612.667 OFFCURVE",
"1802 1638 CURVE SMOOTH",
"1802 1688.667 OFFCURVE",
"1794.667 1732 OFFCURVE",
"1780 1768 CURVE",
"1751.333 1857.825 OFFCURVE",
"1741.136 1863 OFFCURVE",
"1646 1863 CURVE SMOOTH",
"1598 1862 LINE SMOOTH",
"1510 1862 OFFCURVE",
"1465.5 1851.333 OFFCURVE",
"1411.5 1818 CURVE SMOOTH",
"1384.5 1801.333 OFFCURVE",
"1346 1773.333 OFFCURVE",
"1296 1734 CURVE SMOOTH",
"1140 1616 LINE",
"1140 1768 LINE SMOOTH",
"1140 1817.333 OFFCURVE",
"1138.667 1852.667 OFFCURVE",
"1136 1874 CURVE SMOOTH",
"1130.667 1922 OFFCURVE",
"1118.667 1944.667 OFFCURVE",
"1084 1966 CURVE",
"1048 1991.333 OFFCURVE",
"975.667 2005 OFFCURVE",
"905 2005 CURVE SMOOTH",
"863 2005 OFFCURVE",
"828.667 2000.667 OFFCURVE",
"802 1992 CURVE",
"695.333 1952 OFFCURVE",
"455.5 1824.667 OFFCURVE",
"293.5 1722 CURVE SMOOTH",
"212.5 1670.667 OFFCURVE",
"172 1638.667 OFFCURVE",
"172 1626 CURVE SMOOTH",
"172 1622 OFFCURVE",
"192 1597.333 OFFCURVE",
"232 1552 CURVE SMOOTH",
"272 1508 OFFCURVE",
"303 1487 OFFCURVE",
"335 1487 CURVE SMOOTH",
"361 1487 OFFCURVE",
"390 1504 OFFCURVE",
"422 1538 CURVE",
"437.333 1556 OFFCURVE",
"465.333 1576.667 OFFCURVE",
"506 1600 CURVE SMOOTH",
"546.667 1624.667 OFFCURVE",
"588.667 1648.667 OFFCURVE",
"632 1672 CURVE",
"680.667 1695.333 OFFCURVE",
"721 1713 OFFCURVE",
"753 1725 CURVE SMOOTH",
"775 1733.667 OFFCURVE",
"792 1738 OFFCURVE",
"804 1738 CURVE SMOOTH",
"810 1738 OFFCURVE",
"814 1736.667 OFFCURVE",
"816 1734 CURVE",
"830.667 1721.333 OFFCURVE",
"838 1695 OFFCURVE",
"838 1655 CURVE SMOOTH",
"838 1591 OFFCURVE",
"816.667 1504 OFFCURVE",
"782 1444 CURVE SMOOTH",
"744.667 1374.667 OFFCURVE",
"720 1317.333 OFFCURVE",
"708 1272 CURVE",
"698 1239.333 OFFCURVE",
"678 1188.667 OFFCURVE",
"648 1120 CURVE SMOOTH",
"622 1059.333 OFFCURVE",
"589.333 992.667 OFFCURVE",
"550 920 CURVE SMOOTH",
"514.667 852.667 OFFCURVE",
"484 800 OFFCURVE",
"458 762 CURVE SMOOTH",
"428 720.667 OFFCURVE",
"378.667 638 OFFCURVE",
"310 514 CURVE SMOOTH",
"242 391.333 OFFCURVE",
"192 306.667 OFFCURVE",
"160 260 CURVE SMOOTH",
"86 148 LINE",
"142 66 LINE SMOOTH",
"175.333 20 OFFCURVE",
"208 -3 OFFCURVE",
"240 -3 CURVE SMOOTH",
"246 -3 OFFCURVE",
"252 -2 OFFCURVE",
"258 0 CURVE",
"299.333 9.333 OFFCURVE",
"324 14 OFFCURVE",
"332 14 CURVE SMOOTH",
"346 14 OFFCURVE",
"374.667 56.667 OFFCURVE",
"418 142 CURVE",
"502.667 294.667 OFFCURVE",
"586 432 OFFCURVE",
"668 554 CURVE SMOOTH",
"718 624 OFFCURVE",
"754.667 690 OFFCURVE",
"778 752 CURVE",
"814 832 OFFCURVE",
"956.667 1039.833 OFFCURVE",
"1082 1200.5 CURVE SMOOTH",
"1144.667 1280.833 OFFCURVE",
"1188.667 1330 OFFCURVE",
"1214 1348 CURVE SMOOTH",
"1267.333 1388.667 OFFCURVE",
"1326 1436.667 OFFCURVE",
"1390 1492 CURVE SMOOTH",
"1462.667 1557.333 OFFCURVE",
"1515.667 1590 OFFCURVE",
"1549 1590 CURVE SMOOTH",
"1569 1590 OFFCURVE",
"1579 1579.667 OFFCURVE",
"1579 1559 CURVE SMOOTH",
"1579 1532.333 OFFCURVE",
"1562 1488 OFFCURVE",
"1528 1426 CURVE SMOOTH",
"1481.333 1340.667 OFFCURVE",
"1454 1280 OFFCURVE",
"1446 1244 CURVE",
"1434 1198.667 OFFCURVE",
"1402.667 1120 OFFCURVE",
"1352 1008 CURVE SMOOTH",
"1245.333 773.333 OFFCURVE",
"1196 609.333 OFFCURVE",
"1196 476 CURVE SMOOTH",
"1196 382.667 OFFCURVE",
"1220.667 302.667 OFFCURVE",
"1270 224 CURVE SMOOTH",
"1338 117.333 OFFCURVE",
"1449.667 44 OFFCURVE",
"1579 16 CURVE SMOOTH",
"1639.667 3.333 OFFCURVE",
"1701.333 -3 OFFCURVE",
"1764 -3 CURVE SMOOTH",
"1826 -3 OFFCURVE",
"1890.667 3.333 OFFCURVE",
"1958 16 CURVE SMOOTH",
"2017.333 28.667 OFFCURVE",
"2089.333 51.333 OFFCURVE",
"2174 84 CURVE SMOOTH",
"2215.333 100 OFFCURVE",
"2260 120.333 OFFCURVE",
"2308 145 CURVE SMOOTH",
"2406.667 198.333 OFFCURVE",
"2475.667 245 OFFCURVE",
"2517 301 CURVE SMOOTH",
"2539 331 OFFCURVE",
"2550 360.667 OFFCURVE",
"2550 390 CURVE",
"2548.667 438 OFFCURVE",
"2530.333 462 OFFCURVE",
"2501 462 CURVE SMOOTH",
"2480.333 462 OFFCURVE",
"2456 450.667 OFFCURVE",
"2428 428 CURVE SMOOTH"
);
}
);
width = 2401;
}
);
note = N;
unicode = 004E;
},
{
glyphname = O;
lastChange = "2019-05-24 05:34:28 +0000";
layers = (
{
anchors = (
{
name = bottom;
position = "{798, 0}";
},
{
name = center;
position = "{798, 1124}";
},
{
name = ogonek;
position = "{1436, 10}";
},
{
name = top;
position = "{1377, 1993}";
},
{
name = topleft;
position = "{20, 2248}";
},
{
name = topright;
position = "{1846, 1995}";
}
);
layerId = "B32CFD71-CB6A-495B-AD15-7D36F0D81A51";
paths = (
{
closed = 1;
nodes = (
"965.333 1820 OFFCURVE",
"951 1827 OFFCURVE",
"935 1827 CURVE SMOOTH",
"917.667 1827 OFFCURVE",
"880.667 1813.333 OFFCURVE",
"824 1786 CURVE SMOOTH",
"744 1747.333 OFFCURVE",
"565.5 1616 OFFCURVE",
"443.5 1508 CURVE SMOOTH",
"382.5 1454 OFFCURVE",
"352 1420 OFFCURVE",
"352 1406 CURVE SMOOTH",
"352 1395.333 OFFCURVE",
"332.667 1348 OFFCURVE",
"294 1264 CURVE",
"256.667 1190.667 OFFCURVE",
"228 1107.333 OFFCURVE",
"208 1014 CURVE SMOOTH",
"167.333 790 OFFCURVE",
"131.333 640 OFFCURVE",
"100 564 CURVE SMOOTH",
"91.333 544 OFFCURVE",
"87 514 OFFCURVE",
"87 474 CURVE SMOOTH",
"87 372.667 OFFCURVE",
"116 231.333 OFFCURVE",
"156 142 CURVE SMOOTH",
"234 -18 OFFCURVE",
"331.667 -98 OFFCURVE",
"449 -98 CURVE SMOOTH",
"677.667 -98 OFFCURVE",
"982 204.667 OFFCURVE",
"1362 810 CURVE",
"1392.667 852.667 OFFCURVE",
"1416.833 874.5 OFFCURVE",
"1461.5 892.5 CURVE SMOOTH",
"1483.833 901.5 OFFCURVE",
"1514.667 910.667 OFFCURVE",
"1554 920 CURVE SMOOTH",
"1720.667 960 OFFCURVE",
"1824 1040.667 OFFCURVE",
"1824 1126 CURVE SMOOTH",
"1824 1174 OFFCURVE",
"1806.333 1195 OFFCURVE",
"1761 1195 CURVE SMOOTH",
"1711.667 1195 OFFCURVE",
"1636.667 1170.667 OFFCURVE",
"1510 1116 CURVE",
"1506.667 1113.333 OFFCURVE",
"1503.333 1112 OFFCURVE",
"1500 1112 CURVE",
"1492 1114 OFFCURVE",
"1488 1120.667 OFFCURVE",
"1488 1132 CURVE",
"1487.333 1159.333 OFFCURVE",
"1508.667 1216 OFFCURVE",
"1552 1302 CURVE SMOOTH",
"1589.333 1375.333 OFFCURVE",
"1608 1445.333 OFFCURVE",
"1608 1512 CURVE SMOOTH",
"1609.333 1623.333 OFFCURVE",
"1559.333 1726 OFFCURVE",
"1458 1820 CURVE SMOOTH",
"1387.333 1882.667 OFFCURVE",
"1342 1914 OFFCURVE",
"1322 1914 CURVE",
"1226 1901.333 OFFCURVE",
"1150 1873.333 OFFCURVE",
"1094 1830 CURVE SMOOTH",
"1074 1814.667 OFFCURVE",
"1057 1803.167 OFFCURVE",
"1043 1795.5 CURVE SMOOTH",
"1029 1787.833 OFFCURVE",
"1019.667 1784 OFFCURVE",
"1015 1784 CURVE SMOOTH",
"1003 1784 OFFCURVE",
"990.667 1791.333 OFFCURVE",
"978 1806 CURVE SMOOTH"
);
},
{
closed = 1;
nodes = (
"928 1327.333 OFFCURVE",
"944 1281.333 OFFCURVE",
"956 1220 CURVE SMOOTH",
"967.333 1160 OFFCURVE",
"1010 1094 OFFCURVE",
"1084 1022 CURVE SMOOTH",
"1192 918 LINE",
"1128 792 LINE SMOOTH",
"1043.333 631.333 OFFCURVE",
"923.333 474.667 OFFCURVE",
"768 322 CURVE SMOOTH",
"611.333 168.667 OFFCURVE",
"494 92 OFFCURVE",
"416 92 CURVE SMOOTH",
"348.488 92 OFFCURVE",
"282 163.649 OFFCURVE",
"282 234 CURVE SMOOTH",
"282 280 OFFCURVE",
"278.667 323.333 OFFCURVE",
"272 364 CURVE SMOOTH",
"270.667 370.667 OFFCURVE",
"270 378.333 OFFCURVE",
"270 387 CURVE SMOOTH",
"270 471 OFFCURVE",
"316 706.5 OFFCURVE",
"372 916.5 CURVE SMOOTH",
"400 1021.5 OFFCURVE",
"424.667 1098 OFFCURVE",
"446 1146 CURVE SMOOTH",
"487.333 1244 OFFCURVE",
"587.333 1355.333 OFFCURVE",
"746 1480 CURVE SMOOTH",
"774.667 1502 OFFCURVE",
"796.667 1517.833 OFFCURVE",
"812 1527.5 CURVE SMOOTH",
"827.333 1537.167 OFFCURVE",
"839.667 1542 OFFCURVE",
"849 1542 CURVE SMOOTH",
"858.333 1542 OFFCURVE",
"864.833 1536.333 OFFCURVE",
"868.5 1525 CURVE SMOOTH",
"872.167 1513.667 OFFCURVE",
"874 1495.333 OFFCURVE",
"874 1470 CURVE SMOOTH",
"874 1426.667 OFFCURVE",
"885.333 1389.333 OFFCURVE",
"908 1358 CURVE"
);
},
{
closed = 1;
nodes = (
"1326.667 1260.667 OFFCURVE",
"1323.333 1254.333 OFFCURVE",
"1320 1249 CURVE",
"1296 1199.667 OFFCURVE",
"1277.667 1165.333 OFFCURVE",
"1265 1146 CURVE SMOOTH",
"1252.333 1126.667 OFFCURVE",
"1239.333 1117 OFFCURVE",
"1226 1117 CURVE SMOOTH",
"1214.667 1117 OFFCURVE",
"1202 1125.333 OFFCURVE",
"1188 1142 CURVE SMOOTH",
"1161.333 1173.333 OFFCURVE",
"1140 1221.333 OFFCURVE",
"1124 1286 CURVE SMOOTH",
"1112 1334 OFFCURVE",
"1106 1378.333 OFFCURVE",
"1106 1419 CURVE SMOOTH",
"1106 1428.333 OFFCURVE",
"1106.667 1441.667 OFFCURVE",
"1108 1459 CURVE SMOOTH",
"1113.333 1510.333 OFFCURVE",
"1127.333 1536 OFFCURVE",
"1150 1536 CURVE SMOOTH",
"1170 1536 OFFCURVE",
"1196 1562 OFFCURVE",
"1208 1598 CURVE SMOOTH",
"1221.333 1635.333 OFFCURVE",
"1251.667 1654 OFFCURVE",
"1299 1654 CURVE SMOOTH",
"1346.333 1654 OFFCURVE",
"1375.333 1646.667 OFFCURVE",
"1386 1632 CURVE",
"1398.667 1612.667 OFFCURVE",
"1405 1584.333 OFFCURVE",
"1405 1547 CURVE SMOOTH",
"1405 1471 OFFCURVE",
"1376.667 1368 OFFCURVE",
"1330 1268 CURVE SMOOTH"
);
}
);
width = 1595;
}
);
note = O;
unicode = 004F;
},
{
glyphname = P;
lastChange = "2019-05-23 17:57:26 +0000";
layers = (
{
layerId = "B32CFD71-CB6A-495B-AD15-7D36F0D81A51";
paths = (
{
closed = 1;
nodes = (
"611.333 982.667 OFFCURVE",
"572 891.333 OFFCURVE",
"572 872 CURVE SMOOTH",
"572 837.333 OFFCURVE",
"524.333 804 OFFCURVE",
"483 804 CURVE SMOOTH",
"471 804 OFFCURVE",
"461.333 806.667 OFFCURVE",
"454 812 CURVE",
"444 820 OFFCURVE",
"427 824 OFFCURVE",
"403 824 CURVE SMOOTH",
"336.333 824 OFFCURVE",
"228.167 791.333 OFFCURVE",
"143.5 746 CURVE SMOOTH",
"101.167 723.333 OFFCURVE",
"72 700.667 OFFCURVE",
"56 678 CURVE",
"30.667 644.667 OFFCURVE",
"18 621.667 OFFCURVE",
"18 609 CURVE SMOOTH",
"18 596.333 OFFCURVE",
"29.333 572.667 OFFCURVE",
"52 538 CURVE SMOOTH",
"84.814 485.883 OFFCURVE",
"101.892 473 OFFCURVE",
"167 473 CURVE SMOOTH",
"186.333 473 OFFCURVE",
"211.333 474 OFFCURVE",
"242 476 CURVE SMOOTH",
"283.333 479.333 OFFCURVE",
"314 481 OFFCURVE",
"334 481 CURVE SMOOTH",
"370.667 481 OFFCURVE",
"392 477.333 OFFCURVE",
"398 470 CURVE",
"406 454 OFFCURVE",
"378 377.333 OFFCURVE",
"314 240 CURVE SMOOTH",
"269.333 144 OFFCURVE",
"243.333 82 OFFCURVE",
"236 54 CURVE",
"234 47.333 OFFCURVE",
"233 39.667 OFFCURVE",
"233 31 CURVE SMOOTH",
"233 10.333 OFFCURVE",
"240 -12 OFFCURVE",
"254 -36 CURVE",
"278.667 -82.667 OFFCURVE",
"312.667 -106 OFFCURVE",
"356 -106 CURVE SMOOTH",
"396 -106 OFFCURVE",
"417.667 -87.667 OFFCURVE",
"443 -33 CURVE SMOOTH",
"453.667 -11 OFFCURVE",
"471.333 36 OFFCURVE",
"496 108 CURVE SMOOTH",
"542 230 LINE",
"582 316 LINE",
"597.333 343.333 OFFCURVE",
"610.667 361.333 OFFCURVE",
"622 370 CURVE",
"633.333 380.667 OFFCURVE",
"648 390.667 OFFCURVE",
"666 400 CURVE",
"678.667 408.667 OFFCURVE",
"692 413 OFFCURVE",
"706 413 CURVE SMOOTH",
"710.667 413 OFFCURVE",
"714.333 412.667 OFFCURVE",
"717 412 CURVE",
"733 409.333 OFFCURVE",
"754.667 408 OFFCURVE",
"782 408 CURVE",
"796.667 406.667 OFFCURVE",
"808.333 406 OFFCURVE",
"817 406 CURVE SMOOTH",
"934.333 406 OFFCURVE",
"1117.333 457.667 OFFCURVE",
"1264 531 CURVE SMOOTH",
"1337.333 567.667 OFFCURVE",
"1390 604 OFFCURVE",
"1422 640 CURVE",
"1452.667 670.667 OFFCURVE",
"1485.333 686 OFFCURVE",
"1520 686 CURVE SMOOTH",
"1540.667 686 OFFCURVE",
"1562.333 695 OFFCURVE",
"1585 713 CURVE SMOOTH",
"1607.667 731 OFFCURVE",
"1636.667 762 OFFCURVE",
"1672 806 CURVE SMOOTH",
"1712 854.667 OFFCURVE",
"1760.667 920 OFFCURVE",
"1818 1002 CURVE SMOOTH",
"1948.667 1191.333 OFFCURVE",
"2008 1317 OFFCURVE",
"2008 1421 CURVE SMOOTH",
"2008 1521 OFFCURVE",
"1952 1602 OFFCURVE",
"1828 1690 CURVE",
"1732.667 1765.333 OFFCURVE",
"1644 1808.667 OFFCURVE",
"1562 1820 CURVE SMOOTH",
"1438 1838.667 OFFCURVE",
"1161.667 1853 OFFCURVE",
"983 1853 CURVE SMOOTH",
"914.333 1853 OFFCURVE",
"870 1850.667 OFFCURVE",
"850 1846 CURVE",
"844.667 1846 OFFCURVE",
"806.667 1831 OFFCURVE",
"736 1801 CURVE SMOOTH",
"664.667 1771 OFFCURVE",
"619.333 1756 OFFCURVE",
"600 1756 CURVE SMOOTH",
"557.333 1756 OFFCURVE",
"476.5 1709.5 OFFCURVE",
"422.5 1659.5 CURVE SMOOTH",
"395.5 1634.5 OFFCURVE",
"382 1614.667 OFFCURVE",
"382 1600 CURVE SMOOTH",
"382 1528 OFFCURVE",
"444.333 1481 OFFCURVE",
"523 1481 CURVE SMOOTH",
"567 1481 OFFCURVE",
"614.667 1497.333 OFFCURVE",
"652 1528 CURVE",
"677.333 1550.667 OFFCURVE",
"762 1584 OFFCURVE",
"814 1584 CURVE SMOOTH",
"842 1584 OFFCURVE",
"859.333 1575.333 OFFCURVE",
"866 1558 CURVE",
"866 1542.667 OFFCURVE",
"861.333 1529.333 OFFCURVE",
"852 1518 CURVE",
"851.333 1516.667 OFFCURVE",
"842.667 1506 OFFCURVE",
"826 1486 CURVE SMOOTH",
"816.667 1474.667 OFFCURVE",
"812 1462 OFFCURVE",
"812 1448 CURVE SMOOTH",
"812 1420.667 OFFCURVE",
"771.333 1320 OFFCURVE",
"690 1146 CURVE SMOOTH"
);
},
{
closed = 1;
nodes = (
"1764 1433.333 OFFCURVE",
"1766 1419 OFFCURVE",
"1766 1405 CURVE SMOOTH",
"1766 1357 OFFCURVE",
"1741.333 1306.667 OFFCURVE",
"1668 1204 CURVE",
"1512.667 962.667 OFFCURVE",
"1290 782.667 OFFCURVE",
"1000 664 CURVE SMOOTH",
"920 630.667 OFFCURVE",
"854.667 614 OFFCURVE",
"804 614 CURVE SMOOTH",
"752 614 OFFCURVE",
"726 632 OFFCURVE",
"726 668 CURVE SMOOTH",
"726 684.667 OFFCURVE",
"732 706 OFFCURVE",
"744 732 CURVE SMOOTH",
"914.667 1076 OFFCURVE",
"1000 1267.333 OFFCURVE",
"1000 1306 CURVE SMOOTH",
"1000 1336.667 OFFCURVE",
"1008.667 1357 OFFCURVE",
"1026 1367 CURVE SMOOTH",
"1043.333 1377 OFFCURVE",
"1052 1412.667 OFFCURVE",
"1052 1474 CURVE SMOOTH",
"1052 1564.667 OFFCURVE",
"1081.167 1617.5 OFFCURVE",
"1152.5 1643.5 CURVE SMOOTH",
"1188.167 1656.5 OFFCURVE",
"1236.667 1663 OFFCURVE",
"1298 1663 CURVE SMOOTH",
"1339.333 1663 OFFCURVE",
"1383.333 1660.667 OFFCURVE",
"1430 1656 CURVE SMOOTH",
"1532 1646.667 OFFCURVE",
"1605.333 1630.667 OFFCURVE",
"1650 1608 CURVE",
"1711.333 1572 OFFCURVE",
"1726.833 1560 OFFCURVE",
"1739.5 1528 CURVE SMOOTH",
"1745.833 1512 OFFCURVE",
"1752.667 1485.333 OFFCURVE",
"1760 1448 CURVE"
);
}
);
width = 1799;
}
);
note = P;
unicode = 0050;
},
{
glyphname = Q;
lastChange = "2019-05-23 17:57:26 +0000";
layers = (
{
layerId = "B32CFD71-CB6A-495B-AD15-7D36F0D81A51";
paths = (
{
closed = 1;
nodes = (
"1773.333 268.667 OFFCURVE",
"1774 276.333 OFFCURVE",
"1774 281 CURVE SMOOTH",
"1774 307 OFFCURVE",
"1765 320 OFFCURVE",
"1747 320 CURVE SMOOTH",
"1732.333 320 OFFCURVE",
"1709.333 309.333 OFFCURVE",
"1678 288 CURVE",
"1648.667 264.667 OFFCURVE",
"1614.667 240.667 OFFCURVE",
"1576 216 CURVE",
"1550.667 210.667 OFFCURVE",
"1522 200.667 OFFCURVE",
"1490 186 CURVE SMOOTH",
"1422 157.333 OFFCURVE",
"1354.667 143 OFFCURVE",
"1288 143 CURVE SMOOTH",
"1273.333 143 OFFCURVE",
"1262.667 143.333 OFFCURVE",
"1256 144 CURVE SMOOTH",
"1181.333 149.333 OFFCURVE",
"1157.5 156.167 OFFCURVE",
"1135.5 183.5 CURVE SMOOTH",
"1124.5 197.167 OFFCURVE",
"1109.333 222 OFFCURVE",
"1090 258 CURVE SMOOTH",
"1030 366 LINE",
"1130 510 LINE SMOOTH",
"1195.333 606.667 OFFCURVE",
"1228 670.667 OFFCURVE",
"1228 702 CURVE SMOOTH",
"1228 711.333 OFFCURVE",
"1239.333 737.333 OFFCURVE",
"1250 764 CURVE",
"1267.333 802.667 OFFCURVE",
"1276 828 OFFCURVE",
"1276 840 CURVE",
"1273.333 823.333 OFFCURVE",
"1272 811.333 OFFCURVE",
"1272 804 CURVE SMOOTH",
"1272 791.546 OFFCURVE",
"1276 823.952 OFFCURVE",
"1276 840 CURVE SMOOTH",
"1276 879.333 OFFCURVE",
"1300.667 958 OFFCURVE",
"1350 1076 CURVE SMOOTH",
"1379.333 1151.333 OFFCURVE",
"1397.333 1206.667 OFFCURVE",
"1404 1242 CURVE SMOOTH",
"1408.667 1264 OFFCURVE",
"1411 1284 OFFCURVE",
"1411 1302 CURVE SMOOTH",
"1411 1318 OFFCURVE",
"1409.333 1336.667 OFFCURVE",
"1406 1358 CURVE SMOOTH",
"1395.333 1430 OFFCURVE",
"1382 1469.333 OFFCURVE",
"1366 1476 CURVE",
"1352.667 1491.333 OFFCURVE",
"1346 1527.333 OFFCURVE",
"1346 1584 CURVE SMOOTH",
"1346 1640 OFFCURVE",
"1337.667 1671.5 OFFCURVE",
"1315 1701.5 CURVE SMOOTH",
"1303.667 1716.5 OFFCURVE",
"1286 1734.667 OFFCURVE",
"1262 1756 CURVE SMOOTH",
"1184.667 1828 OFFCURVE",
"1087 1866 OFFCURVE",
"987 1866 CURVE SMOOTH",
"916.333 1866 OFFCURVE",
"849.333 1848.667 OFFCURVE",
"786 1814 CURVE SMOOTH",
"678 1758 OFFCURVE",
"528.167 1619.667 OFFCURVE",
"407.5 1465 CURVE SMOOTH",
"347.167 1387.667 OFFCURVE",
"302 1316.667 OFFCURVE",
"272 1252 CURVE SMOOTH",
"213.333 1132 OFFCURVE",
"184 1058.667 OFFCURVE",
"184 1032 CURVE SMOOTH",
"184 1006 OFFCURVE",
"175.333 989.333 OFFCURVE",
"158 982 CURVE",
"132.667 962.667 OFFCURVE",
"114.667 923.333 OFFCURVE",
"104 864 CURVE",
"95.333 803.333 OFFCURVE",
"89.333 705.333 OFFCURVE",
"86 570 CURVE SMOOTH",
"86 407.333 OFFCURVE",
"89.5 327.5 OFFCURVE",
"103.5 261.5 CURVE SMOOTH",
"110.5 228.5 OFFCURVE",
"121.333 193.333 OFFCURVE",
"136 156 CURVE SMOOTH",
"180 41.333 OFFCURVE",
"217.667 -11.167 OFFCURVE",
"283 -34.5 CURVE SMOOTH",
"315.667 -46.167 OFFCURVE",
"360 -52 OFFCURVE",
"416 -52 CURVE SMOOTH",
"516 -52 OFFCURVE",
"590.833 -30.333 OFFCURVE",
"667.5 19 CURVE SMOOTH",
"705.833 43.667 OFFCURVE",
"749.333 78 OFFCURVE",
"798 122 CURVE",
"894 220 LINE",
"1020 90 LINE",
"1104 -3.333 OFFCURVE",
"1220.333 -53 OFFCURVE",
"1343 -53 CURVE SMOOTH",
"1404.333 -53 OFFCURVE",
"1462.667 -41.333 OFFCURVE",
"1518 -18 CURVE SMOOTH",
"1610 22 OFFCURVE",
"1681.333 79.333 OFFCURVE",
"1732 154 CURVE SMOOTH",
"1754 186.667 OFFCURVE",
"1767.333 221.333 OFFCURVE",
"1772 258 CURVE SMOOTH"
);
},
{
closed = 1;
nodes = (
"921.333 588 OFFCURVE",
"886 608 OFFCURVE",
"830 648 CURVE SMOOTH",
"779.333 684 OFFCURVE",
"746.333 696 OFFCURVE",
"697 696 CURVE SMOOTH",
"688.333 696 OFFCURVE",
"668 694.667 OFFCURVE",
"636 692 CURVE",
"514.667 677.333 OFFCURVE",
"420 629.333 OFFCURVE",
"420 568 CURVE SMOOTH",
"420 508 OFFCURVE",
"449.333 480 OFFCURVE",
"520 480 CURVE SMOOTH",
"546 480 OFFCURVE",
"581.333 484.667 OFFCURVE",
"626 494 CURVE SMOOTH",
"676.667 506 OFFCURVE",
"713.333 512 OFFCURVE",
"736 512 CURVE SMOOTH",
"759.333 512 OFFCURVE",
"780 502.667 OFFCURVE",
"798 484 CURVE SMOOTH",
"808.667 473.333 OFFCURVE",
"814 462.667 OFFCURVE",
"814 452 CURVE SMOOTH",
"814 449.333 OFFCURVE",
"813.333 445.333 OFFCURVE",
"812 440 CURVE",
"807.333 424 OFFCURVE",
"784.667 391.333 OFFCURVE",
"744 342 CURVE SMOOTH",
"685.333 270 OFFCURVE",
"644.667 234 OFFCURVE",
"622 234 CURVE SMOOTH",
"601.333 234 OFFCURVE",
"568.667 214.667 OFFCURVE",
"524 176 CURVE SMOOTH",
"494.667 151.333 OFFCURVE",
"470.667 136.667 OFFCURVE",
"452 132 CURVE",
"442.667 130.667 OFFCURVE",
"434.667 130 OFFCURVE",
"428 130 CURVE SMOOTH",
"412.667 130 OFFCURVE",
"394 132 OFFCURVE",
"372 136 CURVE",
"318.667 148 OFFCURVE",
"285.333 179.667 OFFCURVE",
"272 231 CURVE SMOOTH",
"264.667 261.667 OFFCURVE",
"261 307 OFFCURVE",
"261 367 CURVE SMOOTH",
"261 421.667 OFFCURVE",
"263.333 482 OFFCURVE",
"268 548 CURVE SMOOTH",
"276 694.667 OFFCURVE",
"283.833 765.667 OFFCURVE",
"300.5 823 CURVE SMOOTH",
"308.833 851.667 OFFCURVE",
"321.333 882 OFFCURVE",
"338 914 CURVE",
"410 1040 LINE SMOOTH",
"448.667 1111.333 OFFCURVE",
"474.667 1158 OFFCURVE",
"488 1180 CURVE",
"504.667 1214 OFFCURVE",
"529.333 1252 OFFCURVE",
"562 1294 CURVE",
"621.333 1376.667 OFFCURVE",
"692 1457.333 OFFCURVE",
"774 1536 CURVE SMOOTH",
"850 1608 OFFCURVE",
"914.667 1656.667 OFFCURVE",
"948 1662 CURVE",
"973.333 1668 OFFCURVE",
"994.333 1671 OFFCURVE",
"1011 1671 CURVE SMOOTH",
"1056.333 1671 OFFCURVE",
"1075.333 1649.333 OFFCURVE",
"1090 1592 CURVE",
"1106 1540 OFFCURVE",
"1118.667 1514 OFFCURVE",
"1128 1514 CURVE SMOOTH",
"1161.347 1514 OFFCURVE",
"1228 1364.667 OFFCURVE",
"1228 1332 CURVE SMOOTH",
"1228 1298.667 OFFCURVE",
"1204.667 1236.667 OFFCURVE",
"1158 1146 CURVE SMOOTH",
"1108.667 1052.667 OFFCURVE",
"1084 981.333 OFFCURVE",
"1084 932 CURVE SMOOTH",
"1084 850.667 OFFCURVE",
"1045 730.333 OFFCURVE",
"997 649 CURVE SMOOTH",
"973.667 609.667 OFFCURVE",
"953.333 589.333 OFFCURVE",
"936 588 CURVE"
);
}
);
width = 1509;
}
);
note = Q;
unicode = 0051;
},
{
glyphname = R;
lastChange = "2019-05-23 17:57:26 +0000";
layers = (
{
layerId = "B32CFD71-CB6A-495B-AD15-7D36F0D81A51";
paths = (
{
closed = 1;
nodes = (
"2156 436.667 OFFCURVE",
"2138.333 460 OFFCURVE",
"2109 460 CURVE SMOOTH",
"2088.333 460 OFFCURVE",
"2064 448.667 OFFCURVE",
"2036 426 CURVE SMOOTH",
"1986 387.333 OFFCURVE",
"1925.333 348 OFFCURVE",
"1854 308 CURVE",
"1803.333 300.667 OFFCURVE",
"1770 293.333 OFFCURVE",
"1754 286 CURVE SMOOTH",
"1645.333 236.667 OFFCURVE",
"1540.667 212 OFFCURVE",
"1440 212 CURVE SMOOTH",
"1370 212 OFFCURVE",
"1308 226 OFFCURVE",
"1254 254 CURVE SMOOTH",
"1184.667 288.667 OFFCURVE",
"1155 315.667 OFFCURVE",
"1155 349 CURVE SMOOTH",
"1155 378.333 OFFCURVE",
"1180 413.333 OFFCURVE",
"1232 464 CURVE SMOOTH",
"1300 528.667 OFFCURVE",
"1366 602 OFFCURVE",
"1430 684 CURVE SMOOTH",
"1497.333 774.667 OFFCURVE",
"1556 838.667 OFFCURVE",
"1606 876 CURVE",
"1686 941.333 OFFCURVE",
"1766.333 1087.333 OFFCURVE",
"1813 1238 CURVE SMOOTH",
"1836.333 1313.333 OFFCURVE",
"1848 1380 OFFCURVE",
"1848 1438 CURVE SMOOTH",
"1848 1566 OFFCURVE",
"1801.333 1710.5 OFFCURVE",
"1728 1816.5 CURVE SMOOTH",
"1691.333 1869.5 OFFCURVE",
"1652 1907.333 OFFCURVE",
"1610 1930 CURVE",
"1549.333 1960 OFFCURVE",
"1466.333 1975 OFFCURVE",
"1361 1975 CURVE SMOOTH",
"1280.333 1975 OFFCURVE",
"1186 1966 OFFCURVE",
"1078 1948 CURVE SMOOTH",
"990.667 1932 OFFCURVE",
"900 1902.667 OFFCURVE",
"806 1860 CURVE SMOOTH",
"706 1816 OFFCURVE",
"644.667 1794 OFFCURVE",
"622 1794 CURVE SMOOTH",
"588.667 1794 OFFCURVE",
"525.667 1735 OFFCURVE",
"479 1667 CURVE SMOOTH",
"457 1634.333 OFFCURVE",
"446 1606.667 OFFCURVE",
"446 1584 CURVE SMOOTH",
"446 1566 LINE",
"450 1539.333 OFFCURVE",
"468.333 1526 OFFCURVE",
"501 1526 CURVE SMOOTH",
"541 1526 OFFCURVE",
"600.667 1545.333 OFFCURVE",
"680 1584 CURVE SMOOTH",
"732 1608 OFFCURVE",
"770.167 1625 OFFCURVE",
"794.5 1635 CURVE SMOOTH",
"818.833 1645 OFFCURVE",
"837 1650 OFFCURVE",
"849 1650 CURVE SMOOTH",
"865 1650 OFFCURVE",
"871 1642.333 OFFCURVE",
"871 1625 CURVE SMOOTH",
"871 1613.667 OFFCURVE",
"868.333 1598 OFFCURVE",
"863 1578 CURVE SMOOTH",
"857.667 1558 OFFCURVE",
"848.667 1527 OFFCURVE",
"836 1485 CURVE SMOOTH",
"807.333 1387 OFFCURVE",
"781.333 1322 OFFCURVE",
"758 1290 CURVE",
"744 1274.667 OFFCURVE",
"723.333 1214.667 OFFCURVE",
"696 1110 CURVE SMOOTH",
"674 1034.667 OFFCURVE",
"661.333 990.667 OFFCURVE",
"658 978 CURVE",
"650.667 954 OFFCURVE",
"639.333 926.667 OFFCURVE",
"624 896 CURVE SMOOTH",
"595.663 836.178 OFFCURVE",
"603.705 838.809 OFFCURVE",
"551 817 CURVE SMOOTH",
"528.333 807 OFFCURVE",
"509.333 802 OFFCURVE",
"494 802 CURVE SMOOTH",
"475.333 802 OFFCURVE",
"446 800.667 OFFCURVE",
"406 798 CURVE",
"284 794.667 OFFCURVE",
"199.333 784 OFFCURVE",
"152 766 CURVE",
"117.333 751.333 OFFCURVE",
"97 733.333 OFFCURVE",
"91 712 CURVE SMOOTH",
"87.667 700 OFFCURVE",
"86 678 OFFCURVE",
"86 646 CURVE SMOOTH",
"86 612 OFFCURVE",
"87.333 574.667 OFFCURVE",
"90 534 CURVE SMOOTH",
"98 332 LINE",
"194 300 OFFCURVE",
"279.333 272 OFFCURVE",
"354 248 CURVE",
"354 96 LINE SMOOTH",
"354 20.667 OFFCURVE",
"357.667 -23.333 OFFCURVE",
"365 -36 CURVE SMOOTH",
"372.333 -48 OFFCURVE",
"394.667 -54 OFFCURVE",
"432 -54 CURVE SMOOTH",
"494.667 -54 OFFCURVE",
"512.667 -41.333 OFFCURVE",
"526 8 CURVE",
"526 14 OFFCURVE",
"527.333 19.333 OFFCURVE",
"530 24 CURVE",
"562 136 OFFCURVE",
"585.333 199.333 OFFCURVE",
"600 214 CURVE",
"615.333 223.333 OFFCURVE",
"668 228 OFFCURVE",
"758 228 CURVE SMOOTH",
"868 228 OFFCURVE",
"966 207.333 OFFCURVE",
"1052 166 CURVE SMOOTH",
"1254.667 76.667 OFFCURVE",
"1277.333 68.667 OFFCURVE",
"1424 34 CURVE SMOOTH",
"1478.667 22 OFFCURVE",
"1518.667 16.667 OFFCURVE",
"1544 18 CURVE",
"1558.667 18 OFFCURVE",
"1574 21.333 OFFCURVE",
"1590 28 CURVE",
"1638.667 31.333 OFFCURVE",
"1720.667 64.667 OFFCURVE",
"1836 128 CURVE",
"1916 156.667 OFFCURVE",
"1970 186 OFFCURVE",
"1998 216 CURVE",
"2026 233.333 OFFCURVE",
"2084.333 274.333 OFFCURVE",
"2099 289 CURVE SMOOTH",
"2136.333 326.333 OFFCURVE",
"2156 350 OFFCURVE",
"2156 390 CURVE SMOOTH"
);
},
{
closed = 1;
nodes = (
"290 459.333 OFFCURVE",
"250 494.333 OFFCURVE",
"250 529 CURVE SMOOTH",
"250 557 OFFCURVE",
"276 584 OFFCURVE",
"328 604 CURVE",
"364.667 620 OFFCURVE",
"392.333 628 OFFCURVE",
"411 628 CURVE SMOOTH",
"435 628 OFFCURVE",
"452 617.333 OFFCURVE",
"472 592 CURVE SMOOTH",
"481.333 580.667 OFFCURVE",
"486 566.667 OFFCURVE",
"486 550 CURVE SMOOTH",
"486 495.383 OFFCURVE",
"434.244 436 OFFCURVE",
"379 436 CURVE SMOOTH",
"375.667 436 OFFCURVE",
"370 436.667 OFFCURVE",
"362 438 CURVE"
);
},
{
closed = 1;
nodes = (
"934 520 LINE",
"858 596 LINE",
"806 644 OFFCURVE",
"792 666.667 OFFCURVE",
"792 708 CURVE SMOOTH",
"792 724.667 OFFCURVE",
"794 745.333 OFFCURVE",
"798 770 CURVE",
"806 838 OFFCURVE",
"818.667 886.667 OFFCURVE",
"836 916 CURVE SMOOTH",
"850 938 OFFCURVE",
"870.667 998 OFFCURVE",
"898 1096 CURVE SMOOTH",
"927.333 1192.667 OFFCURVE",
"965.333 1274.667 OFFCURVE",
"1012 1342 CURVE SMOOTH",
"1056.667 1410 OFFCURVE",
"1083.333 1496.667 OFFCURVE",
"1092 1602 CURVE SMOOTH",
"1100.576 1682.998 OFFCURVE",
"1104.76 1737.565 OFFCURVE",
"1131 1753 CURVE SMOOTH",
"1142.333 1759.667 OFFCURVE",
"1164 1766 OFFCURVE",
"1196 1772 CURVE SMOOTH",
"1242 1782 OFFCURVE",
"1299.333 1787 OFFCURVE",
"1368 1787 CURVE SMOOTH",
"1416 1786 LINE",
"1544 1782 LINE",
"1592 1654 LINE SMOOTH",
"1613.333 1600 OFFCURVE",
"1624 1544.333 OFFCURVE",
"1624 1487 CURVE SMOOTH",
"1624 1371.667 OFFCURVE",
"1581.333 1248.333 OFFCURVE",
"1496 1117 CURVE SMOOTH",
"1431.333 1018.333 OFFCURVE",
"1339.333 908.667 OFFCURVE",
"1220 788 CURVE",
"1154 716 OFFCURVE",
"1092 654.667 OFFCURVE",
"1034 604 CURVE SMOOTH"
);
}
);
width = 1985;
}
);
note = R;
unicode = 0052;
},
